<?xml version="1.0" encoding="utf-8"?>
<!-- Generator: Adobe Illustrator 24.3.0, SVG Export Plug-In . SVG Version: 6.00 Build 0)  -->
<!DOCTYPE svg PUBLIC "-//W3C//DTD SVG 1.1//EN" "http://www.w3.org/Graphics/SVG/1.1/DTD/svg11.dtd" [
	<!ENTITY ns_extend "http://ns.adobe.com/Extensibility/1.0/">
	<!ENTITY ns_ai "http://ns.adobe.com/AdobeIllustrator/10.0/">
	<!ENTITY ns_graphs "http://ns.adobe.com/Graphs/1.0/">
	<!ENTITY ns_vars "http://ns.adobe.com/Variables/1.0/">
	<!ENTITY ns_imrep "http://ns.adobe.com/ImageReplacement/1.0/">
	<!ENTITY ns_sfw "http://ns.adobe.com/SaveForWeb/1.0/">
	<!ENTITY ns_custom "http://ns.adobe.com/GenericCustomNamespace/1.0/">
	<!ENTITY ns_adobe_xpath "http://ns.adobe.com/XPath/1.0/">
]>
<svg version="1.1" id="Layer_1" xmlns:x="&ns_extend;" xmlns:i="&ns_ai;" xmlns:graph="&ns_graphs;"
	 xmlns="http://www.w3.org/2000/svg" xmlns:xlink="http://www.w3.org/1999/xlink" x="0px" y="0px" viewBox="0 0 65 65"
	 style="enable-background:new 0 0 65 65;" xml:space="preserve">
<style type="text/css">
	.st0{fill:#66913D;}
	.st1{fill:none;stroke:#66913D;stroke-width:3;stroke-linecap:round;stroke-linejoin:round;}
	.st2{fill:none;}
	.st3{fill:#FFFFFF;}
	.st4{fill:#2F2F2F;}
	.st5{fill:#707070;}
</style>
<metadata>
	<sfw  xmlns="&ns_sfw;">
		<slices></slices>
		<sliceSourceBounds  bottomLeftOrigin="true" height="455.9" width="404.2" x="0.6" y="-456.3"></sliceSourceBounds>
	</sfw>
</metadata>
<g id="Group_349" transform="translate(-146.425 -130.801)">
	<g id="Group_348">
		<path class="st0" d="M192.4,159.6c-0.1,0-0.2,0-0.3,0c-0.1,0-0.3-0.1-0.4,0h-3.5c-0.8,0-1.5-0.7-1.5-1.5v-11.5
			c0-4.5-3.4-8.1-7.6-8.1s-7.6,3.7-7.6,8.1v1.4c0,2-1.6,3.7-3.6,3.7c0,0,0,0,0,0c-1,0-1.9-0.4-2.6-1.1c-0.7-0.7-1-1.6-1-2.6v-1.4
			c0-8.6,6.6-15.6,14.8-15.6c8.1,0,14.7,6.9,14.8,15.5c0,0,0,0.1,0,0.1v11.6c0,0.4-0.2,0.9-0.5,1.2
			C193.1,159.5,192.7,159.6,192.4,159.6z M189.7,156.5h1.2v-9.9c0,0,0-0.1,0-0.1c0-6.9-5.3-12.6-11.8-12.6
			c-6.5,0-11.8,5.6-11.8,12.6v1.4c0,0.2,0.1,0.4,0.2,0.5c0.1,0.1,0.2,0.2,0.4,0.2c0,0,0,0,0,0c0.3,0,0.6-0.3,0.6-0.7v-1.4
			c0-6.1,4.8-11.1,10.6-11.1s10.6,5,10.6,11.1V156.5z"/>
	</g>
	<path class="st0" d="M191.7,195.7h-25.5c-3.2,0-5.8-2.7-5.8-6v-27c0-3.3,2.6-6,5.8-6.1h25.5c0.3,0,0.7,0,1,0.1c2.8,0.5,4.8,3,4.8,6
		c0,0,0,0,0,0v27C197.5,192.9,194.9,195.7,191.7,195.7z M191.7,159.5C191.7,159.5,191.7,159.5,191.7,159.5h-25.5
		c-1.5,0-2.8,1.4-2.8,3.1v27c0,1.7,1.3,3,2.8,3.1h25.5c1.5,0,2.8-1.4,2.8-3.1v-27c0-1.5-1-2.8-2.3-3
		C192,159.5,191.8,159.5,191.7,159.5z"/>
	<path class="st0" d="M183.3,185.7h-8.8c-0.5,0-0.9-0.2-1.2-0.6c-0.3-0.4-0.4-0.9-0.2-1.3l2-6.4c-2.1-1.8-2.7-5-1.4-7.6
		c0.8-1.5,2-2.6,3.6-3.1c1.5-0.5,3.1-0.3,4.5,0.5c2.8,1.6,3.9,5.3,2.4,8.3c-0.4,0.7-0.8,1.3-1.4,1.9l2,6.4c0.1,0.5,0.1,1-0.2,1.3
		C184.3,185.5,183.8,185.7,183.3,185.7z M176.6,182.7h4.7l-1.7-5.5c-0.2-0.7,0.1-1.4,0.7-1.8c0.5-0.3,0.9-0.7,1.2-1.3
		c0.8-1.6,0.2-3.5-1.2-4.4c-0.7-0.4-1.4-0.5-2.1-0.2c-0.8,0.2-1.4,0.8-1.8,1.5c-0.8,1.6-0.2,3.5,1.2,4.4c0.6,0.3,0.9,1.1,0.7,1.8
		L176.6,182.7z"/>
	<path class="st0" d="M165.9,170.9c-0.8,0-1.5-0.7-1.5-1.5v-5.5c0-1.9,1.5-3.5,3.4-3.5h4.8c0.8,0,1.5,0.7,1.5,1.5s-0.7,1.5-1.5,1.5
		h-4.8c-0.2,0-0.4,0.2-0.4,0.5v5.5C167.4,170.2,166.7,170.9,165.9,170.9z"/>
	<path class="st0" d="M190.4,191.4h-3.5c-0.8,0-1.5-0.7-1.5-1.5s0.7-1.5,1.5-1.5h3.5c0.2,0,0.4-0.3,0.4-0.6v-3.9
		c0-0.8,0.7-1.5,1.5-1.5s1.5,0.7,1.5,1.5v3.9C193.9,189.8,192.3,191.4,190.4,191.4z"/>
</g>
</svg>
