<?xml version="1.0" encoding="utf-8"?>
<!-- Generator: Adobe Illustrator 24.3.0, SVG Export Plug-In . SVG Version: 6.00 Build 0)  -->
<!DOCTYPE svg PUBLIC "-//W3C//DTD SVG 1.1//EN" "http://www.w3.org/Graphics/SVG/1.1/DTD/svg11.dtd" [
	<!ENTITY ns_extend "http://ns.adobe.com/Extensibility/1.0/">
	<!ENTITY ns_ai "http://ns.adobe.com/AdobeIllustrator/10.0/">
	<!ENTITY ns_graphs "http://ns.adobe.com/Graphs/1.0/">
	<!ENTITY ns_vars "http://ns.adobe.com/Variables/1.0/">
	<!ENTITY ns_imrep "http://ns.adobe.com/ImageReplacement/1.0/">
	<!ENTITY ns_sfw "http://ns.adobe.com/SaveForWeb/1.0/">
	<!ENTITY ns_custom "http://ns.adobe.com/GenericCustomNamespace/1.0/">
	<!ENTITY ns_adobe_xpath "http://ns.adobe.com/XPath/1.0/">
]>
<svg version="1.1" id="Layer_1" xmlns:x="&ns_extend;" xmlns:i="&ns_ai;" xmlns:graph="&ns_graphs;"
	 xmlns="http://www.w3.org/2000/svg" xmlns:xlink="http://www.w3.org/1999/xlink" x="0px" y="0px" viewBox="0 0 41.2 39.2"
	 style="enable-background:new 0 0 41.2 39.2;" xml:space="preserve">
<style type="text/css">
	.st0{fill:#FFFFFF;}
	.st1{fill:#E4E5E0;}
	.st2{fill:#6D6250;}
	.st3{fill:#6D444E;}
	.st4{opacity:0.62;fill:#D3CDC5;enable-background:new    ;}
	.st5{fill:#494339;}
	.st6{fill:#262115;}
	.st7{fill:#F9F5EF;}
	.st8{fill:#B8833D;}
	.st9{fill:#191413;}
	.st10{fill:#FCDD47;}
	.st11{fill:#F3CF14;}
	.st12{fill:#F2DA74;}
	.st13{fill:#2B2726;}
	.st14{fill:#49403E;}
	.st15{fill:#F5AB32;}
</style>
<metadata>
	<sfw  xmlns="&ns_sfw;">
		<slices></slices>
		<sliceSourceBounds  bottomLeftOrigin="true" height="135.8" width="355.3" x="-58.5" y="-16.6"></sliceSourceBounds>
	</sfw>
</metadata>
<g id="Group_717" transform="translate(-215.518 -885.842)">
	<path id="Path_1911" class="st4" d="M234.4,900.3c2.1-3.1,4.3-6,6.8-8.7c1.4-1.6,3.2-3.2,5.2-3.1c2,4,1.3,8.9-1.8,12.2
		C241.4,903.9,228.3,909.4,234.4,900.3z"/>
	<g id="Group_714" transform="translate(222.958 901.831)">
		<path id="Path_1912" class="st15" d="M13.6,16.6l3.5,2.8l4.2,0.5l3.2-2.1l1.1-3.7l-1.1-5.3l-2.7-3.1l-3.6-2l-3.9-1l-3.9,1L6.7,5.1
			L5.8,5.2l0.4,1.1l2.5,3.4l2.7,3.3L13.6,16.6z"/>
	</g>
	<g id="Group_715" transform="translate(219.193 898.846)">
		<path id="Path_1913" class="st6" d="M15.3,4.7l-3.4-2.1L8.4,3.8l-2.3,3L5.7,8.7l0.7,1.5l0.9,3l2.2,2.2l3.5-0.6l2.5-2.5l1.8-3.1
			L15.3,4.7z"/>
	</g>
	<g id="Group_716" transform="translate(215.972 900.156)">
		<path id="Path_1914" class="st6" d="M13.3,3.2L9.5,2.6L6.3,4.7L5.7,8.4l0.1,1L7.1,10l4,0l3.7-1.5"/>
	</g>
	<path id="Path_1915" d="M237.7,911.1c-0.2,0.7-0.6,1.5-1,2.1c-0.5,0.7-1.4,0.9-2,1.4c-0.2,0.1-0.3,0.4-0.3,0.6
		c0,0.3,0.3,0.4,0.5,0.6c1,0.7,1.4,2.6,2.7,2.7c0.6,0,1.3-0.2,1.8-0.6c0.6-0.6,0.2-1.3,0.7-1.9c0.1-0.1,0.3-0.3,0.5-0.3
		c1-0.7,1.7-1.7,1.9-2.9c0-0.1,0-0.3,0.1-0.4c0.1-0.2,0.4-0.1,0.6-0.1c0.5-0.1,0.8-0.4,1-0.8c0.2-0.5,0.2-0.9,0.2-1.4
		c0-1.2,0.5-3.4-0.7-4.1c-1.2-1.1-3.9-3.2-5.1-0.9c-0.7,1.4-0.1,3.2-0.4,4.6C238,910.2,237.9,910.7,237.7,911.1z"/>
	<path id="Path_1916" d="M241.8,920.3L241.8,920.3c-3,1.3,1.7,1.9,2.7,2.2c1.5,0.1,2.9-0.7,3.5-2.1c0.1-0.6,0.2-1.2,0.1-1.8
		c0.1-1.3,0.9-2.6,0.6-4c0-0.1,0-0.2-0.1-0.2c-0.1,0-0.1-0.1-0.2-0.1c-0.5,0-1,0.4-1,0.9c0,0.3,0,0.5-0.1,0.8c-0.2,0.5-0.8,0.6-1,1
		c-0.1,0.3-0.1,0.6-0.2,0.9c-0.2,0.5-0.7,0.3-1,0.5c-0.4,0.3-0.5,0.7-0.8,1C243.7,920.1,242.7,919.9,241.8,920.3z"/>
	<path id="Path_1917" d="M225,901.4c-0.3-0.8-0.6-1.6-0.8-2.5c0.6,0.6,1,1.3,1.3,2.1c0.2,0.7,0.5,1.8,0.1,2.3
		C225.3,902.7,225.1,902.1,225,901.4z"/>
	<path id="Path_1918" d="M221.3,899.9c0.4-0.1,0.9,0.1,1.2,0.4c0.3,0.3,0.6,0.7,0.8,1.1c0.5,0.8,0.9,1.7,1.2,2.6
		C223.2,902.7,222.2,901.3,221.3,899.9z"/>
	<path id="Path_1919" d="M226.2,904.9c-1.4,0.5-2.5,1.7-2.7,3.2c0,0.1,0,0.2,0,0.3c0.1,0.1,0.1,0.1,0.2,0.1c0.6,0.1,1.3,0.1,1.9,0
		c0.6,0,1.2-0.4,1.6-0.9c0.3-0.5,0.4-1.1,0.2-1.6c-0.2-0.5-0.6-0.9-1.1-1"/>
	<path id="Path_1920" class="st7" d="M225.6,906.1c-0.2,0.3-0.2,0.7-0.1,1c0.3,0.1,0.7-0.1,0.8-0.4c0.1-0.3-0.1-0.8-0.4-0.8"/>
	<path id="Path_1921" d="M231.1,912.5c1.4,0.7,2.4,2,2.7,3.5c0.4,1.5,0.5,3.2,0.9,4.7c0.2,0.7,0.5,1.5,1.1,1.6
		c0.8,0.2,1.4-1.1,1.5-2c0.2-1.7,0.1-3.4-0.3-5.1c-0.5-2.1-2.1-4.3-3.9-3.9"/>
	<path id="Path_1922" d="M228.9,912.9l-0.4,6.8c1.5,0.3,2.9-1.3,3.1-3c0.1-1.7-0.3-3.4-1.2-4.9"/>
	<path id="Path_1923" d="M227.7,911.8c-2.3,0-4.3,1.3-5.3,3.3c0.8,0.6,1.9,0.2,2.8-0.3s1.8-1.1,2.8-0.9c0-0.6,0-1.2-0.1-1.8"/>
	<path id="Path_1924" class="st4" d="M235.6,901.1c2.7-2.9,5.7-5.6,8.9-8.1c1.8-1.4,4-2.8,6-2c1.4,4.9-0.5,10.7-4.3,13.4
		C242.2,907.2,227.3,909.8,235.6,901.1z"/>
</g>
</svg>
