<?xml version="1.0" encoding="utf-8"?>
<!-- Generator: Adobe Illustrator 24.3.0, SVG Export Plug-In . SVG Version: 6.00 Build 0)  -->
<!DOCTYPE svg PUBLIC "-//W3C//DTD SVG 1.1//EN" "http://www.w3.org/Graphics/SVG/1.1/DTD/svg11.dtd" [
	<!ENTITY ns_extend "http://ns.adobe.com/Extensibility/1.0/">
	<!ENTITY ns_ai "http://ns.adobe.com/AdobeIllustrator/10.0/">
	<!ENTITY ns_graphs "http://ns.adobe.com/Graphs/1.0/">
	<!ENTITY ns_vars "http://ns.adobe.com/Variables/1.0/">
	<!ENTITY ns_imrep "http://ns.adobe.com/ImageReplacement/1.0/">
	<!ENTITY ns_sfw "http://ns.adobe.com/SaveForWeb/1.0/">
	<!ENTITY ns_custom "http://ns.adobe.com/GenericCustomNamespace/1.0/">
	<!ENTITY ns_adobe_xpath "http://ns.adobe.com/XPath/1.0/">
]>
<svg version="1.1" id="Layer_1" xmlns:x="&ns_extend;" xmlns:i="&ns_ai;" xmlns:graph="&ns_graphs;"
	 xmlns="http://www.w3.org/2000/svg" xmlns:xlink="http://www.w3.org/1999/xlink" x="0px" y="0px" viewBox="0 0 65 65"
	 style="enable-background:new 0 0 65 65;" xml:space="preserve">
<style type="text/css">
	.st0{fill:#66913D;}
	.st1{fill:none;stroke:#66913D;stroke-width:3;stroke-linecap:round;stroke-linejoin:round;}
	.st2{fill:none;}
	.st3{fill:#FFFFFF;}
	.st4{fill:#2F2F2F;}
	.st5{fill:#707070;}
</style>
<metadata>
	<sfw  xmlns="&ns_sfw;">
		<slices></slices>
		<sliceSourceBounds  bottomLeftOrigin="true" height="455.9" width="404.2" x="0.6" y="-456.3"></sliceSourceBounds>
	</sfw>
</metadata>
<g id="Group_377" transform="translate(-12.164 -14.24)">
	<g id="Group_374">
		<path class="st0" d="M62.1,33.7c-2.3,0-4.4-0.9-6-2.5c-1.6-1.6-2.5-3.8-2.5-6c0-4.7,3.8-8.5,8.5-8.6c4.7,0,8.5,3.8,8.6,8.5
			c0,0,0,0,0,0c0,2.3-0.9,4.4-2.5,6C66.6,32.8,64.4,33.7,62.1,33.7C62.2,33.7,62.1,33.7,62.1,33.7z M62.1,19.6
			c-3.1,0-5.5,2.5-5.5,5.5c0,1.5,0.6,2.9,1.6,3.9c1,1,2.4,1.6,3.9,1.6c0,0,0,0,0,0c1.5,0,2.9-0.6,3.9-1.6c1-1,1.6-2.4,1.6-3.9l0,0
			C67.7,22.1,65.2,19.6,62.1,19.6z"/>
		<path class="st0" d="M70,64.6c-0.9,0-1.7-0.2-2.6-0.5c-1.7-0.7-3-2-3.7-3.7s-0.7-3.6,0-5.3s2-3,3.7-3.7c1.7-0.7,3.6-0.7,5.3,0
			c2.6,1.1,4.3,3.6,4.3,6.4l0,0c0,1.8-0.7,3.6-2,4.9S71.9,64.6,70,64.6C70,64.6,70,64.6,70,64.6z M70,53.9c-0.5,0-1,0.1-1.5,0.3
			c-1,0.4-1.7,1.2-2.1,2.1c-0.8,2,0.2,4.2,2.1,5c0.5,0.2,1,0.3,1.4,0.3c1,0,2-0.4,2.7-1.1c0.7-0.7,1.1-1.7,1.1-2.7c0,0,0,0,0,0
			c0-1.6-0.9-3-2.4-3.6C71,54,70.5,53.9,70,53.9z M76.9,57.7L76.9,57.7L76.9,57.7z"/>
		<path class="st0" d="M22.1,74.6c-2.3,0-4.4-0.9-6-2.5c-1.6-1.6-2.5-3.8-2.5-6c0-4.7,3.8-8.5,8.5-8.5c4.7,0,8.5,3.8,8.5,8.5
			c0,0,0,0,0,0C30.6,70.8,26.8,74.6,22.1,74.6C22.1,74.6,22.1,74.6,22.1,74.6z M22.1,60.6c-3.1,0-5.5,2.5-5.5,5.5
			c0,1.5,0.6,2.9,1.6,3.9c1,1,2.4,1.6,3.9,1.6c0,0,0,0,0,0c1.5,0,2.9-0.6,3.9-1.6c1-1,1.6-2.4,1.6-3.9C27.6,63,25.1,60.6,22.1,60.6z
			"/>
		<path class="st0" d="M19.3,38.1c-3.2,0-6-2.2-6.7-5.4c-0.8-3.7,1.6-7.4,5.3-8.2c2-0.4,4.1,0,5.7,1.3c3,2.4,3.5,6.7,1.1,9.7
			c-1,1.2-2.4,2.1-3.9,2.4c0,0,0,0,0,0C20.3,38,19.8,38.1,19.3,38.1z M20.4,36.4L20.4,36.4L20.4,36.4z M19.3,27.3
			c-0.3,0-0.6,0-0.8,0.1c-2.1,0.5-3.4,2.5-3,4.6c0.5,2.1,2.5,3.4,4.6,3c0.9-0.2,1.6-0.7,2.2-1.4c1.3-1.7,1.1-4.1-0.6-5.4
			C21,27.6,20.2,27.3,19.3,27.3z"/>
		<path class="st0" d="M43.8,77.2c-5.8,0-11.6-1.6-16.7-5c-0.2-0.1-0.3-0.2-0.5-0.3c-0.3-0.2-0.6-0.6-0.6-1
			c-0.1-0.4,0.1-0.8,0.3-1.2c2-2.3,1.7-5.8-0.7-7.8c-1.9-1.6-4.6-1.7-6.6-0.4c-0.4,0.2-0.8,0.3-1.2,0.2s-0.8-0.4-1-0.8
			c-4.2-7.9-4.6-17.2-1.3-25.5c0.2-0.4,0.5-0.7,0.9-0.8c0.4-0.1,0.8-0.1,1.2,0.1c0.8,0.4,1.7,0.5,2.5,0.3c1-0.2,1.9-0.8,2.4-1.7
			c0.6-0.9,0.7-1.9,0.5-2.9c-0.2-0.9-0.7-1.6-1.4-2.2c-0.3-0.3-0.5-0.6-0.6-1.1s0.1-0.8,0.4-1.1c9.2-9.9,23.6-12.6,35.8-6.6
			c0.4,0.2,0.7,0.6,0.8,1c0.1,0.4,0,0.9-0.3,1.3c-1.9,2.4-1.5,5.9,0.9,7.8c2.3,1.8,5.6,1.5,7.6-0.6c0.3-0.3,0.7-0.5,1.2-0.5
			c0.5,0,0.9,0.3,1.1,0.6c3.8,5.2,5.7,11.4,5.7,17.8c0,2.1-0.2,4.3-0.7,6.4c-0.1,0.4-0.4,0.8-0.8,1c-0.4,0.2-0.9,0.2-1.3,0
			c-1-0.4-2-0.4-3,0c-1,0.4-1.7,1.1-2.1,2.1c-0.4,1-0.4,2,0,3c0.4,1,1.1,1.7,2.1,2.1c0.4,0.2,0.7,0.5,0.9,1c0.1,0.4,0.1,0.9-0.2,1.3
			C63.4,72.4,53.7,77.2,43.8,77.2z M29.5,70.2c6,3.6,13,4.9,19.8,3.5c6.7-1.4,12.5-5.1,16.5-10.5c-0.9-0.7-1.7-1.7-2.1-2.8
			c-0.7-1.7-0.7-3.6,0-5.3C65,52.2,68,50.6,71,51c0.2-1.4,0.3-2.8,0.3-4.2c0,0,0,0,0,0c0-5.2-1.4-10.3-4.2-14.6
			c-3,2.2-7.2,2.1-10.3-0.3c-3.2-2.5-4.1-6.9-2.4-10.4c-10.2-4.3-21.8-2.1-29.7,5.6c0.6,0.8,1.1,1.7,1.3,2.7
			c0.4,1.8,0.1,3.6-0.9,5.2s-2.5,2.6-4.3,3c-1,0.2-2,0.2-3,0c-2.3,6.7-1.9,13.9,1,20.3c2.9-1.2,6.3-0.7,8.7,1.4
			C30.7,62.2,31.5,66.7,29.5,70.2z"/>
	</g>
	<g id="Group_376" transform="translate(1 2.296)">
		<g id="Group_375" transform="translate(38.471 30.634)">
			<path class="st0" d="M1.9,24.4c-0.8,0-1.7-0.3-2.3-0.9c-0.6-0.6-1-1.4-1-2.3v-0.5c-0.1-2.8-0.9-5.6-2.4-8c-1.2-2-1.7-4.3-1.3-6.6
				C-4.1,0.8,1-2.9,6.3-2c5.3,0.8,9,5.8,8.2,11.2c0,0.1,0,0.3-0.1,0.4c0,0,0,0,0,0c-0.2,1.1-0.6,2.1-1.1,3c-1.6,2.6-2.5,5.5-2.5,8.5
				v0.1c0,0.9-0.4,1.7-1,2.3c-0.6,0.6-1.4,0.9-2.3,0.9c0,0,0,0,0,0H1.9C1.9,24.4,1.9,24.4,1.9,24.4z M4.8,0.9
				c-3.3,0-6.3,2.4-6.9,5.7c-0.3,1.5,0.1,3.2,0.9,4.5c1.8,2.8,2.8,6.1,2.9,9.5v0.5c0,0.1,0,0.1,0.1,0.2c0,0,0.1,0.1,0.2,0.1h5.5
				c0.1,0,0.2,0,0.2-0.1c0,0,0.1-0.1,0.1-0.2V21c0.1-3.6,1.1-7,3-10c0.4-0.6,0.6-1.3,0.8-2c0-0.1,0-0.2,0-0.3C12.1,5,9.6,1.5,5.9,1
				C5.5,0.9,5.1,0.9,4.8,0.9z M13,9.3L13,9.3L13,9.3z"/>
		</g>
		<path class="st0" d="M45.3,58.5h-4.2c-0.8,0-1.5-0.7-1.5-1.5s0.7-1.5,1.5-1.5h4.2c0.8,0,1.5,0.7,1.5,1.5S46.1,58.5,45.3,58.5z"/>
		<path class="st0" d="M45.3,61.6h-4.2c-0.8,0-1.5-0.7-1.5-1.5s0.7-1.5,1.5-1.5h4.2c0.8,0,1.5,0.7,1.5,1.5S46.1,61.6,45.3,61.6z"/>
	</g>
</g>
</svg>
