<?xml version="1.0" encoding="utf-8"?>
<!-- Generator: Adobe Illustrator 24.3.0, SVG Export Plug-In . SVG Version: 6.00 Build 0)  -->
<!DOCTYPE svg PUBLIC "-//W3C//DTD SVG 1.1//EN" "http://www.w3.org/Graphics/SVG/1.1/DTD/svg11.dtd" [
	<!ENTITY ns_extend "http://ns.adobe.com/Extensibility/1.0/">
	<!ENTITY ns_ai "http://ns.adobe.com/AdobeIllustrator/10.0/">
	<!ENTITY ns_graphs "http://ns.adobe.com/Graphs/1.0/">
	<!ENTITY ns_vars "http://ns.adobe.com/Variables/1.0/">
	<!ENTITY ns_imrep "http://ns.adobe.com/ImageReplacement/1.0/">
	<!ENTITY ns_sfw "http://ns.adobe.com/SaveForWeb/1.0/">
	<!ENTITY ns_custom "http://ns.adobe.com/GenericCustomNamespace/1.0/">
	<!ENTITY ns_adobe_xpath "http://ns.adobe.com/XPath/1.0/">
]>
<svg version="1.1" id="Layer_1" xmlns:x="&ns_extend;" xmlns:i="&ns_ai;" xmlns:graph="&ns_graphs;"
	 xmlns="http://www.w3.org/2000/svg" xmlns:xlink="http://www.w3.org/1999/xlink" x="0px" y="0px" viewBox="0 0 71.7 72.4"
	 style="enable-background:new 0 0 71.7 72.4;" xml:space="preserve">
<style type="text/css">
	.st0{fill:#FFFFFF;}
	.st1{fill:#E4E5E0;}
	.st2{fill:#6D6250;}
	.st3{fill:#6D444E;}
	.st4{opacity:0.62;fill:#D3CDC5;enable-background:new    ;}
	.st5{fill:#494339;}
	.st6{fill:#262115;}
	.st7{fill:#F9F5EF;}
	.st8{fill:#B8833D;}
	.st9{fill:#191413;}
	.st10{fill:#FCDD47;}
	.st11{fill:#F3CF14;}
	.st12{fill:#F2DA74;}
	.st13{fill:#2B2726;}
	.st14{fill:#49403E;}
</style>
<metadata>
	<sfw  xmlns="&ns_sfw;">
		<slices></slices>
		<sliceSourceBounds  bottomLeftOrigin="true" height="135.8" width="355.3" x="-58.5" y="-16.6"></sliceSourceBounds>
	</sfw>
</metadata>
<g id="Group_690" transform="translate(-1340.808 1004.815)">
	<g id="Group_689" transform="translate(1340.808 -1004.815)">
		<g id="Group_687" transform="translate(7.126 1.52)">
			<path id="Path_1734" class="st11" d="M62.5,38.9l1.3,4.2l-0.5,3.4L61.1,49l-3,3l-3.4,2.6l-3.9,1.7l-4.2,0.9l-2.9,1.2l-3.1,0
				l-2.6-2.5l-0.2,4l-0.3,3.6l-2.6,2.5l-2.3,2.7l-3.4,1.3l-3.6-0.2L22.1,69l-3.5-0.6l-3-1.9l-2.1-2.8l-2.7-3.4l0.9-4.2l-2.7,4.7
				l-3.4-2.2l-3.7-1.2l-3.5-1.8l-2.1-3.4L-6,49.1l-0.4-3.9l0.3-3.8l1.2-3.8l3-1.6l2.6-2l3-0.8l-4-1.2l-2.8-3.2l-2-3.7l0.3-3.6
				l0.1-3.5l0.7-3.4l0.7-3.4L-3,7.6l1.8-3.1l1.4-3.4l3.4-1.7l3.7-0.1l3.5,1.2l3.3,2.6l2.8,3l3.6,2.5l2,3.8l1.9,4.1l1.6,4.2l1.4,4
				l0.5,3.2l4,0.5l4-0.3l3.9,1.1l3.7,0.1l3.7-1l3.6,1.2l4,0.6l2.9,2.8l3.5,2.1L62.5,38.9z"/>
		</g>
		<path id="Path_1735" class="st12" d="M17,55.2c0.6-0.9,1.3-1.8,1.9-2.8c2.7-3.7,7.3-8.9,7.5-13.7c0.2-2.8-2.8-3-5.1-2.7
			c-2.2,0.2-4.4,0.2-6.6,0c-2.4-0.2-3.6,0.9-5.4,2.4C8.4,39.1,7.7,40,7,41c-0.4,0.9-0.7,1.9-0.8,3c-0.3,1.9-1.1,4.2,0.5,5.7
			c2,2,4.4,3.8,6.5,5.7c0.7,0.6,1.7,1.3,2.6,1C16.3,56.1,16.8,55.7,17,55.2z"/>
		<path id="Path_1736" class="st12" d="M24.6,58.4c0.1-0.4,0.2-0.8,0.3-1.1c0.5-2.2,1-4.4,1.5-6.6c0.2-0.9,2.5-11.4,3.8-10.9
			c3.3,1.3,5.9,3.9,7.2,7.2c0.6,1.5,0.9,3.2,1.6,4.6c1,1.9,2,3.6,2.1,5.8c0.2,2.2-0.7,4.3-2.5,5.7c-1.4,0.9-3.2,1.3-4.9,1.1
			c-1.7-0.2-3.4-0.7-4.9-1.3c-1.6-0.6-4.1-0.9-4.4-3C24.4,59.3,24.5,58.8,24.6,58.4z"/>
		<path id="Path_1737" class="st12" d="M18.3,31.1c-3.9-0.4-8-0.6-11.1-2.9C8.5,27,8.7,25,8.4,23.3c-0.3-1.7-0.6-3.5-0.9-5.1
			c-0.3-1.5-1.3-2.6-1-4.2c0.3-0.9,0.7-1.8,1.3-2.6c0.5-1.1,0.8-2.2,1.5-3.2c1.1-1.7,3.2-2.6,5.2-2.2c1.4,0.4,2.7,1,4,1.8
			c1.3,0.6,2.7,1,3.9,1.7c3,1.7,4.6,5.1,5.7,8.4c0.9,2.6,1.7,5.4,2.4,8.1c0.8,3.1,1.8,8.4-3,7.8C24.3,33.2,21.4,31.4,18.3,31.1z"/>
		<path id="Path_1738" class="st12" d="M41.3,47.3c1.2,2,2.5,4,3.8,5.9c0.7,1.1,1.6,2,2.6,2.6c0.3,0.2,0.7,0.3,1.1,0.3
			c0.9-0.1,1.7-0.6,2.3-1.3c1.7-1.3,3.6-2.3,5.7-2.7c1.1-0.1,2.3-0.4,3.3-0.9c0.8-0.5,1.3-1.2,2-1.7c1.4-1,3.4-1.3,4.3-2.8
			c0.5-1.2,0.6-2.5,0.3-3.8c-0.1-1.4-0.5-2.7-1.1-3.9c-1.2-2-3.5-3.1-5.8-3.5s-4.6-0.3-6.9-0.6c-1.8-0.2-3.6-0.7-5.5-0.9
			c-2.8-0.2-8.9-1-10.8,1.7c-1.3,1.9,1.1,4.7,1.9,6.4C39.5,43.9,40.3,45.6,41.3,47.3z"/>
		<path id="Path_1739" class="st13" d="M32.7,27.9c-1.5,0.7-2.8,1.9-3.6,3.4c-0.7,1-1.2,2.1-1.6,3.2c-0.7,2.2-0.2,3.2-1.6,5.2
			c-1.2,1.7-2.5,3.4-3.6,5.2c-1.1,1.7-1.9,3.6-2.5,5.5c-0.3,1.1-1.5,5.3-0.7,6.2c0.7,0.7,1.7,0.8,2.6,0.4c0.8-0.4,1.6-1,2.1-1.8
			c1.6-1.7,3.1-3.5,4.4-5.5c1.1-1.8,2.9-3.4,3.5-5.5c0.1-0.6,0.2-1.2,0.4-1.8c0.6-1.6,1.7-3,3.1-4c0.5-0.5,1-1,1.3-1.7
			c1.3-2.3,2.6-5.2,1.2-7.5c-0.9-1.7-3-2.4-4.7-1.5C32.8,27.8,32.8,27.9,32.7,27.9z"/>
		<path id="Path_1740" class="st14" d="M21.4,51.6c-0.3,0.9-0.5,1.8-0.7,2.7c-0.1,0.2-0.1,0.5,0.1,0.7c0.2,0.2,0.6,0,0.9-0.2
			C24,53,35.1,42.5,30.8,39.2c-2.5-1.8-5.6,2.8-6.4,4.5C23.1,46.3,22.1,48.9,21.4,51.6z"/>
		<path id="Path_1741" class="st14" d="M34.6,27.8c-0.1-0.9,0.4-1.9,1.2-2.4c0.2-0.2,0.5-0.4,0.9-0.4c0.5,0,0.8,0.5,1,0.9
			c0.7,1.6-0.1,4-2,2.9C35.1,28.7,34.7,28.3,34.6,27.8z"/>
		<path id="Path_1742" class="st13" d="M41.1,23.3c3.1-1.4,6.4-2.8,9.8-2.4l-2.5,0.7c-3.8,1.1-7.4,2.7-10.8,4.7
			C37.3,24.9,40.1,23.8,41.1,23.3z"/>
		<path id="Path_1743" class="st13" d="M35.3,20.9c-1.2-3.2-2.5-6.5-5.1-8.7l1.2,2.3c1.8,3.5,3.2,7.2,4.1,11
			C36.9,24.7,35.7,21.9,35.3,20.9z"/>
		<path id="Path_1744" class="st14" d="M30.5,30.8l0.8,0c-0.5,0.8-0.9,1.6-1.2,2.5c0.3,0.1,0.6,0.1,0.8-0.2l-0.5,1.2
			c0.2,0.2,0.6,0.2,0.8-0.1c0.1-0.1,0.1-0.2,0.1-0.3c-0.2,0.3-0.2,0.6-0.1,0.9c0.1,0.3,0.6,0.4,0.7,0.1c-0.1,0.4-0.1,0.9,0.1,1.3
			l0.4-0.2l0.1,0.7c1.2-0.5,2.4-1.1,3.4-2c0.4-0.3,0.8-0.8,1-1.3c0.1-0.4,0.1-0.9,0-1.4c0-0.4-0.2-0.8-0.4-1.2
			c-0.3-0.3-0.7-0.4-1.1-0.2c0.1-0.1,0.1-0.2,0.1-0.4c-0.8-0.6-1.8-0.9-2.8-0.9C31.9,29.5,31,30.8,30.5,30.8z"/>
		<g id="Group_688" transform="translate(17.475 12.097)">
			<path id="Path_1745" class="st14" d="M37.1,27c-0.3,0.1-0.7,0.3-0.6,0.7c0.3,0.7,3.3,1.4,3.8,1.2c0.9-0.4,1.2-2.3,0-2.5
				c-0.3,0-1,0.3-1.3,0.4C38.4,26.9,37.7,26.9,37.1,27z"/>
			<path id="Path_1746" class="st14" d="M35,32.2c0.2,0.8,0.7,1.5,1.2,2.2c0.6,0.6,1.5,0.8,2.3,0.4c0.5-0.4,0.9-1,1.1-1.6
				c-0.4-0.4-0.6-0.8-0.8-1.3c-0.4-0.9-1.3-1.4-2.2-1.4c-0.6,0.1-1.3,0.5-1.8,0.2"/>
			<path id="Path_1747" class="st14" d="M42.6,31.8c-0.5-0.6-1.4-0.7-2-0.1c0,0,0,0,0,0c0.7,1,1.9,1.5,3,1.3c0.2,0,0.4-0.1,0.6-0.3
				c0.3-0.4,0.2-0.9-0.1-1.2c-0.3-0.3-0.8-0.5-1.2-0.6"/>
			<path id="Path_1748" class="st14" d="M32,34.7c-0.2,0.7-0.2,1.3-0.1,2c0.1,0.7,0.7,1.2,1.4,1.3c0.5-0.2,0.4-1,0.1-1.4
				s-0.7-0.9-0.8-1.4c0-0.2,0.1-0.5,0-0.7S32.4,34,32.2,34"/>
			<path id="Path_1749" class="st14" d="M0,1.1c0.2-0.5,0.2,0.2-0.2,0c-0.5-0.3-1.7-1.7-2.2-1.6s-1.1,0.7-0.9,1.2
				C-3.2,0.9-3,1.2-2.8,1.3l2.9,2c0.5-0.8,0.6-1.8,0.3-2.6"/>
			<path id="Path_1750" class="st14" d="M-1.3,3.9c-0.5-0.9-0.5-0.5-1.3-1.2c-0.6-0.5-2.1-2.2-3.1-1.6C-6.7,1.8-6.5,4.3-6,5
				s0.9-0.3,1.8-0.1C-2.5,5.2-3,3.8-1.3,3.9z"/>
			<path id="Path_1751" class="st14" d="M-1.5,7.7C-2,7.3-2.7,7.1-3.3,7.1c-1.4-0.2-2.4,1.9-2.4,3.3c1.2,0.9,2.3-0.1,3.6-0.7
				c0.8-0.3,1.3-1.2,1.2-2.1"/>
			<path id="Path_1752" class="st14" d="M1.6,5.7C1.3,5.4,0.9,5.2,0.5,5C0,4.9-0.4,5.1-0.7,5.5c-0.2,0.5,0,1,0.4,1.3
				C0.2,7,0.7,7.1,1.2,7.1C1.3,6.9,1.9,7.9,2,7.7"/>
			<path id="Path_1753" class="st14" d="M33.7,29.6c0.1-0.4-0.1-0.8-0.3-1c-0.3-0.2-2.3-0.1-2.1,0.2c0.2,0.5,1,1.6,1.7,1.5
				C33.3,30.3,33.6,30,33.7,29.6z"/>
			<path id="Path_1754" class="st14" d="M-0.9,29.3c-0.7,0.1-0.6,1.8-0.8,2.5c0.9,0.3,1.4-1.6,1.3-2.5"/>
			<path id="Path_1755" class="st14" d="M15.5,37.1c-0.5,0.5-0.5,1.4,0,1.9c0.5-0.5,0.5-1.2,0.1-1.8"/>
			<path id="Path_1756" class="st14" d="M1.3,10C1,9.4,0,9.6-0.2,10.3c0,0.7,0.4,1.2,1.1,1.3c0,0,0,0,0.1,0c0.3,0,0.6-0.1,0.8-0.3
				C2,11,1.9,10.7,1.7,10.5c0,0,0,0-0.1,0"/>
			<path id="Path_1757" class="st14" d="M-2.9,12.3c-0.5,0.1-0.9,0.2-1.3,0.5c-0.4,0.3-0.4,0.9-0.1,1.3c0,0,0,0,0,0
				c0.2,0.1,0.3,0.2,0.5,0.2c1.1,0.1,2-0.7,2.1-1.8"/>
			<path id="Path_1758" class="st14" d="M4.6,7.7C4.4,7.1,3.8,6.8,3.2,7C3.1,7,3.1,7.1,3.1,7.1c0,0.1,0,0.1,0,0.2
				c0.1,0.3,0.1,0.5,0.3,0.8c0.1,0.3,0.3,0.5,0.5,0.7c0.3,0.2,0.6,0.1,0.8,0c0.2-0.2,0.2-0.5,0-0.7C4.6,8,4.6,8,4.6,8"/>
			<path id="Path_1759" class="st14" d="M1,13.3c-0.4-0.1-0.8-0.2-1.1,0.1C-0.3,13.6-0.3,14,0,14.2c0.3,0.2,0.6,0.3,0.9,0.2
				c0.3,0,0.5-0.1,0.7-0.3c0.1-0.2,0.1-0.5-0.1-0.6c0,0-0.1,0-0.1,0"/>
			<path id="Path_1760" class="st14" d="M4.5,11.6c0.1-0.2,0-0.5-0.3-0.6c0,0,0,0,0,0c-0.2,0-0.5,0.1-0.5,0.4c0,0,0,0,0,0
				c0,0.1,0,0.3,0.1,0.4c0.1,0.3,0.3,0.6,0.5,0.9c0,0.1,0.1,0.2,0.2,0.2C4.7,13.1,5,12.8,5,12.5C5,12.2,4.8,11.9,4.5,11.6"/>
			<path id="Path_1761" class="st14" d="M34,26.4c-0.2-0.4-0.6-0.8-1.1-0.9c-0.2-0.1-0.5,0-0.6,0.2c0,0.1,0,0.2,0.1,0.2
				c0.2,0.4,0.5,0.8,0.9,1c0.4,0.2,0.9,0.1,1.2-0.2l-0.2-0.4"/>
			<path id="Path_1762" class="st14" d="M31.2,31.8c-0.1-0.4-0.3-0.8-0.6-1.1c-0.3-0.3-0.8-0.3-1.1,0c0,0,0,0,0,0
				c-0.3,0.3,0,0.8,0.2,1.2c0.1,0.2,0.3,0.4,0.5,0.6c0.2,0.2,0.5,0.2,0.7,0.1c0.2-0.1,0.3-0.4,0.2-0.6c0,0,0,0,0-0.1"/>
			<path id="Path_1763" class="st14" d="M30.2,26.3c-0.3,0.1-0.6,0.2-1,0.3c-0.3,0.1-0.7,0.4-0.6,0.7c0,0.2,0.2,0.4,0.5,0.5
				c0.2,0.1,0.5,0.1,0.7,0c0.3,0,0.6-0.1,0.9-0.3c0.2-0.2,0.3-0.5,0.1-0.8c0,0,0,0,0,0"/>
			<path id="Path_1764" class="st14" d="M15.4,40.9c-0.2-0.2-0.5-0.3-0.8-0.3c-0.3,0.1-0.5,0.4-0.4,0.7c0.1,0.3,0.2,0.6,0.4,0.8
				c0.1,0.2,0.3,0.4,0.6,0.6c0.4,0.1,0.9-0.2,1-0.6c0.1-0.4,0-0.9-0.2-1.3"/>
			<path id="Path_1765" class="st14" d="M18.1,38.7l-0.2-0.3l-0.4,0.2c0.1,0.5,0.2,1,0.4,1.5c0.1,0.2,0.2,0.5,0.4,0.5
				c0.2,0,0.4-0.2,0.4-0.4c0-0.2,0-0.4-0.1-0.6"/>
			<path id="Path_1766" class="st14" d="M17.5,43c-0.3,0-0.5,0.3-0.5,0.6c0,0.3,0.2,0.6,0.4,0.8c0.6-0.2,1-0.8,1-1.4"/>
			<path id="Path_1767" class="st14" d="M13.7,44.1c-0.2,0-0.5,0.2-0.5,0.5c0,0.2,0.1,0.5,0.3,0.7c0.1,0.2,0.2,0.3,0.4,0.4
				c0.2,0,0.4-0.1,0.5-0.3c0.1-0.2,0.1-0.4,0.1-0.6"/>
			<path id="Path_1768" class="st14" d="M12.6,40.7c-0.1-0.3-0.3-0.8-0.7-0.7c-0.2,0.1-0.4,0.3-0.4,0.5c0,0.2,0.1,0.4,0.2,0.6
				c0.1,0.3,0.3,0.6,0.6,0.7c0.3,0.1,0.7-0.2,0.6-0.5"/>
			<path id="Path_1769" class="st14" d="M1.7,31.2c-0.4,0-0.8,0.1-1.2,0.2c0.1,0.5,0.4,0.9,0.9,1.1c0.5,0.1,1,0,1.3-0.4"/>
			<path id="Path_1770" class="st14" d="M-1,33c-0.3-0.1-0.6,0.2-0.6,0.5c0,0.3,0.3,0.6,0.6,0.7c0.3,0.1,0.6,0.1,0.9,0
				c0.1,0,0.3-0.1,0.4-0.2c0-0.1,0-0.2,0-0.2c-0.2-0.5-0.5-1-1-1"/>
			<path id="Path_1771" class="st14" d="M-3.1,31.7c0-0.3-0.4-0.4-0.6-0.2c-0.2,0.2-0.2,0.6,0,0.8c0.1,0.3,0.3,0.5,0.5,0.7
				c0.3,0.1,0.5-0.1,0.6-0.4c0,0,0,0,0,0c0-0.3,0-0.6-0.1-0.8"/>
			<path id="Path_1772" class="st14" d="M-3.3,35c-0.4-0.1-0.8-0.1-1.1,0c-0.1,0-0.2,0.1-0.2,0.1c0,0.1,0,0.2,0.1,0.2
				c0.4,0.6,1.2,0.7,1.8,0.3c0.1,0,0.1-0.1,0.2-0.2c0-0.2-0.2-0.3-0.1-0.5"/>
			<path id="Path_1773" class="st14" d="M-1.2,36.2c-0.2,0-0.3,0.2-0.3,0.4c0,0.2,0.1,0.4,0.2,0.5c0.1,0.2,0.3,0.4,0.5,0.4
				c0.3,0,0.4-0.4,0.4-0.7c0-0.3-0.1-0.6-0.2-0.9"/>
		</g>
	</g>
</g>
</svg>
