<?xml version="1.0" encoding="utf-8"?>
<!-- Generator: Adobe Illustrator 24.3.0, SVG Export Plug-In . SVG Version: 6.00 Build 0)  -->
<!DOCTYPE svg PUBLIC "-//W3C//DTD SVG 1.1//EN" "http://www.w3.org/Graphics/SVG/1.1/DTD/svg11.dtd" [
	<!ENTITY ns_extend "http://ns.adobe.com/Extensibility/1.0/">
	<!ENTITY ns_ai "http://ns.adobe.com/AdobeIllustrator/10.0/">
	<!ENTITY ns_graphs "http://ns.adobe.com/Graphs/1.0/">
	<!ENTITY ns_vars "http://ns.adobe.com/Variables/1.0/">
	<!ENTITY ns_imrep "http://ns.adobe.com/ImageReplacement/1.0/">
	<!ENTITY ns_sfw "http://ns.adobe.com/SaveForWeb/1.0/">
	<!ENTITY ns_custom "http://ns.adobe.com/GenericCustomNamespace/1.0/">
	<!ENTITY ns_adobe_xpath "http://ns.adobe.com/XPath/1.0/">
]>
<svg version="1.1" id="Layer_1" xmlns:x="&ns_extend;" xmlns:i="&ns_ai;" xmlns:graph="&ns_graphs;"
	 xmlns="http://www.w3.org/2000/svg" xmlns:xlink="http://www.w3.org/1999/xlink" x="0px" y="0px" viewBox="0 0 65 65"
	 style="enable-background:new 0 0 65 65;" xml:space="preserve">
<style type="text/css">
	.st0{fill:#66913D;}
	.st1{fill:none;stroke:#66913D;stroke-width:3;stroke-linecap:round;stroke-linejoin:round;}
	.st2{fill:none;}
	.st3{fill:#FFFFFF;}
	.st4{fill:#2F2F2F;}
	.st5{fill:#707070;}
</style>
<metadata>
	<sfw  xmlns="&ns_sfw;">
		<slices></slices>
		<sliceSourceBounds  bottomLeftOrigin="true" height="455.9" width="404.2" x="0.6" y="-456.3"></sliceSourceBounds>
	</sfw>
</metadata>
<g id="Group_382" transform="translate(-11.708 -11.708)">
	<path class="st0" d="M44.2,76.2c-17.6,0-32-14.4-32-32c0-17.6,14.4-32,32-32c17.6,0,32,14.4,32,32C76.2,61.8,61.8,76.2,44.2,76.2z
		 M44.2,15.2c-16,0-29,13-29,29c0,16,13,29,29,29c16,0,29-13,29-29C73.2,28.2,60.2,15.2,44.2,15.2z"/>
	<g id="Group_381">
		<g id="Group_378">
			<path class="st0" d="M44.3,38.3c-3.4,0-6.8-0.3-10.1-0.9c-3.3-0.7-5.1-1.6-5.5-3c-0.3-0.8-0.1-1.6,0.5-2.3
				c0.5-0.6,1.5-0.7,2.1-0.2c0.5,0.4,0.6,1,0.5,1.5c0.4,0.2,1.3,0.6,3.1,1c5.7,1,11.6,1.1,17.4,0.3c0.7-0.1,1.4-0.2,2-0.4
				c0.8-0.2,1.6,0.3,1.8,1.1c0.2,0.8-0.3,1.6-1.1,1.8c-0.7,0.2-1.4,0.3-2.2,0.4C49.8,38.1,47.1,38.3,44.3,38.3z"/>
			<path class="st0" d="M58.2,35.7c-0.3,0-0.7-0.1-1-0.3c-0.5-0.4-0.6-1-0.5-1.5c-0.4-0.2-1.3-0.6-3.1-1c-5.7-1-11.6-1.1-17.4-0.3
				c-0.7,0.1-1.4,0.2-2,0.4c-0.8,0.2-1.6-0.3-1.8-1.1c-0.2-0.8,0.3-1.6,1.1-1.8c0.7-0.2,1.4-0.3,2.2-0.4c6.1-0.9,12.3-0.8,18.4,0.3
				c3.3,0.7,5.1,1.6,5.5,3c0.3,0.8,0.1,1.6-0.5,2.3C59.1,35.5,58.6,35.7,58.2,35.7z"/>
		</g>
		<g id="Group_379">
			<path class="st0" d="M44.3,48.8c-3.4,0-6.8-0.3-10.1-0.9c-3.3-0.7-5.1-1.6-5.5-3c-0.3-0.8-0.1-1.6,0.5-2.3
				c0.5-0.6,1.5-0.7,2.1-0.2c0.5,0.4,0.6,1,0.5,1.5c0.4,0.2,1.3,0.6,3.1,1c5.7,1,11.6,1.1,17.4,0.3c0.7-0.1,1.4-0.2,2-0.4
				c0.8-0.2,1.6,0.3,1.8,1.1c0.2,0.8-0.3,1.6-1.1,1.8c-0.7,0.2-1.4,0.3-2.2,0.4C49.8,48.6,47.1,48.8,44.3,48.8z"/>
			<path class="st0" d="M58.2,46.3c-0.3,0-0.7-0.1-1-0.3c-0.5-0.4-0.6-1-0.5-1.5c-0.4-0.2-1.3-0.6-3.1-1c-5.7-1-11.6-1.1-17.4-0.3
				c-0.7,0.1-1.4,0.2-2,0.4c-0.8,0.2-1.6-0.3-1.8-1.1c-0.2-0.8,0.3-1.6,1.1-1.8c0.7-0.2,1.4-0.3,2.2-0.4c6.1-0.9,12.3-0.8,18.4,0.3
				c3.3,0.7,5.1,1.6,5.5,3c0.3,0.8,0.1,1.6-0.5,2.3C59.1,46.1,58.6,46.3,58.2,46.3z"/>
		</g>
		<g id="Group_380">
			<path class="st0" d="M44.3,59.4c-3.4,0-6.8-0.3-10.1-0.9c-3.3-0.7-5.1-1.6-5.5-3c-0.3-0.8-0.1-1.6,0.5-2.3
				c0.5-0.6,1.5-0.7,2.1-0.2c0.5,0.4,0.6,1,0.5,1.5c0.4,0.2,1.3,0.6,3.1,1c5.7,1,11.6,1.1,17.4,0.3c0.7-0.1,1.4-0.2,2-0.4
				c0.8-0.2,1.6,0.3,1.8,1.1c0.2,0.8-0.3,1.6-1.1,1.8c-0.7,0.2-1.4,0.3-2.2,0.4C49.8,59.2,47.1,59.4,44.3,59.4z"/>
			<path class="st0" d="M58.2,56.8c-0.3,0-0.7-0.1-1-0.3c-0.5-0.4-0.6-1-0.5-1.5c-0.4-0.2-1.3-0.6-3.1-1c-5.7-1-11.6-1.1-17.4-0.3
				c-0.7,0.1-1.4,0.2-2,0.4c-0.8,0.2-1.6-0.3-1.8-1.1c-0.2-0.8,0.3-1.6,1.1-1.8c0.7-0.2,1.4-0.3,2.2-0.4c6.1-0.9,12.3-0.8,18.4,0.3
				c3.3,0.7,5.1,1.6,5.5,3c0.3,0.8,0.1,1.6-0.5,2.3C59.1,56.6,58.6,56.8,58.2,56.8z"/>
		</g>
	</g>
</g>
</svg>
