<?xml version="1.0" encoding="utf-8"?>
<!-- Generator: Adobe Illustrator 24.3.0, SVG Export Plug-In . SVG Version: 6.00 Build 0)  -->
<!DOCTYPE svg PUBLIC "-//W3C//DTD SVG 1.1//EN" "http://www.w3.org/Graphics/SVG/1.1/DTD/svg11.dtd" [
	<!ENTITY ns_extend "http://ns.adobe.com/Extensibility/1.0/">
	<!ENTITY ns_ai "http://ns.adobe.com/AdobeIllustrator/10.0/">
	<!ENTITY ns_graphs "http://ns.adobe.com/Graphs/1.0/">
	<!ENTITY ns_vars "http://ns.adobe.com/Variables/1.0/">
	<!ENTITY ns_imrep "http://ns.adobe.com/ImageReplacement/1.0/">
	<!ENTITY ns_sfw "http://ns.adobe.com/SaveForWeb/1.0/">
	<!ENTITY ns_custom "http://ns.adobe.com/GenericCustomNamespace/1.0/">
	<!ENTITY ns_adobe_xpath "http://ns.adobe.com/XPath/1.0/">
]>
<svg version="1.1" id="Layer_1" xmlns:x="&ns_extend;" xmlns:i="&ns_ai;" xmlns:graph="&ns_graphs;"
	 xmlns="http://www.w3.org/2000/svg" xmlns:xlink="http://www.w3.org/1999/xlink" x="0px" y="0px" viewBox="0 0 65 65"
	 style="enable-background:new 0 0 65 65;" xml:space="preserve">
<style type="text/css">
	.st0{fill:#66913D;}
	.st1{fill:none;stroke:#66913D;stroke-width:3;stroke-linecap:round;stroke-linejoin:round;}
	.st2{fill:none;}
	.st3{fill:#FFFFFF;}
	.st4{fill:#2F2F2F;}
	.st5{fill:#707070;}
</style>
<metadata>
	<sfw  xmlns="&ns_sfw;">
		<slices></slices>
		<sliceSourceBounds  bottomLeftOrigin="true" height="455.9" width="404.2" x="0.6" y="-456.3"></sliceSourceBounds>
	</sfw>
</metadata>
<g id="Group_347" transform="translate(200.043 -12.249) rotate(90)">
	<path class="st0" d="M54.7,159.5c0,10-8.1,18.1-18.1,18.1s-18.1-8.1-18.1-18.1s8.1-18.1,18.1-18.1S54.7,149.5,54.7,159.5z
		 M21.4,159.5c0,8.4,6.8,15.1,15.1,15.1s15.1-6.8,15.1-15.1s-6.8-15.1-15.1-15.1S21.4,151.1,21.4,159.5z"/>
	<path class="st0" d="M60.4,159.5c0,13.2-10.7,23.9-23.9,23.9s-23.9-10.7-23.9-23.9s10.7-23.9,23.9-23.9S60.4,146.3,60.4,159.5z
		 M15.7,159.5c0,11.5,9.4,20.9,20.9,20.9s20.9-9.4,20.9-20.9s-9.4-20.9-20.9-20.9S15.7,148,15.7,159.5z"/>
	<path class="st0" d="M48.1,159.5c0,0.8-0.7,1.5-1.5,1.5s-1.5-0.7-1.5-1.5c0-4.6-3.7-8.3-8.3-8.3c-0.8,0-1.5-0.7-1.5-1.5
		s0.7-1.5,1.5-1.5C43,148.2,48.1,153.2,48.1,159.5z"/>
	<path class="st0" d="M76.8,195.4c0,1.1-0.4,2.1-1.2,2.9c-1.6,1.6-4.2,1.6-5.8,0l-16-16c-0.6-0.6-0.6-1.5,0-2.1l3.7-3.7
		c0.3-0.3,0.7-0.4,1.1-0.4s0.8,0.2,1.1,0.4l16,16C76.4,193.2,76.8,194.3,76.8,195.4C76.8,195.4,76.8,195.4,76.8,195.4z M57,181.2
		L72,196.1c0.4,0.4,1.1,0.4,1.5,0c0.4-0.4,0.4-1.1,0-1.5l-14.9-14.9L57,181.2z"/>
	<path class="st0" d="M58.2,179.4c0,0.4-0.1,0.8-0.4,1.1c-0.6,0.6-1.5,0.6-2.1,0l-4.1-4.1c-0.6-0.6-0.6-1.5,0-2.1
		c0.6-0.6,1.5-0.6,2.1,0l4.1,4.1C58.1,178.6,58.2,179,58.2,179.4z"/>
</g>
</svg>
