<?xml version="1.0" encoding="utf-8"?>
<!-- Generator: Adobe Illustrator 24.3.0, SVG Export Plug-In . SVG Version: 6.00 Build 0)  -->
<!DOCTYPE svg PUBLIC "-//W3C//DTD SVG 1.1//EN" "http://www.w3.org/Graphics/SVG/1.1/DTD/svg11.dtd" [
	<!ENTITY ns_extend "http://ns.adobe.com/Extensibility/1.0/">
	<!ENTITY ns_ai "http://ns.adobe.com/AdobeIllustrator/10.0/">
	<!ENTITY ns_graphs "http://ns.adobe.com/Graphs/1.0/">
	<!ENTITY ns_vars "http://ns.adobe.com/Variables/1.0/">
	<!ENTITY ns_imrep "http://ns.adobe.com/ImageReplacement/1.0/">
	<!ENTITY ns_sfw "http://ns.adobe.com/SaveForWeb/1.0/">
	<!ENTITY ns_custom "http://ns.adobe.com/GenericCustomNamespace/1.0/">
	<!ENTITY ns_adobe_xpath "http://ns.adobe.com/XPath/1.0/">
]>
<svg version="1.1" id="Layer_1" xmlns:x="&ns_extend;" xmlns:i="&ns_ai;" xmlns:graph="&ns_graphs;"
	 xmlns="http://www.w3.org/2000/svg" xmlns:xlink="http://www.w3.org/1999/xlink" x="0px" y="0px" viewBox="0 0 65 65"
	 style="enable-background:new 0 0 65 65;" xml:space="preserve">
<style type="text/css">
	.st0{fill:#66913D;}
	.st1{fill:none;stroke:#66913D;stroke-width:3;stroke-linecap:round;stroke-linejoin:round;}
	.st2{fill:none;}
	.st3{fill:#FFFFFF;}
	.st4{fill:#2F2F2F;}
	.st5{fill:#707070;}
</style>
<metadata>
	<sfw  xmlns="&ns_sfw;">
		<slices></slices>
		<sliceSourceBounds  bottomLeftOrigin="true" height="455.9" width="404.2" x="0.6" y="-456.3"></sliceSourceBounds>
	</sfw>
</metadata>
<g id="Group_22_1_" transform="translate(247.596 112.102)">
	<path class="st0" d="M-213.2-60.2h-3.7c-1.6,0-2.9-1.3-2.9-2.9v-0.6c0-0.2-0.1-0.4-0.3-0.4c-0.8-0.2-1.6-0.5-2.3-0.9
		c-0.2-0.1-0.4-0.1-0.5,0.1l-0.4,0.4c-1.1,1.1-2.9,1.1-4.1,0l-2.6-2.6c-0.5-0.5-0.8-1.3-0.8-2c0-0.8,0.3-1.5,0.8-2l0.4-0.4
		c0.1-0.1,0.2-0.3,0.1-0.5c-0.4-0.8-0.7-1.6-1-2.4c-0.1-0.2-0.2-0.3-0.4-0.3c0,0,0,0,0,0h-0.6c-1.6,0-2.9-1.3-2.9-2.9v-3.7
		c0-1.6,1.3-2.9,2.9-2.9h0.6h0c0.2,0,0.4-0.1,0.4-0.3c0.3-0.8,0.6-1.6,1-2.4c0.1-0.1,0-0.3-0.1-0.4l-0.4-0.4c-1.1-1.1-1.1-2.9,0-4.1
		l2.6-2.6c0.5-0.5,1.3-0.8,2-0.8c0,0,0,0,0,0c0.8,0,1.5,0.3,2,0.8l0.4,0.4c0.1,0.1,0.3,0.2,0.5,0.1c0.7-0.4,1.6-0.7,2.4-1
		c0.2-0.1,0.3-0.2,0.3-0.4v-0.6c0-1.6,1.3-2.9,2.9-2.9h3.7c1.6,0,2.9,1.3,2.9,2.9v0.6c0,0.2,0.1,0.4,0.3,0.4c0.8,0.3,1.6,0.6,2.4,1
		c0.2,0.1,0.4,0.1,0.5-0.1l0.4-0.4c1.1-1.1,3-1.1,4.1,0l2.6,2.6c1.1,1.1,1.1,2.9,0,4.1l-0.4,0.4c-0.1,0.1-0.2,0.3-0.1,0.5
		c0.4,0.7,0.7,1.5,1,2.3c0.1,0.2,0.2,0.3,0.4,0.3c0,0,0,0,0,0h0.6c1.6,0,2.9,1.3,2.9,2.9v3.7c0,0,0,0,0,0c0,1.6-1.3,2.9-2.9,2.9
		h-0.6c0,0,0,0,0,0c-0.2,0-0.3,0.1-0.4,0.3c-0.3,0.8-0.6,1.6-1,2.4c-0.1,0.2,0,0.4,0.1,0.5l0.4,0.4c0.5,0.5,0.8,1.3,0.8,2
		c0,0.8-0.3,1.5-0.8,2l-2.6,2.6c-1.1,1.1-3,1.1-4.1,0l-0.4-0.4c-0.1-0.1-0.4-0.2-0.5-0.1c-0.7,0.4-1.5,0.8-2.3,0.9
		c-0.2,0-0.3,0.2-0.3,0.4v0.6C-210.4-61.5-211.6-60.2-213.2-60.2z M-216.8-63.2h3.5v-0.5c0-1.6,1.1-3,2.7-3.3
		c0.5-0.1,0.9-0.3,1.3-0.5c1.4-0.9,3.1-0.7,4.2,0.5l0.4,0.4l2.5-2.5l-0.4-0.4c-1.1-1.1-1.3-2.7-0.6-4c0.3-0.6,0.6-1.3,0.8-1.9
		c0.5-1.4,1.8-2.4,3.3-2.4c0,0,0,0,0,0h0.5v-3.5h-0.5c0,0,0,0,0,0c-1.5,0-2.9-1-3.3-2.5c-0.2-0.6-0.5-1.2-0.8-1.8
		c-0.7-1.3-0.4-2.9,0.6-4l0.3-0.3l-2.5-2.5l-0.3,0.3c-1.1,1.1-2.7,1.3-4,0.6c-0.6-0.3-1.2-0.6-1.9-0.8c-1.4-0.5-2.4-1.8-2.4-3.3V-96
		h-3.5v0.5c0,1.5-1,2.8-2.4,3.3c-0.7,0.2-1.3,0.5-2,0.8c-1.3,0.6-2.9,0.4-3.9-0.7l-0.3-0.3l-2.5,2.5l0.3,0.3c1,1,1.3,2.6,0.7,3.9
		c-0.3,0.6-0.6,1.3-0.8,1.9c-0.4,1.4-1.8,2.4-3.3,2.4c0,0,0,0,0,0h-0.5v3.5h0.5c0,0,0,0,0,0c1.5,0,2.8,1,3.3,2.4
		c0.2,0.7,0.5,1.3,0.8,1.9c0.7,1.3,0.4,2.9-0.6,4l-0.4,0.4l2.5,2.5l0.4-0.4c1.1-1.1,2.9-1.3,4.2-0.5c0.4,0.3,0.9,0.4,1.3,0.5
		c1.6,0.4,2.7,1.7,2.7,3.3V-63.2z M-197.2-77.7L-197.2-77.7L-197.2-77.7z M-215.1-71.5C-215.1-71.5-215.1-71.5-215.1-71.5
		c-0.7,0-1.5-0.1-2.2-0.3c-0.6-0.2-1.3-0.4-1.9-0.8c-1.3-0.7-2.3-1.8-3.1-3.1c-0.3-0.5-0.6-1.1-0.7-1.7c-0.2-0.7-0.3-1.5-0.3-2.2
		c0-0.7,0.1-1.4,0.3-2.1c0.2-0.6,0.4-1.3,0.8-1.9c0.7-1.3,1.8-2.4,3.1-3.1c0.5-0.3,1.1-0.6,1.7-0.7c0.7-0.2,1.5-0.3,2.2-0.3
		c0.7,0,1.5,0.1,2.2,0.3c0.6,0.2,1.2,0.4,1.7,0.7c1.3,0.7,2.3,1.8,3.1,3.1c0.3,0.6,0.6,1.2,0.8,1.8c0.2,0.7,0.3,1.4,0.3,2.1
		c0,0.7-0.1,1.5-0.3,2.2h0c-0.2,0.6-0.4,1.2-0.7,1.7c-0.7,1.3-1.8,2.3-3.1,3.1c-0.6,0.3-1.2,0.6-1.8,0.8
		C-213.6-71.6-214.4-71.5-215.1-71.5z M-215.1-74.5c0.5,0,0.9-0.1,1.4-0.2c0.4-0.1,0.8-0.3,1.1-0.5c0.8-0.5,1.5-1.1,2-1.9
		c0.2-0.4,0.4-0.7,0.5-1.1c0,0,0,0,0,0c0.1-0.4,0.2-0.9,0.2-1.4c0-0.5-0.1-0.9-0.2-1.4c-0.1-0.4-0.3-0.8-0.5-1.1
		c-0.5-0.8-1.1-1.5-1.9-2c-0.4-0.2-0.7-0.4-1.1-0.5c-0.5-0.1-0.9-0.2-1.4-0.2c-0.5,0-1,0.1-1.4,0.2c-0.4,0.1-0.8,0.3-1.1,0.5
		c-0.8,0.5-1.5,1.1-2,1.9c-0.2,0.4-0.4,0.8-0.5,1.2c-0.1,0.4-0.2,0.9-0.2,1.3c0,0.5,0.1,0.9,0.2,1.4c0.1,0.4,0.3,0.8,0.5,1.1
		c0.5,0.8,1.1,1.5,1.9,2c0.4,0.2,0.8,0.4,1.1,0.5C-216-74.6-215.5-74.5-215.1-74.5z"/>
	<path class="st0" d="M-215-103.9c-0.2,0-0.5,0-0.7-0.1c-0.7-0.1-1.3-0.4-1.9-0.9c-0.2-0.2-0.4-0.4-0.6-0.7c-0.2-0.3-0.4-0.6-0.5-1
		c-0.1-0.3-0.2-0.7-0.2-1c0-0.3,0-0.7,0.1-1c0.1-0.7,0.4-1.3,0.9-1.9c0.2-0.2,0.4-0.4,0.7-0.6c0.3-0.2,0.6-0.4,1-0.5
		c0.3-0.1,0.7-0.2,1.1-0.2c0.3,0,0.6,0,0.9,0.1c0.7,0.1,1.3,0.4,1.9,0.9c0.2,0.2,0.4,0.4,0.6,0.7c0.2,0.3,0.3,0.6,0.5,0.9
		c0.1,0.3,0.2,0.7,0.2,1.1c0,0.3,0,0.6-0.1,0.9c-0.1,0.7-0.4,1.3-0.9,1.9c-0.2,0.2-0.4,0.4-0.7,0.6c-0.3,0.2-0.6,0.3-0.9,0.5
		c-0.3,0.1-0.7,0.2-1,0.2C-214.8-103.9-214.9-103.9-215-103.9z M-215-108.7C-215-108.7-215-108.7-215-108.7c-0.1,0-0.2,0-0.3,0
		c-0.1,0-0.2,0.1-0.2,0.1c-0.1,0-0.1,0.1-0.2,0.1c-0.1,0.1-0.2,0.3-0.2,0.4c0,0.1,0,0.2,0,0.2c0,0.1,0,0.2,0,0.2
		c0,0.1,0.1,0.2,0.1,0.2c0,0.1,0.1,0.1,0.1,0.2c0.1,0.1,0.3,0.2,0.4,0.2c0.1,0,0.2,0,0.2,0c0.1,0,0.2,0,0.3,0c0.1,0,0.2-0.1,0.2-0.1
		c0.1,0,0.1-0.1,0.1-0.1c0.1-0.1,0.2-0.3,0.2-0.5c0-0.1,0-0.2,0-0.2c0,0,0,0,0,0c0-0.1,0-0.2,0-0.2c0-0.1-0.1-0.2-0.1-0.2
		c0-0.1-0.1-0.1-0.1-0.2c-0.1-0.1-0.3-0.2-0.5-0.2C-214.9-108.7-214.9-108.7-215-108.7z"/>
	<path class="st0" d="M-215-47.5c-0.2,0-0.5,0-0.7-0.1c-0.7-0.1-1.3-0.4-1.9-0.9c-0.2-0.2-0.4-0.4-0.6-0.7c-0.2-0.3-0.4-0.6-0.5-1
		c-0.1-0.3-0.2-0.7-0.2-1c0-0.3,0-0.7,0.1-1c0.1-0.7,0.4-1.3,0.9-1.9c0.2-0.2,0.4-0.4,0.7-0.6c0.3-0.2,0.6-0.4,1-0.5
		c0.3-0.1,0.7-0.2,1.1-0.2c0.3,0,0.6,0,0.9,0.1c0.7,0.1,1.3,0.4,1.9,0.9c0.2,0.2,0.4,0.4,0.6,0.7c0.2,0.3,0.3,0.6,0.5,0.9
		c0.1,0.3,0.2,0.7,0.2,1.1c0,0.3,0,0.6-0.1,0.9c-0.1,0.7-0.4,1.3-0.9,1.9c-0.2,0.2-0.4,0.5-0.7,0.6c-0.3,0.2-0.6,0.3-0.9,0.5
		c-0.3,0.1-0.7,0.2-1,0.2C-214.8-47.5-214.9-47.5-215-47.5z M-215-52.3C-215-52.3-215-52.3-215-52.3c-0.1,0-0.2,0-0.3,0
		c-0.1,0-0.2,0.1-0.2,0.1c-0.1,0.1-0.1,0.1-0.2,0.1c-0.1,0.1-0.2,0.3-0.2,0.4c0,0.1,0,0.2,0,0.2c0,0.1,0,0.2,0,0.2
		c0,0.1,0.1,0.2,0.1,0.2c0,0.1,0.1,0.1,0.1,0.2c0.1,0.1,0.3,0.2,0.4,0.2c0.1,0,0.2,0,0.2,0c0.1,0,0.2,0,0.3,0c0.1,0,0.2-0.1,0.2-0.1
		c0.1,0,0.1-0.1,0.1-0.1c0.1-0.1,0.2-0.3,0.2-0.5c0-0.1,0-0.2,0-0.2c0,0,0,0,0,0c0-0.1,0-0.2,0-0.2c0-0.1-0.1-0.2-0.1-0.2
		c0-0.1-0.1-0.1-0.1-0.2c-0.1-0.1-0.3-0.2-0.5-0.2C-214.9-52.3-214.9-52.3-215-52.3z"/>
	<path class="st0" d="M-187-75.5c-0.2,0-0.5,0-0.7-0.1c-0.7-0.1-1.3-0.4-1.9-0.9c-0.2-0.2-0.4-0.4-0.6-0.7c-0.2-0.3-0.4-0.6-0.5-1
		c-0.1-0.3-0.2-0.7-0.2-1c0-0.3,0-0.6,0.1-1c0.1-0.7,0.4-1.3,0.9-1.9c0.2-0.2,0.4-0.4,0.7-0.6c0.3-0.2,0.6-0.4,1-0.5
		c0.3-0.1,0.7-0.2,1.1-0.2c0.3,0,0.6,0,0.9,0.1c0.7,0.1,1.3,0.4,1.9,0.9c0.2,0.2,0.5,0.4,0.6,0.7c0.2,0.3,0.3,0.6,0.5,0.9
		c0.1,0.3,0.2,0.7,0.2,1.1c0,0.3,0,0.6-0.1,0.9c-0.1,0.7-0.4,1.3-0.9,1.9c-0.2,0.2-0.4,0.5-0.7,0.6c-0.3,0.2-0.6,0.3-0.9,0.5
		c-0.3,0.1-0.7,0.2-1,0.2C-186.9-75.5-187-75.5-187-75.5z M-187-80.3C-187-80.3-187.1-80.3-187-80.3c-0.1,0-0.2,0-0.3,0
		c-0.1,0-0.2,0.1-0.2,0.1c-0.1,0-0.1,0.1-0.2,0.1c-0.1,0.1-0.2,0.3-0.2,0.4c0,0.1,0,0.2,0,0.2c0,0.1,0,0.2,0,0.2
		c0,0.1,0.1,0.2,0.1,0.2c0.1,0.1,0.1,0.1,0.1,0.2c0.1,0.1,0.3,0.2,0.4,0.2c0.1,0,0.2,0,0.2,0c0.1,0,0.2,0,0.3,0
		c0.1,0,0.2-0.1,0.2-0.1c0.1,0,0.1-0.1,0.1-0.1c0.1-0.1,0.2-0.3,0.2-0.5c0-0.1,0-0.1,0-0.2c0,0,0,0,0,0c0-0.1,0-0.1,0-0.2
		c0-0.1-0.1-0.2-0.1-0.2c0-0.1-0.1-0.1-0.1-0.2c-0.1-0.1-0.3-0.2-0.5-0.2C-186.9-80.3-187-80.3-187-80.3z"/>
	<path class="st0" d="M-243.2-75.5c-0.2,0-0.5,0-0.7-0.1c-0.7-0.1-1.3-0.4-1.9-0.9c-0.2-0.2-0.4-0.4-0.6-0.7c-0.2-0.3-0.4-0.6-0.5-1
		c-0.1-0.3-0.2-0.7-0.2-1c0-0.3,0-0.7,0.1-1c0.1-0.7,0.4-1.3,0.9-1.9c0.2-0.2,0.4-0.4,0.7-0.6c0.3-0.2,0.6-0.4,1-0.5
		c0.3-0.1,0.7-0.2,1.1-0.2c0.3,0,0.6,0,0.9,0.1c0.7,0.1,1.3,0.4,1.9,0.9c0.2,0.2,0.4,0.4,0.6,0.7c0.2,0.3,0.4,0.6,0.5,0.9
		c0.1,0.3,0.2,0.7,0.2,1.1c0,0.3,0,0.6-0.1,0.9c-0.1,0.7-0.4,1.3-0.9,1.9c-0.2,0.2-0.4,0.4-0.7,0.6c-0.3,0.2-0.6,0.3-0.9,0.5
		c-0.3,0.1-0.7,0.2-1,0.2C-243-75.5-243.1-75.5-243.2-75.5z M-243.2-80.3C-243.2-80.3-243.2-80.3-243.2-80.3c-0.1,0-0.2,0-0.3,0
		c-0.1,0-0.2,0.1-0.2,0.1c-0.1,0-0.1,0.1-0.2,0.1c-0.1,0.1-0.2,0.3-0.2,0.4c0,0.1,0,0.2,0,0.2c0,0.1,0,0.2,0,0.2
		c0,0.1,0.1,0.2,0.1,0.2c0.1,0.1,0.1,0.1,0.1,0.2c0.1,0.1,0.3,0.2,0.4,0.2c0.1,0,0.2,0,0.2,0c0.1,0,0.2,0,0.3,0
		c0.1,0,0.2-0.1,0.2-0.1c0.1,0,0.1-0.1,0.1-0.1c0.1-0.1,0.2-0.3,0.2-0.5c0-0.1,0-0.1,0-0.2c0,0,0,0,0,0c0-0.1,0-0.1,0-0.2
		c0-0.1-0.1-0.2-0.1-0.2c0-0.1-0.1-0.1-0.1-0.2c-0.1-0.1-0.3-0.2-0.5-0.2C-243-80.3-243.1-80.3-243.2-80.3z"/>
	<path class="st0" d="M-203.1-52.3c-0.6,0-1.1-0.3-1.4-0.9c-0.4-0.8,0-1.6,0.7-2c5.8-2.7,10.5-7.4,13.1-13.3c0.3-0.8,1.2-1.1,2-0.8
		c0.8,0.3,1.1,1.2,0.8,2c-2.9,6.5-8.1,11.8-14.6,14.8C-202.7-52.4-202.9-52.3-203.1-52.3z"/>
	<path class="st0" d="M-226.9-52.3c-0.2,0-0.4,0-0.6-0.1c-6.5-3-11.7-8.3-14.6-14.8c-0.3-0.8,0-1.6,0.8-2c0.8-0.3,1.6,0,2,0.8
		c2.6,5.9,7.3,10.6,13.1,13.3c0.8,0.4,1.1,1.2,0.7,2C-225.8-52.6-226.3-52.3-226.9-52.3z"/>
	<path class="st0" d="M-240.7-89.5c-0.2,0-0.4,0-0.6-0.1c-0.8-0.3-1.1-1.2-0.7-2c2.8-6.2,7.7-11.3,13.9-14.4c0.7-0.4,1.6-0.1,2,0.7
		c0.4,0.7,0.1,1.6-0.7,2c-5.5,2.7-9.9,7.3-12.5,12.9C-239.6-89.8-240.1-89.5-240.7-89.5z"/>
	<path class="st0" d="M-189.7-90.3c-0.6,0-1.1-0.3-1.3-0.8c-2.6-5.2-6.9-9.5-12.1-12.1c-0.7-0.4-1-1.3-0.7-2c0.4-0.7,1.3-1,2-0.7
		c5.8,2.9,10.6,7.7,13.4,13.5c0.4,0.7,0.1,1.6-0.7,2C-189.2-90.4-189.5-90.3-189.7-90.3z"/>
</g>
</svg>
