<?xml version="1.0" encoding="utf-8"?>
<!-- Generator: Adobe Illustrator 24.3.0, SVG Export Plug-In . SVG Version: 6.00 Build 0)  -->
<!DOCTYPE svg PUBLIC "-//W3C//DTD SVG 1.1//EN" "http://www.w3.org/Graphics/SVG/1.1/DTD/svg11.dtd" [
	<!ENTITY ns_extend "http://ns.adobe.com/Extensibility/1.0/">
	<!ENTITY ns_ai "http://ns.adobe.com/AdobeIllustrator/10.0/">
	<!ENTITY ns_graphs "http://ns.adobe.com/Graphs/1.0/">
	<!ENTITY ns_vars "http://ns.adobe.com/Variables/1.0/">
	<!ENTITY ns_imrep "http://ns.adobe.com/ImageReplacement/1.0/">
	<!ENTITY ns_sfw "http://ns.adobe.com/SaveForWeb/1.0/">
	<!ENTITY ns_custom "http://ns.adobe.com/GenericCustomNamespace/1.0/">
	<!ENTITY ns_adobe_xpath "http://ns.adobe.com/XPath/1.0/">
]>
<svg version="1.1" id="Layer_1" xmlns:x="&ns_extend;" xmlns:i="&ns_ai;" xmlns:graph="&ns_graphs;"
	 xmlns="http://www.w3.org/2000/svg" xmlns:xlink="http://www.w3.org/1999/xlink" x="0px" y="0px" viewBox="0 0 65 65"
	 style="enable-background:new 0 0 65 65;" xml:space="preserve">
<style type="text/css">
	.st0{fill:#66913D;}
	.st1{fill:none;stroke:#66913D;stroke-width:3;stroke-linecap:round;stroke-linejoin:round;}
	.st2{fill:none;}
	.st3{fill:#FFFFFF;}
	.st4{fill:#2F2F2F;}
	.st5{fill:#707070;}
</style>
<metadata>
	<sfw  xmlns="&ns_sfw;">
		<slices></slices>
		<sliceSourceBounds  bottomLeftOrigin="true" height="455.9" width="404.2" x="0.6" y="-456.3"></sliceSourceBounds>
	</sfw>
</metadata>
<g id="Group_357" transform="translate(-10.265 -6.884)">
	<path class="st0" d="M43.8,51C43.8,51,43.8,51,43.8,51h-1.9c-0.6,0-1.1-0.2-1.6-0.6c-0.4-0.4-0.6-0.9-0.6-1.5
		c-0.2-0.1-0.4-0.2-0.6-0.3c-0.9,0.8-2.2,0.8-3.1,0l-1.4-1.3c-0.4-0.4-0.6-1-0.6-1.6c0-0.6,0.2-1.1,0.6-1.5
		c-0.1-0.2-0.2-0.4-0.3-0.6c-0.6,0-1.1-0.2-1.5-0.6c-0.4-0.4-0.6-1-0.6-1.6v-1.9c0-0.6,0.2-1.1,0.6-1.6c0.4-0.4,0.9-0.6,1.5-0.6
		c0.1-0.2,0.2-0.4,0.2-0.6c-0.8-0.9-0.8-2.2,0.1-3.1l1.4-1.4c0.8-0.8,2.2-0.9,3.1-0.1c0.2-0.1,0.4-0.2,0.6-0.3
		c0-0.6,0.2-1.1,0.6-1.5c0.4-0.4,1-0.6,1.6-0.6c0,0,0,0,0,0h1.9c0.6,0,1.1,0.2,1.6,0.6c0.4,0.4,0.6,0.9,0.6,1.5
		c0.2,0.1,0.4,0.2,0.6,0.3c0.9-0.8,2.2-0.8,3.1,0.1l1.3,1.4c0.8,0.8,0.9,2.2,0,3.1c0.1,0.2,0.2,0.4,0.3,0.6c0.6,0,1.1,0.2,1.5,0.6
		c0.4,0.4,0.6,1,0.6,1.6v1.9c0,0,0,0,0,0c0,0.6-0.2,1.1-0.6,1.6c-0.4,0.4-0.9,0.6-1.5,0.6c-0.1,0.2-0.2,0.4-0.3,0.6
		c0.4,0.4,0.6,1,0.6,1.5c0,0.6-0.2,1.1-0.6,1.6l-1.3,1.3c-0.8,0.8-2.2,0.9-3.1,0c-0.2,0.1-0.4,0.2-0.6,0.3c0,0.6-0.3,1.1-0.6,1.5
		C44.9,50.7,44.4,51,43.8,51z M39.7,48.5C39.7,48.5,39.7,48.5,39.7,48.5L39.7,48.5z M46,48.4L46,48.4C46,48.5,46,48.4,46,48.4z
		 M38.7,48.4C38.7,48.4,38.7,48.4,38.7,48.4C38.7,48.4,38.7,48.4,38.7,48.4z M43.8,48L43.8,48C43.8,48,43.8,48,43.8,48z M42.6,48
		h0.4c0.2-0.9,0.9-1.7,1.9-1.9c0.2,0,0.3-0.1,0.4-0.2c0.9-0.5,1.9-0.5,2.7,0l0.3-0.3c-0.5-0.7-0.6-1.7-0.2-2.5
		c0.1-0.3,0.3-0.6,0.4-0.9c0.3-0.9,1-1.5,1.9-1.7v-0.4c-0.9-0.2-1.6-0.8-1.9-1.7c-0.1-0.3-0.2-0.5-0.3-0.8c-0.4-0.8-0.3-1.8,0.1-2.5
		l-0.3-0.3c-0.7,0.5-1.7,0.6-2.5,0.1c-0.3-0.1-0.6-0.3-0.8-0.4c-0.9-0.3-1.5-1-1.7-1.9h-0.4c-0.2,0.9-0.8,1.6-1.7,1.9
		c-0.3,0.1-0.6,0.2-0.9,0.4c-0.8,0.4-1.7,0.3-2.4-0.2l-0.3,0.3c0.5,0.7,0.5,1.7,0.2,2.5c-0.2,0.3-0.3,0.6-0.4,0.9
		c-0.3,0.9-1,1.5-1.9,1.7v0.4c0.9,0.2,1.6,0.8,1.9,1.7c0.1,0.3,0.2,0.6,0.4,0.9c0.4,0.8,0.4,1.8-0.1,2.5l0.3,0.3
		c0.8-0.5,1.9-0.6,2.7,0c0.1,0.1,0.3,0.1,0.4,0.2C41.7,46.2,42.4,47,42.6,48z M48.9,46.2C48.9,46.2,48.9,46.2,48.9,46.2L48.9,46.2z
		 M34.9,43.8C34.9,43.8,34.9,43.8,34.9,43.8L34.9,43.8z M50.8,43.8L50.8,43.8C50.8,43.8,50.8,43.8,50.8,43.8z M34.7,43.5
		C34.7,43.5,34.7,43.5,34.7,43.5C34.7,43.5,34.7,43.5,34.7,43.5L34.7,43.5z M51,43.5C51,43.5,51,43.5,51,43.5
		C51,43.5,51,43.5,51,43.5L51,43.5z M34.2,43.1C34.2,43.1,34.2,43.1,34.2,43.1C34.2,43.1,34.2,43.1,34.2,43.1z M51.5,43.1
		C51.5,43.1,51.5,43.1,51.5,43.1C51.5,43.1,51.5,43.1,51.5,43.1z M50.5,41.3L50.5,41.3l1.5,0L50.5,41.3z M51.3,40.5
		C51.3,40.5,51.3,40.5,51.3,40.5L51.3,40.5C51.3,40.5,51.3,40.5,51.3,40.5z M34.4,40.1C34.4,40.1,34.4,40.1,34.4,40.1L34.4,40.1
		L34.4,40.1z M34.2,37.5C34.2,37.5,34.2,37.5,34.2,37.5C34.2,37.5,34.2,37.5,34.2,37.5z M51.5,37.5C51.5,37.5,51.5,37.5,51.5,37.5
		C51.5,37.5,51.5,37.5,51.5,37.5z M34.7,37.1L34.7,37.1C34.7,37.1,34.7,37.1,34.7,37.1C34.7,37.1,34.7,37.1,34.7,37.1z M51,37.1
		C51,37.1,51,37.1,51,37.1L51,37.1C51,37.1,51,37.1,51,37.1z M50.8,36.8L50.8,36.8C50.8,36.8,50.8,36.8,50.8,36.8z M41.9,32.7
		C41.9,32.7,41.9,32.7,41.9,32.7L41.9,32.7L41.9,32.7z M46.4,32.3C46.4,32.3,46.4,32.3,46.4,32.3L46.4,32.3z M39.7,32.2
		C39.7,32.2,39.7,32.2,39.7,32.2L39.7,32.2z M40,31.7C40,31.7,40,31.7,40,31.7C40,31.7,40,31.7,40,31.7z M42.8,45.2
		c-0.4,0-0.9-0.1-1.3-0.2c-0.4-0.1-0.8-0.3-1.1-0.5c-0.8-0.4-1.4-1.1-1.8-1.9c-0.2-0.3-0.3-0.7-0.4-1C38,41.2,38,40.8,38,40.3
		c0-0.4,0.1-0.9,0.2-1.3c0.1-0.4,0.3-0.8,0.5-1.1c0.4-0.8,1.1-1.4,1.9-1.8c0.3-0.2,0.7-0.3,1.1-0.4c0.9-0.3,1.8-0.3,2.7,0
		c0.4,0.1,0.7,0.3,1.1,0.4c0.8,0.4,1.4,1.1,1.8,1.9c0.2,0.3,0.4,0.7,0.5,1.1c0.1,0.4,0.2,0.8,0.2,1.3c0,0.5-0.1,0.9-0.2,1.4h0
		c-0.1,0.4-0.3,0.7-0.4,1.1c-0.4,0.8-1.1,1.4-1.9,1.8c-0.3,0.2-0.7,0.4-1.1,0.5C43.7,45.1,43.3,45.2,42.8,45.2z M42.8,38.4
		c-0.2,0-0.3,0-0.5,0.1c-0.1,0-0.3,0.1-0.4,0.2c-0.3,0.2-0.6,0.4-0.7,0.7c-0.1,0.1-0.1,0.3-0.2,0.4c0,0.2-0.1,0.3-0.1,0.5
		c0,0.2,0,0.3,0.1,0.5c0,0.2,0.1,0.3,0.2,0.4c0.2,0.3,0.4,0.6,0.7,0.7c0.2,0.1,0.3,0.1,0.4,0.2c0.3,0.1,0.7,0.1,1,0
		c0.1,0,0.3-0.1,0.4-0.2c0.3-0.2,0.6-0.4,0.7-0.7c0.1-0.1,0.1-0.3,0.2-0.4c0,0,0,0,0,0c0-0.2,0.1-0.3,0.1-0.5c0-0.2,0-0.3-0.1-0.5
		c0-0.1-0.1-0.3-0.2-0.4c-0.2-0.3-0.4-0.6-0.7-0.7c-0.1-0.1-0.3-0.1-0.4-0.2C43.2,38.4,43,38.4,42.8,38.4z"/>
	<g id="Group_350" transform="translate(11.765 48.649)">
		<path class="st0" d="M8.7,3.3c-0.3,0-0.7,0-1-0.1C6.6,3,5.7,2.6,4.9,1.9c-0.3-0.3-0.6-0.6-0.9-1C3.8,0.5,3.5,0,3.4-0.5
			C3.2-1,3.1-1.5,3.1-2c0-0.5,0-0.9,0.1-1.4c0.2-1,0.6-1.9,1.3-2.7c0.3-0.3,0.6-0.6,1-0.9c1.2-0.8,2.8-1.2,4.2-0.9
			c1,0.2,1.9,0.6,2.7,1.3c0.3,0.3,0.6,0.6,0.9,1c0.3,0.4,0.5,0.9,0.7,1.3c0.2,0.5,0.3,1,0.3,1.5c0,0.4,0,0.9-0.1,1.3
			c-0.2,1-0.6,1.9-1.3,2.7c-0.3,0.3-0.6,0.6-1,0.9C11,2.9,10,3.2,9,3.3C8.9,3.3,8.8,3.3,8.7,3.3z M8.7-4.9c-0.5,0-1.1,0.2-1.5,0.5
			C7-4.3,6.9-4.2,6.7-4.1C6.4-3.7,6.2-3.3,6.1-2.8c0,0.2-0.1,0.4,0,0.7c0,0.2,0.1,0.5,0.1,0.7C6.3-1.2,6.4-1,6.5-0.8
			c0.1,0.2,0.3,0.3,0.4,0.5C7.3,0,7.7,0.2,8.2,0.3c0.2,0,0.4,0.1,0.6,0c0.5,0,0.9-0.2,1.3-0.5c0.2-0.1,0.3-0.3,0.5-0.4
			c0.3-0.4,0.5-0.8,0.6-1.3c0-0.2,0.1-0.4,0-0.6c0,0,0,0,0,0c0-0.2-0.1-0.5-0.1-0.7c-0.1-0.2-0.2-0.4-0.3-0.6
			c-0.1-0.2-0.3-0.3-0.4-0.5C10-4.6,9.6-4.8,9.1-4.9C9-4.9,8.8-4.9,8.7-4.9z"/>
		<path class="st0" d="M15.1,11.8c-0.8,0-1.5-0.7-1.5-1.5c0-2.7-2.2-5-5-5c-2.8,0-5,2.2-5,5c0,0.8-0.7,1.5-1.5,1.5s-1.5-0.7-1.5-1.5
			c0-4.4,3.6-8,8-8c4.4,0,8,3.6,8,8C16.6,11.2,16,11.8,15.1,11.8z"/>
	</g>
	<g id="Group_351" transform="translate(38.803 61.845)">
		<path class="st0" d="M4,1C3.7,1,3.3,1,3,0.9C2,0.8,1.1,0.3,0.3-0.4C0-0.7-0.3-1-0.6-1.4c-0.3-0.4-0.5-0.9-0.7-1.4
			c-0.2-0.5-0.3-1-0.3-1.5c0-0.5,0-0.9,0.1-1.4c0.2-1,0.6-1.9,1.3-2.7c0.3-0.3,0.6-0.6,1-0.9c0.9-0.6,1.9-0.9,2.9-1
			c0.4,0,0.9,0,1.3,0.1c1,0.2,1.9,0.6,2.7,1.3c0.3,0.3,0.6,0.6,0.9,1C9-7.3,9.2-6.9,9.4-6.4c0.2,0.5,0.3,1,0.3,1.5
			c0,0.4,0,0.9-0.1,1.3c-0.2,1-0.6,1.9-1.3,2.7c-0.3,0.3-0.6,0.6-1,0.9C6.4,0.6,5.4,1,4.4,1C4.3,1,4.2,1,4,1z M4.1-7.2
			c0,0-0.1,0-0.1,0C3.4-7.1,3-7,2.6-6.7C2.4-6.6,2.2-6.5,2.1-6.3C1.8-5.9,1.6-5.5,1.5-5c0,0.2-0.1,0.4,0,0.6c0,0.2,0.1,0.5,0.1,0.7
			c0.1,0.2,0.2,0.4,0.3,0.6C2-2.9,2.2-2.8,2.3-2.6C2.7-2.3,3.1-2.1,3.6-2C3.8-2,4-1.9,4.2-2c0.5,0,0.9-0.2,1.3-0.5
			C5.7-2.5,5.8-2.7,6-2.8c0.3-0.4,0.6-0.8,0.6-1.3c0-0.2,0.1-0.4,0-0.6c0,0,0,0,0,0c0-0.2-0.1-0.5-0.1-0.7C6.4-5.6,6.3-5.8,6.2-6
			C6.1-6.2,5.9-6.4,5.8-6.5C5.4-6.8,5-7,4.5-7.1C4.4-7.2,4.2-7.2,4.1-7.2z"/>
		<path class="st0" d="M-2.4,9.6c-0.8,0-1.5-0.7-1.5-1.5c0-4.4,3.6-8,8-8c4.4,0,8,3.6,8,8c0,0.8-0.7,1.5-1.5,1.5h0
			C9.7,9.6,9,8.9,9,8.1c0-2.7-2.2-5-5-5c-2.8,0-5,2.2-5,5C-0.9,8.9-1.6,9.6-2.4,9.6z"/>
	</g>
	<g id="Group_352" transform="translate(38.803 8.384)">
		<path class="st0" d="M4,10.2c-0.3,0-0.7,0-1-0.1C2,9.9,1.1,9.4,0.3,8.7C0,8.5-0.3,8.1-0.6,7.8c-0.3-0.4-0.5-0.9-0.7-1.4
			c-0.2-0.5-0.3-1-0.3-1.5c0-0.5,0-0.9,0.1-1.4c0.2-1,0.6-1.9,1.3-2.7c0.3-0.3,0.6-0.6,1-0.9C1.7-0.6,2.7-1,3.8-1
			c0.4,0,0.9,0,1.3,0.1c1,0.2,1.9,0.6,2.7,1.3c0.3,0.3,0.6,0.6,0.9,1C9,1.8,9.2,2.3,9.4,2.7c0.2,0.5,0.3,1,0.3,1.5
			c0,0.4,0,0.9-0.1,1.3c-0.2,1-0.6,1.9-1.3,2.7c-0.3,0.3-0.6,0.6-1,0.9c-0.8,0.6-1.8,0.9-2.8,1C4.3,10.2,4.2,10.2,4,10.2z M4.1,2
			C4,2,4,2,3.9,2C3.4,2,3,2.1,2.6,2.4C2.4,2.5,2.2,2.7,2.1,2.8C1.8,3.2,1.6,3.6,1.5,4.1c0,0.2-0.1,0.4,0,0.6c0,0.2,0.1,0.5,0.1,0.7
			C1.7,5.6,1.8,5.9,1.9,6C2,6.2,2.2,6.4,2.3,6.5C2.7,6.8,3.1,7,3.6,7.1c0.2,0,0.4,0.1,0.6,0c0.5,0,0.9-0.2,1.3-0.5
			C5.7,6.6,5.8,6.5,6,6.3C6.3,5.9,6.5,5.5,6.6,5c0-0.2,0.1-0.4,0-0.6c0,0,0,0,0,0c0-0.2-0.1-0.5-0.1-0.7C6.4,3.5,6.3,3.3,6.2,3.1
			C6.1,2.9,5.9,2.8,5.8,2.6C5.4,2.3,5,2.1,4.5,2C4.4,2,4.2,2,4.1,2z"/>
		<path class="st0" d="M10.5,18.7C9.7,18.7,9,18,9,17.2c0-2.8-2.2-5-5-5c-2.8,0-5,2.2-5,5c0,0.8-0.7,1.5-1.5,1.5s-1.5-0.7-1.5-1.5
			c0-4.4,3.6-8,8-8s8,3.6,8,8C12,18,11.4,18.7,10.5,18.7z"/>
	</g>
	<g id="Group_353" transform="translate(65.453 48.649)">
		<path class="st0" d="M-0.5,3.3c-0.3,0-0.7,0-1-0.1c-1-0.2-1.9-0.6-2.7-1.3c-0.3-0.3-0.6-0.6-0.9-1C-5.4,0.5-5.6,0-5.8-0.5
			C-6-1-6.1-1.4-6.1-1.9c0-0.5,0-0.9,0.1-1.4c0.2-1,0.6-1.9,1.3-2.7c0.3-0.3,0.6-0.6,1-0.9C-2.5-7.8-1-8.1,0.5-7.8
			c1,0.2,1.9,0.6,2.7,1.3c0.3,0.3,0.6,0.6,0.9,1c0.3,0.4,0.5,0.9,0.7,1.3c0.2,0.5,0.3,1,0.3,1.5c0,0.4,0,0.9-0.1,1.3
			c-0.2,1-0.6,1.9-1.3,2.7C3.4,1.8,3,2.1,2.6,2.3c-0.8,0.6-1.8,0.9-2.8,1C-0.3,3.3-0.4,3.3-0.5,3.3z M-0.5-4.9C-1-4.9-1.6-4.8-2-4.4
			c-0.2,0.1-0.3,0.2-0.4,0.4C-2.8-3.7-3-3.3-3.1-2.8c0,0.2-0.1,0.4,0,0.6c0,0.2,0.1,0.5,0.1,0.7C-2.9-1.2-2.8-1-2.7-0.8
			c0.1,0.2,0.3,0.3,0.4,0.5C-1.9,0-1.5,0.2-1,0.3c0.2,0,0.4,0.1,0.6,0c0.5,0,0.9-0.2,1.3-0.5c0.2-0.1,0.3-0.3,0.5-0.4
			C1.8-0.9,2-1.4,2.1-1.8c0-0.2,0.1-0.4,0-0.6c0,0,0,0,0,0C2.1-2.7,2-2.9,2-3.1C1.9-3.4,1.8-3.6,1.6-3.8C1.5-4,1.4-4.1,1.2-4.2
			C0.9-4.6,0.4-4.8,0-4.9C-0.2-4.9-0.3-4.9-0.5-4.9z"/>
		<path class="st0" d="M6,11.8c-0.8,0-1.5-0.7-1.5-1.5c0-2.7-2.2-5-5-5c-2.7,0-5,2.2-5,5c0,0.8-0.7,1.5-1.5,1.5s-1.5-0.7-1.5-1.5
			c0-4.4,3.6-8,8-8c4.4,0,8,3.6,8,8C7.5,11.2,6.8,11.8,6,11.8z"/>
	</g>
	<g id="Group_356" transform="translate(11.959 19.854)">
		<g id="Group_354">
			<path class="st0" d="M8.6,8.2c-0.3,0-0.7,0-1-0.1c-1-0.2-1.9-0.6-2.7-1.3C4.2,6.2,3.6,5.3,3.3,4.4C3.2,4,3.1,3.5,3,3
				C3,2.5,3,2,3.1,1.6c0.2-1,0.6-1.9,1.3-2.7c0.6-0.7,1.4-1.3,2.4-1.6C7.3-2.9,7.8-3,8.4-3c0.4,0,0.9,0,1.3,0.1
				c1,0.2,1.9,0.6,2.7,1.3c0.3,0.3,0.6,0.6,0.9,1c0.3,0.4,0.5,0.9,0.7,1.3c0.2,0.5,0.3,1,0.3,1.5c0,0.4,0,0.9-0.1,1.3
				c-0.2,1-0.6,1.9-1.3,2.7c-0.3,0.3-0.6,0.6-1,0.9c-0.4,0.3-0.9,0.5-1.3,0.7C10,8.1,9.5,8.2,9,8.2C8.9,8.2,8.7,8.2,8.6,8.2z M8.6,0
				c0,0-0.1,0-0.1,0C8.2,0,8,0.1,7.8,0.1C7.4,0.3,7,0.5,6.7,0.9C6.4,1.2,6.1,1.7,6.1,2.1C6,2.4,6,2.6,6,2.8C6,3,6.1,3.2,6.2,3.5
				c0.1,0.4,0.4,0.8,0.7,1.1c0.4,0.3,0.8,0.5,1.3,0.6c0.2,0,0.4,0.1,0.6,0c0.2,0,0.5-0.1,0.7-0.1C9.7,5,9.9,4.9,10.1,4.8
				c0.2-0.1,0.3-0.3,0.5-0.4c0.3-0.4,0.5-0.8,0.6-1.3c0-0.2,0.1-0.4,0-0.6c0,0,0,0,0,0c0-0.2-0.1-0.5-0.1-0.7
				c-0.1-0.2-0.2-0.4-0.3-0.6c-0.1-0.2-0.3-0.3-0.4-0.5C10,0.3,9.6,0.1,9.1,0C8.9,0,8.8,0,8.6,0z"/>
			<path class="st0" d="M15.1,16.8c-0.8,0-1.5-0.7-1.5-1.5c0-2.8-2.2-5-5-5c-2.8,0-5,2.2-5,5c0,0.8-0.7,1.5-1.5,1.5
				s-1.5-0.7-1.5-1.5c0-4.4,3.6-8,8-8c4.4,0,8,3.6,8,8C16.6,16.1,15.9,16.8,15.1,16.8z"/>
		</g>
		<g id="Group_355" transform="translate(53.688)">
			<path class="st0" d="M-0.5,8.2c-0.3,0-0.7,0-1-0.1c-1-0.2-1.9-0.6-2.7-1.3c-0.3-0.3-0.6-0.6-0.9-1c-0.3-0.4-0.5-0.9-0.7-1.4
				C-6,4-6.1,3.5-6.1,3c0-0.5,0-0.9,0.1-1.4c0.2-1,0.6-1.9,1.3-2.7c0.6-0.7,1.4-1.3,2.4-1.6C-1.9-2.9-1.4-3-0.8-3
				c0.4,0,0.9,0,1.3,0.1c1,0.2,1.9,0.6,2.7,1.3c0.3,0.3,0.6,0.6,0.9,1c0.3,0.4,0.5,0.9,0.7,1.3c0.2,0.5,0.3,1,0.3,1.5
				c0,0.4,0,0.9-0.1,1.3c-0.2,1-0.6,1.9-1.3,2.7C3.4,6.7,3,7,2.6,7.2c-0.8,0.6-1.8,0.9-2.8,1C-0.3,8.2-0.4,8.2-0.5,8.2z M-0.5,0
				c0,0-0.1,0-0.1,0c-0.3,0-0.5,0.1-0.7,0.1c-0.4,0.1-0.8,0.4-1.1,0.7C-2.8,1.2-3,1.7-3.1,2.1c0,0.2-0.1,0.4,0,0.6
				C-3.1,3-3.1,3.2-3,3.5c0.1,0.2,0.2,0.4,0.3,0.6c0.1,0.2,0.3,0.3,0.4,0.5C-1.9,4.9-1.5,5.1-1,5.2c0.2,0,0.4,0.1,0.6,0
				c0.5,0,0.9-0.2,1.3-0.4c0.2-0.1,0.3-0.3,0.5-0.4C1.7,4,1.9,3.6,2,3.1c0-0.2,0.1-0.4,0-0.6c0,0,0,0,0,0C2.1,2.2,2,2,1.9,1.8
				C1.9,1.5,1.7,1.3,1.6,1.1C1.5,1,1.4,0.8,1.2,0.7C0.8,0.3,0.4,0.1-0.1,0C-0.2,0-0.4,0-0.5,0z"/>
			<path class="st0" d="M5.9,16.8c-0.8,0-1.5-0.7-1.5-1.5c0-2.8-2.2-5-5-5c-2.8,0-5,2.2-5,5c0,0.8-0.7,1.5-1.5,1.5s-1.5-0.7-1.5-1.5
				c0-4.4,3.6-8,8-8s8,3.6,8,8C7.4,16.1,6.8,16.8,5.9,16.8z"/>
		</g>
	</g>
</g>
</svg>
