<?xml version="1.0" encoding="utf-8"?>
<!-- Generator: Adobe Illustrator 24.3.0, SVG Export Plug-In . SVG Version: 6.00 Build 0)  -->
<!DOCTYPE svg PUBLIC "-//W3C//DTD SVG 1.1//EN" "http://www.w3.org/Graphics/SVG/1.1/DTD/svg11.dtd" [
	<!ENTITY ns_extend "http://ns.adobe.com/Extensibility/1.0/">
	<!ENTITY ns_ai "http://ns.adobe.com/AdobeIllustrator/10.0/">
	<!ENTITY ns_graphs "http://ns.adobe.com/Graphs/1.0/">
	<!ENTITY ns_vars "http://ns.adobe.com/Variables/1.0/">
	<!ENTITY ns_imrep "http://ns.adobe.com/ImageReplacement/1.0/">
	<!ENTITY ns_sfw "http://ns.adobe.com/SaveForWeb/1.0/">
	<!ENTITY ns_custom "http://ns.adobe.com/GenericCustomNamespace/1.0/">
	<!ENTITY ns_adobe_xpath "http://ns.adobe.com/XPath/1.0/">
]>
<svg version="1.1" id="Layer_1" xmlns:x="&ns_extend;" xmlns:i="&ns_ai;" xmlns:graph="&ns_graphs;"
	 xmlns="http://www.w3.org/2000/svg" xmlns:xlink="http://www.w3.org/1999/xlink" x="0px" y="0px" viewBox="0 0 65 65"
	 style="enable-background:new 0 0 65 65;" xml:space="preserve">
<style type="text/css">
	.st0{fill:#66913D;}
	.st1{fill:none;stroke:#66913D;stroke-width:3;stroke-linecap:round;stroke-linejoin:round;}
	.st2{fill:none;}
	.st3{fill:#FFFFFF;}
	.st4{fill:#2F2F2F;}
	.st5{fill:#707070;}
</style>
<metadata>
	<sfw  xmlns="&ns_sfw;">
		<slices></slices>
		<sliceSourceBounds  bottomLeftOrigin="true" height="455.9" width="404.2" x="0.6" y="-456.3"></sliceSourceBounds>
	</sfw>
</metadata>
<g id="Group_13717" transform="translate(-9.115 -23.888)">
	<g id="vhhYAN" transform="translate(10.597 25.42)">
		<g id="Group_13716">
			<path class="st3" d="M26,52.3c-1.4,0-2.7-0.6-3.6-1.7c-0.3-0.3-0.5-0.7-0.7-1.1c-2.1,0.8-4.6-0.1-5.7-2.2
				c-0.2-0.4-0.4-0.8-0.5-1.3c-0.7-0.2-1.3-0.5-1.9-0.9c-1-0.8-1.6-1.9-1.7-3.2c-0.1-0.9,0.1-1.7,0.4-2.5c-0.1-0.1-0.2-0.2-0.3-0.3
				c0,0,0-0.1-0.1-0.1c-1.4-2.1-0.9-5,1.2-6.4c0.2-0.1,0.4-0.3,0.6-0.4c1-0.5,2-1,3.1-1.5l2.3-1.1c0.7-0.4,1.6,0,2,0.7s0,1.6-0.7,2
				l-2.3,1.1c-1,0.5-2,1-3.1,1.5C15,35,15,35.1,14.9,35.1c-0.7,0.5-0.9,1.5-0.4,2.2c0.2,0.3,0.5,0.6,0.8,0.8
				c0.3,0.3,0.5,0.6,0.5,1.1c0,0.4-0.1,0.8-0.4,1.1c-0.3,0.4-0.5,0.8-0.4,1.3c0,0.4,0.3,0.9,0.6,1.1c0.4,0.3,0.8,0.4,1.2,0.4
				c0.8-0.1,1.5,0.5,1.6,1.3c0,0.1,0,0.2,0,0.3c0,0.1,0,0.1,0,0.2c0,0.3,0,0.7,0.2,1c0.4,0.8,1.4,1.1,2.2,0.7
				c0.3-0.2,0.6-0.3,0.9-0.4l0.4-0.2c0.5-0.2,1.1-0.2,1.5,0.1c0.4,0.3,0.7,0.8,0.6,1.4c0,0.4,0.1,0.9,0.4,1.2
				c0.5,0.6,1.4,0.8,2.1,0.4c4.3-2.1,8.5-4.2,12.8-6.2c2.2-1,4.4-2.3,6.4-3.7c1.7-1.3,3.4-2.7,4.9-4.2c-0.1-0.1-0.1-0.1-0.2-0.2
				c-0.2-0.3-0.3-0.7-0.2-1c-1.8-3.6-3.5-7.1-5.2-10.7c-1-2.1-2-4.2-3.1-6.2c-0.3-0.5-0.4-1.1-0.3-1.6c0.1-0.6,0.5-1.1,1-1.4
				c0.1-0.1,0.3-0.2,0.4-0.2c2.4-1.2,4.7-2.3,7.1-3.5c1-0.6,2.4-0.4,3.1,0.6c0.1,0.2,0.2,0.3,0.3,0.5l8.7,17.8
				c0.3,0.5,0.4,1,0.3,1.5c-0.1,0.6-0.4,1.1-0.9,1.5c-0.2,0.1-0.4,0.2-0.6,0.3c-0.6,0.3-1.1,0.6-1.7,0.8c-1.4,0.7-2.9,1.5-4.5,2.1
				c-0.7,0.4-1.4,0.9-2,1.5c-1.8,1.7-3.6,3.3-5.6,4.7c-2.2,1.5-4.5,2.8-6.9,3.9c-4.2,2-8.4,4.1-12.7,6.2
				C27.5,52.1,26.8,52.3,26,52.3z M53.4,32.8c0,0,0,0.1,0.1,0.1c0.2-0.1,0.3-0.2,0.5-0.3c1.5-0.7,3-1.4,4.4-2.1
				c0.4-0.2,0.8-0.4,1.3-0.6L51.3,13c-2,1-4.1,2-6.1,3c0.9,1.9,1.9,3.8,2.8,5.7C49.8,25.5,51.6,29.2,53.4,32.8z M51.2,32.7
				C51.2,32.7,51.2,32.7,51.2,32.7C51.2,32.7,51.2,32.7,51.2,32.7z M44.4,16.4C44.4,16.4,44.4,16.4,44.4,16.4
				C44.4,16.4,44.4,16.4,44.4,16.4z"/>
			<path class="st3" d="M9.3,36.1c-0.4,0-0.8-0.1-1-0.2L1,33.4c-0.4-0.1-1.3-0.4-1.7-1.3c-0.4-0.8-0.1-1.6,0-2.1
				c1-2.8,1.9-5.7,2.9-8.5l3.5-10.2c0.1-0.5,0.4-1,0.9-1.3c0.5-0.4,1.1-0.5,1.7-0.4c0.2,0,0.4,0.1,0.6,0.2c2.5,0.8,5,1.7,7.5,2.6
				c0.3,0.1,0.5,0.2,0.8,0.3c0.4,0.2,0.8,0.3,1.2,0.4c0.6,0.2,1.3,0.1,1.8-0.2c1.9-1.1,4.2-1.4,6.3-0.7c5.1,1.7,10.2,3.5,15.3,5.3
				c1.5,0.5,1.7,1.6,1.6,2.5c-0.1,1.3-0.5,2.5-1.2,3.6c-1.2,1.7-3.2,2.6-5.2,2.2C36,25.6,35,25.2,34,24.9c-0.4-0.1-0.7-0.3-1.1-0.4
				c-0.7-0.2-1.4-0.5-2.1-0.7c-0.4,0.6-0.8,1.3-1.2,1.9c-2.2,3.1-6,4.6-9.7,4C19,29.5,18,29.2,17.1,29c-1.1-0.2-1.9-1.5-1.6-2.7
				c0,0,0,0,0,0c0.2-0.8,0.9-1.3,1.7-1.1c0.6,0.1,1.1,0.5,1.2,1.1c0.7,0.2,1.4,0.3,2,0.4c2.6,0.5,5.2-0.6,6.7-2.7
				c0.6-0.8,1.1-1.8,1.7-2.7c0.4-0.6,1.1-0.9,1.8-0.7l1,0.3c0.7,0.3,1.5,0.5,2.2,0.8c0.4,0.1,0.8,0.3,1.2,0.4
				c0.9,0.3,1.7,0.6,2.5,0.7c1,0.2,1.9-0.2,2.4-0.9c0.3-0.5,0.6-1.1,0.7-1.7c-5-1.7-9.9-3.4-14.8-5.1c-1.3-0.4-2.7-0.3-3.9,0.4
				c-1.3,0.7-2.7,0.9-4.1,0.6c0,0,0,0,0,0.1l-0.2,0.5c-0.1,0.3-0.2,0.6-0.3,0.9l-5.8,16.9c-0.1,0.3-0.4,1.1-1.2,1.5
				C9.9,36.1,9.6,36.1,9.3,36.1z M2.3,30.7l6.5,2.2l5.6-16.4c0.1-0.3,0.2-0.6,0.3-1l0.2-0.5c0,0,0,0,0,0c-2.2-0.7-4.3-1.5-6.5-2.2
				l-3.3,9.7C4.2,25.3,3.3,28,2.3,30.7z M17.8,26.1C17.9,26.1,17.9,26.1,17.8,26.1C17.9,26.1,17.9,26.1,17.8,26.1z"/>
		</g>
	</g>
	<path class="st3" d="M25,66.2c-0.6,0-1.1-0.3-1.4-0.9c-0.3-0.8,0-1.6,0.8-2l11.3-4.9c0.8-0.3,1.6,0,2,0.8c0.3,0.8,0,1.6-0.8,2
		l-11.3,4.9C25.4,66.1,25.2,66.2,25,66.2z"/>
	<path class="st3" d="M27.6,71.4c-0.5,0-1.1-0.3-1.3-0.8c-0.4-0.7-0.1-1.6,0.6-2l12-6.4c0.7-0.4,1.6-0.1,2,0.6
		c0.4,0.7,0.1,1.6-0.6,2l-12,6.4C28.1,71.4,27.9,71.4,27.6,71.4z"/>
	<path class="st3" d="M33.6,74.2c-0.5,0-1.1-0.3-1.3-0.8c-0.4-0.7-0.1-1.6,0.7-2l8.9-4.5c0.7-0.4,1.6-0.1,2,0.7
		c0.4,0.7,0.1,1.6-0.7,2L34.3,74C34.1,74.1,33.8,74.2,33.6,74.2z"/>
</g>
</svg>
