<?xml version="1.0" encoding="utf-8"?>
<!-- Generator: Adobe Illustrator 24.3.0, SVG Export Plug-In . SVG Version: 6.00 Build 0)  -->
<!DOCTYPE svg PUBLIC "-//W3C//DTD SVG 1.1//EN" "http://www.w3.org/Graphics/SVG/1.1/DTD/svg11.dtd" [
	<!ENTITY ns_extend "http://ns.adobe.com/Extensibility/1.0/">
	<!ENTITY ns_ai "http://ns.adobe.com/AdobeIllustrator/10.0/">
	<!ENTITY ns_graphs "http://ns.adobe.com/Graphs/1.0/">
	<!ENTITY ns_vars "http://ns.adobe.com/Variables/1.0/">
	<!ENTITY ns_imrep "http://ns.adobe.com/ImageReplacement/1.0/">
	<!ENTITY ns_sfw "http://ns.adobe.com/SaveForWeb/1.0/">
	<!ENTITY ns_custom "http://ns.adobe.com/GenericCustomNamespace/1.0/">
	<!ENTITY ns_adobe_xpath "http://ns.adobe.com/XPath/1.0/">
]>
<svg version="1.1" id="Layer_1" xmlns:x="&ns_extend;" xmlns:i="&ns_ai;" xmlns:graph="&ns_graphs;"
	 xmlns="http://www.w3.org/2000/svg" xmlns:xlink="http://www.w3.org/1999/xlink" x="0px" y="0px" viewBox="0 0 65 65"
	 style="enable-background:new 0 0 65 65;" xml:space="preserve">
<style type="text/css">
	.st0{fill:#66913D;}
	.st1{fill:none;stroke:#66913D;stroke-width:3;stroke-linecap:round;stroke-linejoin:round;}
	.st2{fill:none;}
	.st3{fill:#FFFFFF;}
	.st4{fill:#2F2F2F;}
	.st5{fill:#707070;}
</style>
<metadata>
	<sfw  xmlns="&ns_sfw;">
		<slices></slices>
		<sliceSourceBounds  bottomLeftOrigin="true" height="455.9" width="404.2" x="0.6" y="-456.3"></sliceSourceBounds>
	</sfw>
</metadata>
<g id="Group_364" transform="translate(-14.812 -13.421)">
	<g id="Group_363" transform="translate(29.387 26.016)">
		<path class="st0" d="M35,6.2H11.1c-0.8,0-1.5-0.7-1.5-1.5s0.7-1.5,1.5-1.5H35c0.8,0,1.5,0.7,1.5,1.5S35.8,6.2,35,6.2z"/>
		<path class="st0" d="M5.9,6.2H0.9C0,6.2-0.6,5.6-0.6,4.7S0,3.2,0.9,3.2h5.1c0.8,0,1.5,0.7,1.5,1.5S6.8,6.2,5.9,6.2z"/>
		<path class="st0" d="M35,14.5h-5.5c-0.8,0-1.5-0.7-1.5-1.5s0.7-1.5,1.5-1.5H35c0.8,0,1.5,0.7,1.5,1.5S35.8,14.5,35,14.5z"/>
		<path class="st0" d="M24.3,14.5H0.9c-0.8,0-1.5-0.7-1.5-1.5s0.7-1.5,1.5-1.5h23.5c0.8,0,1.5,0.7,1.5,1.5S25.2,14.5,24.3,14.5z"/>
		<path class="st0" d="M35,24H12.9c-0.8,0-1.5-0.7-1.5-1.5S12,21,12.9,21H35c0.8,0,1.5,0.7,1.5,1.5S35.8,24,35,24z"/>
		<path class="st0" d="M7.7,24H0.9c-0.8,0-1.5-0.7-1.5-1.5S0,21,0.9,21h6.8c0.8,0,1.5,0.7,1.5,1.5S8.5,24,7.7,24z"/>
	</g>
	<path class="st0" d="M73.1,61.6H21.5c-3.4,0-6.2-2.8-6.2-6.2V24c0-3.4,2.8-6.2,6.2-6.2c0,0,0,0,0,0h51.6c3.4,0,6.2,2.8,6.2,6.2
		v31.3C79.3,58.8,76.5,61.6,73.1,61.6z M21.5,20.9c-1.8,0-3.2,1.4-3.2,3.2v31.3c0,1.8,1.4,3.2,3.2,3.2h51.6c1.8,0,3.2-1.4,3.2-3.2
		V24c0-1.8-1.4-3.2-3.2-3.2H21.5z"/>
	<path class="st0" d="M47.3,69.8c-0.8,0-1.5-0.7-1.5-1.5v-8.1c0-0.8,0.7-1.5,1.5-1.5s1.5,0.7,1.5,1.5v8.1
		C48.8,69.1,48.1,69.8,47.3,69.8z"/>
	<path class="st0" d="M30.3,74c-0.5,0-1-0.3-1.3-0.7c-0.4-0.7-0.2-1.6,0.5-2.1l6.8-4.2c0.2-0.1,0.5-0.2,0.8-0.2h21.8
		c0.3,0,0.6,0.1,0.9,0.3l5.5,4.2c0.7,0.5,0.8,1.4,0.3,2.1c-0.5,0.7-1.4,0.8-2.1,0.3l-5.1-3.9H37.5l-6.5,4C30.8,73.9,30.5,74,30.3,74
		z"/>
</g>
</svg>
