<?xml version="1.0" encoding="utf-8"?>
<!-- Generator: Adobe Illustrator 24.3.0, SVG Export Plug-In . SVG Version: 6.00 Build 0)  -->
<!DOCTYPE svg PUBLIC "-//W3C//DTD SVG 1.1//EN" "http://www.w3.org/Graphics/SVG/1.1/DTD/svg11.dtd" [
	<!ENTITY ns_extend "http://ns.adobe.com/Extensibility/1.0/">
	<!ENTITY ns_ai "http://ns.adobe.com/AdobeIllustrator/10.0/">
	<!ENTITY ns_graphs "http://ns.adobe.com/Graphs/1.0/">
	<!ENTITY ns_vars "http://ns.adobe.com/Variables/1.0/">
	<!ENTITY ns_imrep "http://ns.adobe.com/ImageReplacement/1.0/">
	<!ENTITY ns_sfw "http://ns.adobe.com/SaveForWeb/1.0/">
	<!ENTITY ns_custom "http://ns.adobe.com/GenericCustomNamespace/1.0/">
	<!ENTITY ns_adobe_xpath "http://ns.adobe.com/XPath/1.0/">
]>
<svg version="1.1" id="Layer_1" xmlns:x="&ns_extend;" xmlns:i="&ns_ai;" xmlns:graph="&ns_graphs;"
	 xmlns="http://www.w3.org/2000/svg" xmlns:xlink="http://www.w3.org/1999/xlink" x="0px" y="0px" viewBox="0 0 65 65"
	 style="enable-background:new 0 0 65 65;" xml:space="preserve">
<style type="text/css">
	.st0{fill:#66913D;}
	.st1{fill:none;stroke:#66913D;stroke-width:3;stroke-linecap:round;stroke-linejoin:round;}
	.st2{fill:none;}
	.st3{fill:#FFFFFF;}
	.st4{fill:#2F2F2F;}
	.st5{fill:#707070;}
</style>
<metadata>
	<sfw  xmlns="&ns_sfw;">
		<slices></slices>
		<sliceSourceBounds  bottomLeftOrigin="true" height="455.9" width="404.2" x="0.6" y="-456.3"></sliceSourceBounds>
	</sfw>
</metadata>
<g id="BiCKL_symboll" transform="translate(-10.855 -12)">
	<g id="Group_387" transform="translate(12.372 13.5)">
		<g id="Group_386" transform="translate(0 0)">
			<g id="Group_385">
				<path class="st0" d="M10.4,21.6L9.8,21l-1.6-0.5l0.1-0.2l-0.4,0c0-0.1,0-0.3,0-0.4c0-0.2,0-0.4,0.1-0.6l-0.8-0.2
					c0.3-1.5,0.6-2.3,1.1-3.8c0.3-0.7,0.6-1.5,1-2.2c0.2-0.4,0.4-0.8,0.7-1.2l0.6-0.9c0.8-1.4,9.3-12,19.4-12c0,0,0,0,0,0
					c4,0,7.4,3.1,7.7,7.2l0,0.5l0,0.1c0,0.2,0,0.4,0,0.7c0,0.3-0.1,0.5-0.1,0.8c-0.1,0.3-0.1,0.5-0.2,0.8c-1,3.2-4,5.4-7.4,5.4
					c-0.6,0-2.1-0.1-3.7-0.2l-0.9-0.1c-0.5,0-1.1-0.1-1.6,0c-6.1,0.1-11.1,4.4-12.6,5.9L11,21.4l-0.3-0.1
					C10.6,21.4,10.5,21.5,10.4,21.6z M8.5,20.4c0.1,0.1,0.2,0.2,0.2,0.2c0.1,0,0.3,0.1,0.7-0.1l0,0l-0.8-1l0-0.1l-0.1,0v0l-0.4-0.1
					c0,0.4,0.1,0.7,0.2,0.9l0.2-0.7l0.8,1L8.5,20.4z M29.9,2C29.9,2,29.9,2,29.9,2c-8.5,0-16.3,9.5-16.9,10.6l-0.7,1
					c-0.2,0.3-0.3,0.5-0.4,0.8c-0.2,0.5-0.5,1-0.7,1.5c2.7-2.1,7.1-4.7,12.3-4.8c0.6,0,1.3,0,1.9,0.1c0.2,0,0.5,0,0.9,0.1
					c1.1,0.1,2.9,0.2,3.4,0.2c2.1,0,3.9-1.3,4.5-3.3c0.1-0.2,0.1-0.3,0.1-0.5c0-0.1,0-0.3,0.1-0.5c0-0.1,0-0.2,0-0.3l0-0.1l0-0.3
					C34.4,3.9,32.4,2,29.9,2z"/>
				<path class="st0" d="M13.6,52.2l-1.2-0.6c-1.2-0.7-2.4-1.4-3.5-2.2c-0.4-0.3-0.7-0.6-1-0.8c-0.3-0.2-0.5-0.5-0.8-0.7
					c-0.4-0.3-0.7-0.6-1-1L5.3,46c-1.1-1.2-8.8-12.5-6-22.1c1.2-3.9,5.2-6.2,9.1-5.3l0.1,0c0,0,0.1,0,0.1,0c0,0,0.1,0,0.1,0h0
					l0.3,0.1c0.2,0.1,0.4,0.1,0.5,0.2H10l0.3,0.3c0.1,0,0.1,0,0.1,0.1c3.2,1.8,4.8,5.6,3.8,9c-0.2,0.5-0.6,1.6-1,2.6
					c-0.3,0.7-0.5,1.3-0.6,1.6l0,0.1c-0.1,0.3-0.2,0.6-0.3,0.9c-0.1,0.2-0.1,0.4-0.2,0.6c-1.7,5.9,2,12.4,3.1,14.3l0.7,1.1l-1,0.8
					c0,0-0.1,0.1-0.1,0.1c-0.2,0.2-0.3,0.4-0.4,0.5L13.6,52.2z M6.8,21.4c-2,0-3.9,1.3-4.5,3.4C-0.2,32.9,6.6,42.9,7.6,44l0.8,0.9
					c0.2,0.3,0.4,0.4,0.6,0.6c0.3,0.3,0.6,0.5,0.9,0.7c0.3,0.3,0.6,0.5,0.9,0.8c0.1,0.1,0.2,0.2,0.4,0.3c-1.7-3.5-3.4-8.7-1.9-13.9
					c0.1-0.2,0.1-0.4,0.2-0.6c0.1-0.4,0.2-0.8,0.4-1.2c0.1-0.3,0.4-1,0.6-1.7c0.3-0.9,0.8-2,0.9-2.4C11.9,25.4,11,23,9,22
					c-0.1,0-0.2-0.1-0.2-0.1c-0.2-0.1-0.3-0.1-0.5-0.2h0L8,21.6c-0.1,0-0.2,0-0.3-0.1C7.4,21.4,7.1,21.4,6.8,21.4z"/>
				<path class="st0" d="M24.1,63c-3.4,0-7-0.6-10-2.5c-3.4-2.1-4.7-6.6-2.8-10.1l0.1-0.1c0,0,0.1-0.1,0.1-0.1l0.1-0.3
					c0-0.1,0.1-0.2,0.1-0.2l0.2-0.3c0.2-0.2,0.4-0.5,0.6-0.7l0.4-0.4c2.6-2.4,6.4-2.7,9.3-0.9c0.5,0.3,1.5,1,2.8,1.9
					c0.4,0.3,0.8,0.6,1,0.7c0.3,0.2,0.6,0.4,0.8,0.6c0.2,0.1,0.4,0.2,0.6,0.4c5.3,3.1,12.5,1.3,14.5,0.7l1.5-0.4l0.4,1.5
					c0,0.2,0.1,0.3,0.2,0.5c0.1,0.1,0.1,0.2,0.2,0.3l0.6,1.1L44,55.3c-0.9,1-1.8,1.8-2.9,2.6c-0.5,0.4-1,0.7-1.5,1.1l-0.4,0.3
					c-0.3,0.2-0.8,0.5-1.2,0.7l-1,0.5C36,60.9,30.3,63,24.1,63z M13.9,51.8c-1.1,2.2-0.3,4.9,1.7,6.1c7.2,4.4,18.8,0.4,19.9-0.2
					l1.1-0.5c0.3-0.1,0.5-0.3,0.7-0.4l0.5-0.3c0.5-0.3,0.9-0.6,1.4-0.9c0.1-0.1,0.3-0.2,0.4-0.3c-3.6,0.7-9.2,1-13.9-1.7
					c-0.2-0.2-0.4-0.3-0.6-0.4c-0.3-0.2-0.7-0.4-1-0.7c-0.2-0.1-0.5-0.4-1-0.7c-0.9-0.6-2.2-1.5-2.6-1.8c-1.8-1.1-4.1-0.9-5.7,0.5
					l-0.3,0.3c-0.1,0.1-0.2,0.2-0.3,0.4c0,0-0.1,0.1-0.1,0.1L14,51.6C14,51.7,14,51.7,13.9,51.8z"/>
				<path class="st0" d="M48.3,58.9c-2.2,0-4.4-0.9-5.9-2.7L42.3,56c0,0,0,0-0.1-0.1L42,55.7c-0.1-0.1-0.2-0.2-0.2-0.3
					c0-0.1-0.1-0.1-0.1-0.2L41.5,55c-0.1-0.2-0.3-0.5-0.4-0.7c-0.1-0.2-0.2-0.6-0.3-0.9c-0.9-3.1,0.2-6.5,2.9-8.4
					c0.5-0.3,1.6-1,2.5-1.6c0.6-0.4,1.1-0.7,1.3-0.8c0.5-0.3,0.9-0.6,1.3-0.9c4.9-3.7,6-10.8,6.2-12.9l0.1-1l1.2-0.3
					c0.2-0.1,0.4-0.1,0.6-0.2v0c0,0,0.1,0,0.1,0l0.2-0.1l1.4-0.8l0.7,1.5c0.6,1.2,1,2.5,1.3,3.8c0.2,0.7,0.3,1.4,0.5,2.1l0,0.2
					c0.1,0.4,0.2,0.9,0.2,1.4l0.1,1.1c0.2,1.5-0.5,15.3-8.7,21.1l0,0C51.4,58.4,49.8,58.9,48.3,58.9z M44.7,54.2
					c1.6,1.9,4.4,2.2,6.4,0.8l0,0c6.9-5,7.6-17.2,7.4-18.4l-0.1-1.2c0-0.4,0-0.6-0.1-0.9l-0.1-0.2c-0.1-0.7-0.3-1.3-0.4-1.9
					c0-0.1-0.1-0.3-0.1-0.4c-0.8,3.5-2.6,8.9-6.9,12.1c-0.5,0.4-1,0.7-1.6,1.1c-0.2,0.1-0.7,0.5-1.4,0.9c-0.9,0.5-2,1.2-2.4,1.5
					c-1.6,1.2-2.3,3.3-1.7,5.2c0.1,0.2,0.1,0.4,0.2,0.5c0.1,0.2,0.1,0.3,0.2,0.3c0.1,0.1,0.1,0.2,0.2,0.3c0,0.1,0.1,0.1,0.1,0.2l0,0
					c0,0,0,0,0,0.1l0.1,0.2C44.6,54.2,44.6,54.2,44.7,54.2z"/>
				<path class="st0" d="M55.5,30.4c-3.2,0-6.1-2-7.3-5c-0.2-0.5-0.5-1.6-0.8-2.7c-0.2-0.7-0.4-1.4-0.5-1.7l0-0.1
					c-0.1-0.4-0.2-0.7-0.3-1l-0.2-0.5c-2.3-5.8-9-8.7-11.1-9.5L34,9.4L34.5,8c0-0.1,0.1-0.3,0.1-0.4c0-0.2,0-0.3,0.1-0.5l0.1-1.1
					l1.1-0.2c1.3-0.2,2.7-0.3,4-0.3c0.5,0,1.1,0.1,1.6,0.1l0.8,0.1c0.4,0,0.9,0.1,1.4,0.2L44.7,6c1.7,0.3,14.6,4.6,18.1,14
					c1.3,3.8-0.4,7.9-3.9,9.7c-0.1,0.1-0.2,0.1-0.3,0.2c-0.2,0.1-0.3,0.1-0.4,0.2c-0.3,0.1-0.7,0.2-1,0.3c-0.1,0-0.3,0.1-0.4,0.1
					C56.3,30.4,55.9,30.4,55.5,30.4z M49.8,20.1c0.1,0.3,0.3,1,0.5,1.7c0.3,0.9,0.6,2.1,0.8,2.5c0.8,2.1,2.9,3.3,5.1,3l0.1,0
					c0.1,0,0.1,0,0.2,0v-0.4l1.2,0c2.1-1.1,3.1-3.6,2.3-5.9C57,13.1,45.4,9.1,44.2,8.9L43,8.7c-0.3-0.1-0.6-0.1-0.9-0.1l-0.8-0.1
					c-0.5,0-1-0.1-1.4-0.1c-0.2,0-0.4,0-0.5,0c3.3,1.7,7.9,4.9,9.9,10l0.2,0.5C49.5,19.2,49.7,19.6,49.8,20.1z M57.3,27.1
					C57.3,27.1,57.3,27.1,57.3,27.1L57.3,27.1z"/>
			</g>
		</g>
	</g>
</g>
</svg>
