<?xml version="1.0" encoding="utf-8"?>
<!-- Generator: Adobe Illustrator 24.3.0, SVG Export Plug-In . SVG Version: 6.00 Build 0)  -->
<!DOCTYPE svg PUBLIC "-//W3C//DTD SVG 1.1//EN" "http://www.w3.org/Graphics/SVG/1.1/DTD/svg11.dtd" [
	<!ENTITY ns_extend "http://ns.adobe.com/Extensibility/1.0/">
	<!ENTITY ns_ai "http://ns.adobe.com/AdobeIllustrator/10.0/">
	<!ENTITY ns_graphs "http://ns.adobe.com/Graphs/1.0/">
	<!ENTITY ns_vars "http://ns.adobe.com/Variables/1.0/">
	<!ENTITY ns_imrep "http://ns.adobe.com/ImageReplacement/1.0/">
	<!ENTITY ns_sfw "http://ns.adobe.com/SaveForWeb/1.0/">
	<!ENTITY ns_custom "http://ns.adobe.com/GenericCustomNamespace/1.0/">
	<!ENTITY ns_adobe_xpath "http://ns.adobe.com/XPath/1.0/">
]>
<svg version="1.1" id="Layer_1" xmlns:x="&ns_extend;" xmlns:i="&ns_ai;" xmlns:graph="&ns_graphs;"
	 xmlns="http://www.w3.org/2000/svg" xmlns:xlink="http://www.w3.org/1999/xlink" x="0px" y="0px" viewBox="0 0 65 65"
	 style="enable-background:new 0 0 65 65;" xml:space="preserve">
<style type="text/css">
	.st0{fill:#66913D;}
	.st1{fill:none;stroke:#66913D;stroke-width:3;stroke-linecap:round;stroke-linejoin:round;}
	.st2{fill:none;}
	.st3{fill:#FFFFFF;}
	.st4{fill:#2F2F2F;}
	.st5{fill:#707070;}
</style>
<metadata>
	<sfw  xmlns="&ns_sfw;">
		<slices></slices>
		<sliceSourceBounds  bottomLeftOrigin="true" height="455.9" width="404.2" x="0.6" y="-456.3"></sliceSourceBounds>
	</sfw>
</metadata>
<g id="Group_336" transform="translate(1.5 1.5)">
	<path class="st3" d="M44,41.3H18c-1.2,0-2.3-1-2.3-2.3V22.9c0-1.2,1-2.3,2.3-2.3h26c1.2,0,2.3,1,2.3,2.3v16.2
		C46.2,40.3,45.2,41.3,44,41.3z M18.8,38.3h24.5V23.7H18.8V38.3z"/>
	<path class="st3" d="M30.6,35.3c-1,0-2-0.4-2.8-1.1L16.5,23.5l2.1-2.2L29.9,32c0.4,0.4,1,0.4,1.4,0l12.1-10.8l2,2.2L33.3,34.3
		C32.6,35,31.6,35.3,30.6,35.3z"/>
	<rect x="16" y="34.2" transform="matrix(0.7591 -0.651 0.651 0.7591 -17.8884 23.003)" class="st3" width="12.2" height="3"/>
	<rect x="38" y="28.9" transform="matrix(0.6509 -0.7592 0.7592 0.6509 -13.0657 42.3846)" class="st3" width="3" height="13"/>
	<path class="st3" d="M33.3,26.4h-4.7c-1.2,0-2.2-1-2.2-2.2v-3.5h9.1v3.5C35.5,25.4,34.5,26.4,33.3,26.4z"/>
</g>
</svg>
