<?xml version="1.0" encoding="utf-8"?>
<!-- Generator: Adobe Illustrator 24.3.0, SVG Export Plug-In . SVG Version: 6.00 Build 0)  -->
<!DOCTYPE svg PUBLIC "-//W3C//DTD SVG 1.1//EN" "http://www.w3.org/Graphics/SVG/1.1/DTD/svg11.dtd" [
	<!ENTITY ns_extend "http://ns.adobe.com/Extensibility/1.0/">
	<!ENTITY ns_ai "http://ns.adobe.com/AdobeIllustrator/10.0/">
	<!ENTITY ns_graphs "http://ns.adobe.com/Graphs/1.0/">
	<!ENTITY ns_vars "http://ns.adobe.com/Variables/1.0/">
	<!ENTITY ns_imrep "http://ns.adobe.com/ImageReplacement/1.0/">
	<!ENTITY ns_sfw "http://ns.adobe.com/SaveForWeb/1.0/">
	<!ENTITY ns_custom "http://ns.adobe.com/GenericCustomNamespace/1.0/">
	<!ENTITY ns_adobe_xpath "http://ns.adobe.com/XPath/1.0/">
]>
<svg version="1.1" id="Layer_1" xmlns:x="&ns_extend;" xmlns:i="&ns_ai;" xmlns:graph="&ns_graphs;"
	 xmlns="http://www.w3.org/2000/svg" xmlns:xlink="http://www.w3.org/1999/xlink" x="0px" y="0px" viewBox="0 0 65 65"
	 style="enable-background:new 0 0 65 65;" xml:space="preserve">
<style type="text/css">
	.st0{fill:#66913D;}
	.st1{fill:none;stroke:#66913D;stroke-width:3;stroke-linecap:round;stroke-linejoin:round;}
	.st2{fill:none;}
	.st3{fill:#FFFFFF;}
	.st4{fill:#2F2F2F;}
	.st5{fill:#707070;}
</style>
<metadata>
	<sfw  xmlns="&ns_sfw;">
		<slices></slices>
		<sliceSourceBounds  bottomLeftOrigin="true" height="455.9" width="404.2" x="0.6" y="-456.3"></sliceSourceBounds>
	</sfw>
</metadata>
<g id="Group_22" transform="translate(247.596 112.102)">
	<path class="st0" d="M-213.3-60.4h-3.7c-1.6,0-2.9-1.3-2.9-2.9v-0.6c0-0.2-0.1-0.4-0.3-0.4c-0.8-0.2-1.6-0.5-2.3-0.9
		c-0.2-0.1-0.4-0.1-0.5,0.1l-0.4,0.4c-1.1,1.1-2.9,1.1-4,0l-2.6-2.6c-0.5-0.5-0.8-1.3-0.8-2c0-0.8,0.3-1.5,0.8-2l0.4-0.4
		c0.1-0.1,0.2-0.3,0.1-0.5c-0.4-0.8-0.7-1.5-1-2.4c-0.1-0.2-0.2-0.3-0.4-0.3c0,0,0,0,0,0h-0.6c-1.6,0-2.9-1.3-2.9-2.9v-3.7
		c0-1.6,1.3-2.9,2.9-2.9h0.6h0c0.2,0,0.3-0.1,0.4-0.3c0.3-0.8,0.6-1.6,1-2.3c0.1-0.1,0-0.3-0.1-0.4l-0.4-0.4c-0.5-0.5-0.8-1.3-0.8-2
		s0.3-1.5,0.8-2l2.6-2.6c1.1-1.1,2.9-1.1,4,0l0.4,0.4c0.1,0.1,0.3,0.2,0.5,0.1c0.7-0.4,1.5-0.7,2.3-1c0.2-0.1,0.3-0.2,0.3-0.4v-0.6
		c0-1.6,1.3-2.9,2.9-2.9h3.7c1.6,0,2.9,1.3,2.9,2.9v0.6c0,0.2,0.1,0.3,0.3,0.4c0.8,0.3,1.6,0.6,2.4,1c0.1,0.1,0.3,0,0.5-0.1l0.4-0.4
		c1.1-1.1,3-1.1,4.1,0l2.6,2.6c1.1,1.1,1.1,2.9,0,4l-0.4,0.4c-0.1,0.1-0.2,0.3-0.1,0.5c0.4,0.7,0.7,1.5,0.9,2.3
		c0.1,0.2,0.2,0.3,0.4,0.3c0,0,0,0,0,0h0.6c1.6,0,2.9,1.3,2.9,2.9v3.7c0,0,0,0,0,0c0,1.6-1.3,2.9-2.9,2.9h-0.6c0,0,0,0,0,0
		c-0.2,0-0.3,0.1-0.4,0.3c-0.3,0.8-0.6,1.6-1,2.4c-0.1,0.1,0,0.3,0.1,0.5l0.4,0.4c0.5,0.5,0.8,1.3,0.8,2c0,0.8-0.3,1.5-0.8,2
		l-2.6,2.6c-1.1,1.1-2.9,1.1-4.1,0l-0.4-0.4c-0.1-0.1-0.3-0.2-0.5-0.1c-0.7,0.4-1.4,0.7-2.2,0.9c-0.2,0-0.3,0.2-0.3,0.4v0.6
		C-210.4-61.7-211.7-60.4-213.3-60.4z M-216.8-63.4h3.4v-0.4c0-1.6,1.1-3,2.7-3.3c0.5-0.1,0.9-0.3,1.3-0.5c1.4-0.9,3.1-0.7,4.2,0.5
		l0.3,0.3l2.4-2.4l-0.3-0.3c-1-1-1.3-2.6-0.6-4c0.3-0.6,0.6-1.3,0.8-1.9c0.5-1.4,1.8-2.4,3.2-2.4c0,0,0,0,0,0h0.5v-3.4h-0.5
		c0,0,0,0,0,0c-1.5,0-2.8-1-3.3-2.4c-0.2-0.6-0.4-1.2-0.8-1.8c-0.7-1.3-0.4-2.9,0.6-3.9l0.3-0.3l-2.4-2.4l-0.3,0.3
		c-1.1,1.1-2.7,1.3-4,0.6c-0.6-0.3-1.2-0.6-1.9-0.8c-1.4-0.4-2.4-1.8-2.4-3.2v-0.5h-3.4v0.5c0,1.5-0.9,2.8-2.4,3.2
		c-0.7,0.2-1.3,0.5-2,0.8c-1.3,0.6-2.9,0.4-3.9-0.7l-0.3-0.3l-2.4,2.4l0.3,0.3c1,1,1.3,2.6,0.7,3.9c-0.3,0.6-0.6,1.2-0.8,1.9
		c-0.4,1.4-1.8,2.4-3.2,2.4c0,0,0,0,0,0h-0.4v3.4h0.4c0,0,0,0,0,0c1.5,0,2.8,0.9,3.2,2.4c0.2,0.7,0.5,1.3,0.8,1.9
		c0.7,1.3,0.4,2.9-0.6,4l-0.3,0.3l2.4,2.4l0.3-0.3c1.1-1.1,2.9-1.3,4.2-0.5c0.4,0.3,0.8,0.4,1.3,0.5c1.5,0.3,2.7,1.7,2.7,3.3V-63.4z
		 M-197.4-77.8L-197.4-77.8L-197.4-77.8z M-215.1-71.6c-0.7,0-1.4-0.1-2.1-0.3c-0.6-0.2-1.3-0.4-1.8-0.8c-1.3-0.7-2.3-1.8-3-3
		c-0.3-0.5-0.6-1.1-0.7-1.7c-0.2-0.7-0.3-1.5-0.3-2.2c0-0.7,0.1-1.4,0.3-2.1c0.2-0.6,0.4-1.3,0.8-1.8c0.7-1.3,1.8-2.3,3.1-3
		c0.5-0.3,1.1-0.6,1.7-0.7c0.7-0.2,1.5-0.3,2.2-0.3c0.7,0,1.5,0.1,2.2,0.3c0.6,0.2,1.2,0.4,1.7,0.7c1.3,0.7,2.3,1.8,3,3.1
		c0.3,0.5,0.6,1.2,0.8,1.8c0.2,0.7,0.3,1.4,0.3,2.1c0,0.7-0.1,1.5-0.3,2.2h0c-0.2,0.6-0.4,1.2-0.7,1.7c-0.7,1.3-1.8,2.3-3.1,3
		c-0.5,0.3-1.2,0.6-1.8,0.8C-213.7-71.7-214.4-71.6-215.1-71.6C-215.1-71.6-215.1-71.6-215.1-71.6z M-215.1-84.6
		c-0.5,0-0.9,0.1-1.3,0.2c-0.4,0.1-0.7,0.3-1.1,0.5c-0.8,0.5-1.5,1.1-1.9,1.9c-0.2,0.4-0.4,0.8-0.5,1.1c-0.1,0.4-0.2,0.9-0.2,1.3
		c0,0.5,0.1,0.9,0.2,1.4c0.1,0.4,0.3,0.7,0.5,1.1c0.5,0.8,1.1,1.5,1.9,1.9c0.4,0.2,0.7,0.4,1.1,0.5c0.4,0.1,0.9,0.2,1.3,0.2
		c0,0,0,0,0,0c0.5,0,0.9-0.1,1.3-0.2c0.4-0.1,0.8-0.3,1.1-0.5c0.8-0.5,1.5-1.1,1.9-1.9c0.2-0.4,0.4-0.7,0.5-1.1c0,0,0,0,0,0
		c0.1-0.4,0.2-0.9,0.2-1.4c0-0.5-0.1-0.9-0.2-1.3c-0.1-0.4-0.3-0.8-0.5-1.1c-0.5-0.8-1.1-1.5-1.9-1.9c-0.4-0.2-0.7-0.4-1.1-0.5
		C-214.2-84.6-214.7-84.6-215.1-84.6C-215.1-84.6-215.1-84.6-215.1-84.6z"/>
	<path class="st0" d="M-215-103.6c-0.2,0-0.5,0-0.7-0.1c-0.7-0.1-1.3-0.4-1.9-0.9c-0.2-0.2-0.4-0.4-0.6-0.7c-0.2-0.3-0.4-0.6-0.5-1
		c-0.1-0.3-0.2-0.7-0.2-1c0-0.3,0-0.7,0.1-1c0.1-0.7,0.4-1.3,0.9-1.9c0.2-0.2,0.4-0.4,0.7-0.6c0.3-0.2,0.6-0.4,1-0.5
		c0.3-0.1,0.7-0.2,1.1-0.2c0.3,0,0.6,0,0.9,0.1c0.7,0.1,1.3,0.4,1.9,0.9c0.2,0.2,0.4,0.4,0.6,0.7c0.2,0.3,0.3,0.6,0.5,0.9
		c0.1,0.3,0.2,0.7,0.2,1.1c0,0.3,0,0.6-0.1,0.9c-0.1,0.7-0.4,1.3-0.9,1.9c-0.2,0.2-0.4,0.4-0.7,0.6c-0.3,0.2-0.6,0.3-0.9,0.5
		c-0.3,0.1-0.7,0.2-1,0.2C-214.8-103.6-214.9-103.6-215-103.6z M-215-108.4C-215-108.4-215-108.4-215-108.4c-0.1,0-0.2,0-0.3,0
		c-0.1,0-0.2,0.1-0.2,0.1c-0.1,0-0.1,0.1-0.1,0.1c-0.1,0.1-0.2,0.3-0.2,0.4c0,0.1,0,0.2,0,0.2c0,0.1,0,0.2,0,0.2
		c0,0.1,0.1,0.1,0.1,0.2c0,0.1,0.1,0.1,0.1,0.2c0.1,0.1,0.3,0.2,0.4,0.2c0.1,0,0.2,0,0.2,0c0.1,0,0.2,0,0.2,0c0.1,0,0.1-0.1,0.2-0.1
		c0.1,0,0.1-0.1,0.1-0.1c0.1-0.1,0.2-0.3,0.2-0.4c0-0.1,0-0.1,0-0.2c0,0,0,0,0,0c0-0.1,0-0.1,0-0.2c0-0.1-0.1-0.1-0.1-0.2
		c0-0.1-0.1-0.1-0.1-0.1c-0.1-0.1-0.3-0.2-0.4-0.2C-214.9-108.4-214.9-108.4-215-108.4z"/>
	<path class="st0" d="M-215-47.8c-0.2,0-0.5,0-0.7-0.1c-0.7-0.1-1.3-0.4-1.9-0.9c-0.2-0.2-0.4-0.4-0.6-0.7c-0.2-0.3-0.4-0.6-0.5-1
		c-0.1-0.3-0.2-0.7-0.2-1c0-0.3,0-0.7,0.1-1c0.1-0.7,0.4-1.3,0.9-1.9c0.2-0.2,0.4-0.4,0.7-0.6c0.3-0.2,0.6-0.4,1-0.5
		c0.3-0.1,0.7-0.2,1.1-0.2c0.3,0,0.6,0,0.9,0.1c0.7,0.1,1.3,0.4,1.9,0.9c0.2,0.2,0.4,0.4,0.6,0.7c0.2,0.3,0.3,0.6,0.5,0.9
		c0.1,0.3,0.2,0.7,0.2,1.1c0,0.3,0,0.6-0.1,0.9c-0.1,0.7-0.4,1.3-0.9,1.9c-0.2,0.2-0.4,0.4-0.7,0.6c-0.3,0.2-0.6,0.3-0.9,0.5
		c-0.3,0.1-0.7,0.2-1,0.2C-214.8-47.8-214.9-47.8-215-47.8z M-215-52.6C-215-52.6-215-52.6-215-52.6c-0.1,0-0.2,0-0.3,0
		c-0.1,0-0.2,0.1-0.2,0.1c-0.1,0-0.1,0.1-0.2,0.1c-0.1,0.1-0.2,0.3-0.2,0.4c0,0.1,0,0.2,0,0.2c0,0.1,0,0.2,0,0.2
		c0,0.1,0.1,0.1,0.1,0.2c0,0.1,0.1,0.1,0.1,0.2c0.1,0.1,0.3,0.2,0.4,0.2c0.1,0,0.2,0,0.2,0c0.1,0,0.2,0,0.2,0c0.1,0,0.1-0.1,0.2-0.1
		c0.1,0,0.1-0.1,0.1-0.1c0.1-0.1,0.2-0.3,0.2-0.4c0-0.1,0-0.1,0-0.2c0,0,0,0,0,0c0-0.1,0-0.1,0-0.2c0-0.1-0.1-0.1-0.1-0.2
		c0-0.1-0.1-0.1-0.1-0.1c-0.1-0.1-0.3-0.2-0.4-0.2C-214.9-52.6-214.9-52.6-215-52.6z"/>
	<path class="st0" d="M-187.4-75.5c-0.2,0-0.5,0-0.7-0.1c-0.7-0.1-1.3-0.4-1.9-0.9c-0.2-0.2-0.4-0.4-0.6-0.7c-0.2-0.3-0.4-0.6-0.5-1
		c-0.1-0.3-0.2-0.7-0.2-1c0-0.3,0-0.6,0.1-1c0.1-0.7,0.4-1.3,0.9-1.9c0.2-0.2,0.4-0.4,0.7-0.6c0.3-0.2,0.6-0.4,1-0.5
		c0.3-0.1,0.7-0.2,1.1-0.2c0.3,0,0.6,0,0.9,0.1c0.7,0.1,1.3,0.4,1.9,0.9c0.2,0.2,0.4,0.4,0.6,0.7c0.2,0.3,0.3,0.6,0.5,0.9
		c0.1,0.3,0.2,0.7,0.2,1.1c0,0.3,0,0.6-0.1,0.9c-0.1,0.7-0.4,1.3-0.9,1.9c-0.2,0.2-0.4,0.4-0.7,0.6c-0.3,0.2-0.6,0.3-0.9,0.5
		c-0.3,0.1-0.7,0.2-1,0.2C-187.2-75.5-187.3-75.5-187.4-75.5z M-187.4-80.3C-187.4-80.3-187.4-80.3-187.4-80.3c-0.1,0-0.2,0-0.3,0
		c-0.1,0-0.2,0.1-0.2,0.1c-0.1,0-0.1,0.1-0.2,0.1c-0.1,0.1-0.2,0.3-0.2,0.4c0,0.1,0,0.2,0,0.2c0,0.1,0,0.2,0,0.2
		c0,0.1,0.1,0.1,0.1,0.2c0,0.1,0.1,0.1,0.1,0.2c0.1,0.1,0.3,0.2,0.4,0.2c0.1,0,0.2,0,0.2,0c0.1,0,0.2,0,0.2,0c0.1,0,0.2-0.1,0.2-0.1
		c0.1,0,0.1-0.1,0.1-0.1c0.1-0.1,0.2-0.3,0.2-0.4c0-0.1,0-0.1,0-0.2c0,0,0,0,0,0c0-0.1,0-0.1,0-0.2c0-0.1-0.1-0.2-0.1-0.2
		c0-0.1-0.1-0.1-0.1-0.1c-0.1-0.1-0.3-0.2-0.4-0.2C-187.3-80.3-187.3-80.3-187.4-80.3z"/>
	<path class="st0" d="M-242.8-75.5c-0.2,0-0.5,0-0.7-0.1c-0.7-0.1-1.3-0.4-1.9-0.9c-0.2-0.2-0.4-0.4-0.6-0.7c-0.2-0.3-0.4-0.6-0.5-1
		c-0.1-0.3-0.2-0.7-0.2-1c0-0.3,0-0.6,0.1-1c0.1-0.7,0.4-1.3,0.9-1.9c0.2-0.2,0.4-0.4,0.7-0.6c0.3-0.2,0.6-0.4,1-0.5
		c0.3-0.1,0.7-0.2,1.1-0.2c0.3,0,0.6,0,0.9,0.1c0.7,0.1,1.3,0.4,1.9,0.9c0.2,0.2,0.4,0.4,0.6,0.7c0.2,0.3,0.3,0.6,0.5,0.9
		c0.1,0.3,0.2,0.7,0.2,1.1c0,0.3,0,0.6-0.1,0.9c-0.1,0.7-0.4,1.3-0.9,1.9c-0.2,0.2-0.4,0.4-0.7,0.6c-0.3,0.2-0.6,0.3-0.9,0.5
		c-0.3,0.1-0.7,0.2-1,0.2C-242.7-75.5-242.8-75.5-242.8-75.5z M-242.8-80.3C-242.8-80.3-242.9-80.3-242.8-80.3c-0.1,0-0.2,0-0.3,0
		c-0.1,0-0.2,0.1-0.2,0.1c-0.1,0-0.1,0.1-0.2,0.1c-0.1,0.1-0.2,0.3-0.2,0.4c0,0.1,0,0.2,0,0.2c0,0.1,0,0.2,0,0.2
		c0,0.1,0.1,0.1,0.1,0.2c0,0.1,0.1,0.1,0.1,0.2c0.1,0.1,0.3,0.2,0.4,0.2c0.1,0,0.2,0,0.2,0c0.1,0,0.2,0,0.2,0c0.1,0,0.1-0.1,0.2-0.1
		c0.1,0,0.1-0.1,0.1-0.1c0.1-0.1,0.2-0.3,0.2-0.4c0-0.1,0-0.1,0-0.2c0,0,0,0,0,0c0-0.1,0-0.1,0-0.2c0-0.1-0.1-0.2-0.1-0.2
		c0-0.1-0.1-0.1-0.1-0.1c-0.1-0.1-0.3-0.2-0.4-0.2C-242.7-80.3-242.8-80.3-242.8-80.3z"/>
	<path class="st0" d="M-203.2-52.6c-0.6,0-1.1-0.3-1.4-0.9c-0.4-0.8,0-1.6,0.7-2c5.8-2.7,10.4-7.4,13-13.2c0.3-0.8,1.2-1.1,2-0.8
		c0.8,0.3,1.1,1.2,0.8,2c-2.9,6.5-8,11.7-14.4,14.6C-202.8-52.7-203-52.6-203.2-52.6z"/>
	<path class="st0" d="M-226.8-52.6c-0.2,0-0.4,0-0.6-0.1c-6.4-3-11.5-8.2-14.4-14.6c-0.3-0.8,0-1.6,0.8-2c0.8-0.3,1.6,0,2,0.8
		c2.6,5.8,7.2,10.5,13,13.1c0.8,0.4,1.1,1.2,0.7,2C-225.6-52.9-226.2-52.6-226.8-52.6z"/>
	<path class="st0" d="M-240.4-89.4c-0.2,0-0.4,0-0.6-0.1c-0.8-0.3-1.1-1.2-0.7-2c2.8-6.2,7.7-11.2,13.7-14.2c0.7-0.4,1.6-0.1,2,0.7
		c0.4,0.7,0.1,1.6-0.7,2c-5.4,2.7-9.8,7.2-12.3,12.8C-239.3-89.7-239.8-89.4-240.4-89.4z"/>
	<path class="st0" d="M-190-90.2c-0.6,0-1.1-0.3-1.3-0.8c-2.5-5.2-6.8-9.4-11.9-12c-0.7-0.4-1-1.3-0.7-2c0.4-0.7,1.3-1,2-0.7
		c5.7,2.9,10.4,7.6,13.3,13.3c0.4,0.7,0.1,1.6-0.7,2C-189.5-90.3-189.8-90.2-190-90.2z"/>
</g>
</svg>
