<?xml version="1.0" encoding="utf-8"?>
<!-- Generator: Adobe Illustrator 24.3.0, SVG Export Plug-In . SVG Version: 6.00 Build 0)  -->
<!DOCTYPE svg PUBLIC "-//W3C//DTD SVG 1.1//EN" "http://www.w3.org/Graphics/SVG/1.1/DTD/svg11.dtd" [
	<!ENTITY ns_extend "http://ns.adobe.com/Extensibility/1.0/">
	<!ENTITY ns_ai "http://ns.adobe.com/AdobeIllustrator/10.0/">
	<!ENTITY ns_graphs "http://ns.adobe.com/Graphs/1.0/">
	<!ENTITY ns_vars "http://ns.adobe.com/Variables/1.0/">
	<!ENTITY ns_imrep "http://ns.adobe.com/ImageReplacement/1.0/">
	<!ENTITY ns_sfw "http://ns.adobe.com/SaveForWeb/1.0/">
	<!ENTITY ns_custom "http://ns.adobe.com/GenericCustomNamespace/1.0/">
	<!ENTITY ns_adobe_xpath "http://ns.adobe.com/XPath/1.0/">
]>
<svg version="1.1" id="Layer_1" xmlns:x="&ns_extend;" xmlns:i="&ns_ai;" xmlns:graph="&ns_graphs;"
	 xmlns="http://www.w3.org/2000/svg" xmlns:xlink="http://www.w3.org/1999/xlink" x="0px" y="0px" viewBox="0 0 56.5 56.5"
	 style="enable-background:new 0 0 56.5 56.5;" xml:space="preserve">
<style type="text/css">
	.st0{fill:#FFFFFF;}
	.st1{fill:#E4E5E0;}
	.st2{fill:#6D6250;}
	.st3{fill:#6D444E;}
	.st4{opacity:0.62;fill:#D3CDC5;enable-background:new    ;}
	.st5{fill:#494339;}
	.st6{fill:#262115;}
	.st7{fill:#F9F5EF;}
	.st8{fill:#B8833D;}
</style>
<metadata>
	<sfw  xmlns="&ns_sfw;">
		<slices></slices>
		<sliceSourceBounds  bottomLeftOrigin="true" height="130.3" width="164.8" x="-58.5" y="-16.6"></sliceSourceBounds>
	</sfw>
</metadata>
<g id="Group_707" transform="translate(-79.166 -58.297)">
	<g id="Group_706" transform="translate(79.166 58.297)">
		<path id="Path_1868" class="st1" d="M41.9,12.4l1.5-1.9c0.7,0.5,1.3,1,1.8,1.6c0.1,0.1,0.2,0.2,0.2,0.3c0,0.2-0.1,0.3-0.2,0.4
			l-0.7,1C43.9,13,43,12.5,42,12.2"/>
		<path id="Path_1869" d="M22.8,31.9c-0.5,0.8-0.9,1.7-1,2.6c-0.1,1,0.4,1.9,1.3,2.3c1.1,0.4,2.2-0.4,3-1.2c1.1-1.1,2.2-2.3,3.2-3.5
			c1.3-1.5,8.8-9.4,3.6-10.6C29.4,20.7,24.3,29.4,22.8,31.9z"/>
		<path id="Path_1870" class="st2" d="M26.2,31.5c-1.7,1.2-3.4,2.4-5.2,3.4c-0.4,0.2-0.8,0.4-1.2,0.6c-0.5,0-0.9,0-1.4-0.1
			c-0.2,0-0.5,0-0.7-0.1c-0.9-0.1-1.7-0.2-2.6-0.3c-0.2,0-0.3-0.1-0.5-0.1c-0.7-0.1-1.5-0.3-2.2-0.5c-0.2,0-0.4-0.1-0.6-0.2
			c-0.9-0.2-1.7-0.5-2.6-0.8c-0.3-0.1-0.5-0.2-0.8-0.3c-0.8-0.3-1.6-0.6-2.4-1c-0.4-0.2-0.7-0.3-1.1-0.5c-0.4-0.2-0.7-0.4-1.1-0.6
			c-0.2-0.1-0.3-0.2-0.5-0.3c-0.5-0.3-0.9-0.8-1.1-1.4c0-0.7,0.4-1.4,0.9-1.8c7.3-7.4,16.5-12.8,26.5-15.6c1.9-0.7,3.9-0.9,6-0.6
			c0-0.3,1.4,0.7,1.4,1s-0.3,0.4-0.4,0.7c-0.7,0.9,0.3,2.1,0.6,3.1c0.1,0.4,0.1,0.7,0.1,1.1c-0.1,0.9-0.5,1.8-1,2.7
			C33.8,24.5,30.3,28.4,26.2,31.5z"/>
		<path id="Path_1871" class="st2" d="M33.3,54.4c-0.4,0-0.8-0.1-1.1-0.4c-0.3-0.2-0.6-0.5-0.8-0.8c-1.1-1.3-2.1-2.7-3.1-4.1
			c0-0.1-0.1-0.1-0.1-0.2c-0.4-0.7-0.9-1.4-1.3-2.1c-0.1-0.2-0.2-0.3-0.3-0.5c-0.4-0.8-0.8-1.5-1.1-2.3c-0.1-0.3-0.3-0.6-0.4-0.9
			c-0.3-0.7-0.5-1.4-0.8-2.1c-0.2-0.5-0.3-1-0.5-1.6c-0.1-0.3-0.2-0.5-0.2-0.8c0.1-0.3,0.1-0.5,0.2-0.8c0.6-2.2,1.4-4.3,2.3-6.3l0,0
			c2.1-4.8,5.1-9,8.9-12.5c0.7-0.7,1.5-1.2,2.4-1.5c0.4-0.1,0.7-0.2,1.1-0.1c1.1,0.1,2.5,0.8,3.2-0.1c0.2-0.2,0.3-0.5,0.6-0.6
			s1.6,1.2,1.3,1.2c0.7,1.9,1,3.9,0.7,5.9c-0.5,10.4-3.8,20.5-9.4,29.3C34.5,53.6,34,54.3,33.3,54.4z"/>
		<g id="Group_705" transform="translate(31.562 8.07)">
			<path id="Path_1872" class="st3" d="M4.7,3.8L4,3.9L3.8,4.5L3.2,4.9l0.5,0.2l0.2,0.4l0.5,0.1L3.6,5.7L3.3,6.3L2.7,6.6l0.5-0.1
				l0.3,0.3l0.5,0L3.2,7.4L3,8.1L2.3,8.7l0.5,0l0.4,0.2l0.4-0.2L3,9.1L2.8,9.7l-0.6,0.4l0.6,0.1l0.3,0.4l0.6,0.2l-0.6,0.2l0,0.6
				l-0.2,0.5l0.5,0.3L3.6,13l0.6-0.1l-0.5,0.4l0,0.6l-0.5,0.5l1,0L5,15L6,15.1l1-0.1L8,14.5l0.5,0.8l0.3,0.2l-0.1,0.4l0.3,0l0.3,0.2
				l0.2-0.4l0.4-0.1l0.8-1.4l1.3-0.9l1.5-0.2l0.1-0.4l-0.3-0.4l0-0.4l0.3-0.1l0.4,0.3l0.4-0.2l0-0.3l-0.4-0.1l-0.2-0.2l0.4-0.1
				l0.4,0.3l0.3,0l0-2.7l-1.2-2.4L12,4.4l-1.4-0.6L9.4,3.1L7.9,2.8l-1-0.4L5.8,2.6l-1-0.4l0.1,0.1l0,0.3l0.2,0.1L4.6,2.6L4.2,3
				L3.6,3L4,3.3l0.2,0.4L4.7,3.8z"/>
		</g>
		<path id="Path_1873" d="M5.1,31c-0.1,0.2-0.2,0.5-0.3,0.7c-0.4-0.2-0.7-0.4-1.1-0.6c-0.2-0.1-0.3-0.2-0.5-0.3
			c0.2-0.6,0.6-1.1,1.1-1.6C5.2,29.2,5.4,30.3,5.1,31z"/>
		<path id="Path_1874" d="M8.7,31.6c0,0.5-0.1,1.1-0.3,1.6c-0.8-0.3-1.6-0.6-2.4-1c0.5-0.4,1-0.7,1.5-1.1c0.3-0.2,0.8-0.4,1.1-0.1
			C8.7,31.2,8.7,31.4,8.7,31.6z"/>
		<path id="Path_1875" d="M11.9,33.6c0,0.2,0,0.5-0.1,0.7c-0.9-0.2-1.7-0.5-2.6-0.8c0.6-0.6,1.2-1.4,1.9-1.1
			C11.6,32.6,11.9,33.1,11.9,33.6z"/>
		<path id="Path_1876" d="M14.6,34.8c0,0,0,0.1,0,0.1c-0.7-0.1-1.5-0.3-2.2-0.5c0.3-0.3,0.5-0.6,0.8-0.8c0.6-0.5,1.7-0.4,1.8,0.3
			C14.9,34.2,14.8,34.5,14.6,34.8z"/>
		<path id="Path_1877" d="M17.6,35.4c-0.9-0.1-1.7-0.2-2.6-0.4c0.7-0.9,1.8-1.3,2.9-1C17.6,34.4,17.5,34.9,17.6,35.4z"/>
		<path id="Path_1878" d="M20.9,34.9c-0.4,0.2-0.8,0.4-1.2,0.6c-0.5,0-0.9,0-1.4-0.1l1.1-1.3c0.2-0.3,0.6-0.6,1-0.4
			c0.2,0.1,0.3,0.4,0.3,0.6C20.8,34.5,20.9,34.7,20.9,34.9z"/>
		<path id="Path_1879" d="M23.9,39.5c-0.1-0.3-0.2-0.5-0.2-0.8c0.1-0.3,0.1-0.5,0.2-0.8c0.1,0,0.3,0,0.4,0
			C24.9,38.2,24.5,39.1,23.9,39.5z"/>
		<path id="Path_1880" d="M26.4,41.7c0,0.2-0.1,0.4-0.3,0.5c-0.3,0.3-0.6,0.6-0.9,0.8c-0.3-0.7-0.5-1.4-0.8-2.1c0.4,0,0.7,0,1.1,0.1
			C25.9,41.2,26.4,41.3,26.4,41.7z"/>
		<path id="Path_1881" d="M27.3,45.8c-0.2,0.2-0.4,0.4-0.6,0.5c-0.4-0.8-0.8-1.5-1.1-2.3c0.8-0.1,1.5-0.2,1.9,0.4
			C27.7,44.9,27.7,45.4,27.3,45.8z"/>
		<path id="Path_1882" d="M28.6,48.5c-0.2,0.1-0.3,0.2-0.4,0.4c-0.4-0.7-0.9-1.4-1.3-2.1c0.4,0,0.9-0.1,1.3-0.1
			c0.7,0,1.6,0.8,1.2,1.4C29.2,48.2,28.9,48.4,28.6,48.5z"/>
		<path id="Path_1883" d="M32.9,53.7c-0.2,0.1-0.5,0.2-0.7,0.3c-0.3-0.2-0.6-0.5-0.8-0.8c-1.1-1.3-2.1-2.7-3.1-4.1
			c1.2-0.6,2.7-0.2,3.4,0.9c-0.7,0-1.3,0.6-1.2,1.3c0,0,0,0.1,0,0.1l2.3-0.4c0.4-0.1,0.9-0.1,1,0.3c0.1,0.2,0,0.5-0.1,0.7L32.9,53.7
			z"/>
		<path id="Path_1884" d="M29.8,28.1c-0.2,0.3-0.5,0.6-0.7,0.9c-1.1,1.4-2.3,2.8-3.6,4.1C25.9,30.9,28.2,29.4,29.8,28.1z"/>
		<path id="Path_1885" d="M54.3,13.1c-3-0.9-6.7,0.2-9.8,0.4C44.1,11.2,52.8,12.7,54.3,13.1z"/>
		<path id="Path_1886" d="M40.5,2.2c1.6,2.7,1.3,6.6,1.7,9.6C44.6,11.6,41.3,3.5,40.5,2.2z"/>
	</g>
	<path id="Path_1887" class="st3" d="M107.2,76.1l-2,1.2c-1.1,0.5-2,1.4-2.5,2.5c-0.4,1.1,0.6,2.7,1.7,2.4c0.9-0.2,2.1-1.3,2.5-0.4
		c1.2-0.7,1.6-2.2,0.9-3.4c-0.2-0.4-0.6-0.7-1-1c0.5-0.8,1.5-1.1,2.4-0.9"/>
	<path id="Path_1888" class="st3" d="M115.7,87.9l-2.4,3.5c-0.4,0.5-0.6,1-0.7,1.6c-0.1,1.7,2.7,2.2,3.8,0.9s1.1-3.1,1-4.8
		c-0.1-1.3-0.2-2.7-0.3-4"/>
	<path id="Path_1889" d="M105.8,76.2c-0.9,0.8-0.9,2.2-0.1,3.1c0.8,0.9,2.2,0.9,3.1,0.1c0.9-0.8,0.9-2.2,0.1-3.1
		c-0.5-0.5-1.2-0.8-1.9-0.6"/>
	<path id="Path_1890" d="M115.9,86.4c-1.5,0.4-2.5,1.9-2.2,3.4c0.3,1.3,1.6,2,2.9,1.7c0.2-0.1,0.4-0.1,0.6-0.3
		c0.7-0.7,1.1-1.6,1.1-2.6c0.1-0.8,0-1.7-0.4-2.4c-0.5-0.7-1.4-0.9-2.2-0.5c0,0,0,0,0,0"/>
</g>
</svg>
