<?xml version="1.0" encoding="utf-8"?>
<!-- Generator: Adobe Illustrator 24.3.0, SVG Export Plug-In . SVG Version: 6.00 Build 0)  -->
<!DOCTYPE svg PUBLIC "-//W3C//DTD SVG 1.1//EN" "http://www.w3.org/Graphics/SVG/1.1/DTD/svg11.dtd" [
	<!ENTITY ns_extend "http://ns.adobe.com/Extensibility/1.0/">
	<!ENTITY ns_ai "http://ns.adobe.com/AdobeIllustrator/10.0/">
	<!ENTITY ns_graphs "http://ns.adobe.com/Graphs/1.0/">
	<!ENTITY ns_vars "http://ns.adobe.com/Variables/1.0/">
	<!ENTITY ns_imrep "http://ns.adobe.com/ImageReplacement/1.0/">
	<!ENTITY ns_sfw "http://ns.adobe.com/SaveForWeb/1.0/">
	<!ENTITY ns_custom "http://ns.adobe.com/GenericCustomNamespace/1.0/">
	<!ENTITY ns_adobe_xpath "http://ns.adobe.com/XPath/1.0/">
]>
<svg version="1.1" id="Layer_1" xmlns:x="&ns_extend;" xmlns:i="&ns_ai;" xmlns:graph="&ns_graphs;"
	 xmlns="http://www.w3.org/2000/svg" xmlns:xlink="http://www.w3.org/1999/xlink" x="0px" y="0px" viewBox="0 0 65 65"
	 style="enable-background:new 0 0 65 65;" xml:space="preserve">
<style type="text/css">
	.st0{fill:#66913D;}
	.st1{fill:none;stroke:#66913D;stroke-width:3;stroke-linecap:round;stroke-linejoin:round;}
	.st2{fill:none;}
	.st3{fill:#FFFFFF;}
	.st4{fill:#2F2F2F;}
	.st5{fill:#707070;}
</style>
<metadata>
	<sfw  xmlns="&ns_sfw;">
		<slices></slices>
		<sliceSourceBounds  bottomLeftOrigin="true" height="455.9" width="404.2" x="0.6" y="-456.3"></sliceSourceBounds>
	</sfw>
</metadata>
<g id="Group_13713" transform="translate(-21.638 -22.137)">
	<path class="st3" d="M31.6,44.2c-4.7,0-8.6-3.9-8.6-8.6s3.9-8.6,8.6-8.6s8.6,3.9,8.6,8.6S36.3,44.2,31.6,44.2z M31.6,30.1
		c-3.1,0-5.6,2.5-5.6,5.6s2.5,5.6,5.6,5.6s5.6-2.5,5.6-5.6S34.7,30.1,31.6,30.1z"/>
	<path class="st3" d="M65.6,85.2c-4.7,0-8.6-3.9-8.6-8.6s3.9-8.6,8.6-8.6s8.6,3.9,8.6,8.6S70.3,85.2,65.6,85.2z M65.6,71.1
		c-3.1,0-5.6,2.5-5.6,5.6s2.5,5.6,5.6,5.6s5.6-2.5,5.6-5.6S68.7,71.1,65.6,71.1z"/>
	<path class="st3" d="M31.6,72.2c-3.6,0-6.6-2.9-6.6-6.6c0-3.6,2.9-6.6,6.6-6.6c3.6,0,6.6,2.9,6.6,6.6
		C38.1,69.2,35.2,72.2,31.6,72.2z M31.6,62.1c-2,0-3.6,1.6-3.6,3.6c0,2,1.6,3.6,3.6,3.6s3.6-1.6,3.6-3.6
		C35.1,63.7,33.5,62.1,31.6,62.1z"/>
	<path class="st3" d="M63.5,37.2c-3.6,0-6.6-2.9-6.6-6.6s2.9-6.6,6.6-6.6c3.6,0,6.6,2.9,6.6,6.6S67.2,37.2,63.5,37.2z M63.5,27
		c-2,0-3.6,1.6-3.6,3.6c0,2,1.6,3.6,3.6,3.6s3.6-1.6,3.6-3.6C67.1,28.6,65.5,27,63.5,27z"/>
	<path class="st3" d="M78.7,58c-3.6,0-6.6-2.9-6.6-6.6s2.9-6.6,6.6-6.6s6.6,2.9,6.6,6.6S82.3,58,78.7,58z M78.7,47.9
		c-2,0-3.6,1.6-3.6,3.6c0,2,1.6,3.6,3.6,3.6s3.6-1.6,3.6-3.6C82.3,49.5,80.7,47.9,78.7,47.9z"/>
	<path class="st3" d="M53.3,64.9c-6,0-10.8-4.9-10.8-10.8c0-6,4.9-10.8,10.8-10.8S64.1,48.1,64.1,54C64.1,60,59.3,64.9,53.3,64.9z
		 M53.3,46.2c-4.3,0-7.8,3.5-7.8,7.8c0,4.3,3.5,7.8,7.8,7.8s7.8-3.5,7.8-7.8C61.1,49.7,57.6,46.2,53.3,46.2z"/>
	<path class="st3" d="M46.1,49.6c-0.3,0-0.7-0.1-1-0.3l-9.3-7.7c-0.6-0.5-0.7-1.5-0.2-2.1c0.5-0.6,1.5-0.7,2.1-0.2l9.3,7.7
		c0.6,0.5,0.7,1.5,0.2,2.1C47,49.4,46.5,49.6,46.1,49.6z"/>
	<path class="st3" d="M35.9,64.4c-0.5,0-1.1-0.3-1.3-0.8c-0.4-0.7-0.1-1.6,0.6-2l9.1-4.8c0.7-0.4,1.6-0.1,2,0.6
		c0.4,0.7,0.1,1.6-0.6,2l-9.1,4.8C36.3,64.4,36.1,64.4,35.9,64.4z"/>
	<path class="st3" d="M62.3,71.9c-0.5,0-1.1-0.3-1.3-0.8l-4.3-8.3c-0.4-0.7-0.1-1.6,0.6-2c0.7-0.4,1.6-0.1,2,0.6l4.3,8.3
		c0.4,0.7,0.1,1.6-0.6,2C62.7,71.8,62.5,71.9,62.3,71.9z"/>
	<path class="st3" d="M62.6,54.5c-0.8,0-1.4-0.6-1.5-1.4c-0.1-0.8,0.6-1.5,1.4-1.6l11-0.8c0.8-0.1,1.5,0.6,1.6,1.4
		c0.1,0.8-0.6,1.5-1.4,1.6l-11,0.8C62.7,54.5,62.7,54.5,62.6,54.5z"/>
	<path class="st3" d="M57.1,46.8c-0.2,0-0.4,0-0.6-0.1c-0.8-0.3-1.1-1.2-0.8-2l4.4-10.1c0.3-0.8,1.2-1.1,2-0.8
		c0.8,0.3,1.1,1.2,0.8,2l-4.4,10.1C58.2,46.5,57.7,46.8,57.1,46.8z"/>
</g>
</svg>
