<?xml version="1.0" encoding="utf-8"?>
<!-- Generator: Adobe Illustrator 19.0.0, SVG Export Plug-In . SVG Version: 6.00 Build 0)  -->
<svg version="1.1" id="Layer_1" xmlns="http://www.w3.org/2000/svg" xmlns:xlink="http://www.w3.org/1999/xlink" x="0px" y="0px"
	 viewBox="-251.8 384.7 22.8 23.6" style="enable-background:new -251.8 384.7 22.8 23.6;" xml:space="preserve">
<style type="text/css">
	.st0{fill:#2F2F2F;}
</style>
<g id="Group_346" transform="translate(-5.341 -4.869)">
	<path class="st0" d="M-235.1,413.2c-0.5,0-1-0.1-1.6-0.3c-0.8-0.3-1.5-0.9-2-1.6h-5c-0.8,0-1.5-0.3-2-0.9c-0.5-0.5-0.8-1.2-0.8-2
		c0-0.5,0.1-0.9,0.3-1.3l0.1-0.1c0.6-1,1.1-2.1,1.5-3.2c0.4-1.1,0.6-2.3,0.7-3.4l0.2-2.1c0.3-3.4,2.8-6.3,6.1-7.1
		c0.2-0.3,0.4-0.6,0.6-0.8c0.6-0.5,1.4-0.8,2.1-0.8c1.1,0,2.1,0.7,2.5,1.6c3.3,0.8,5.7,3.6,6,7.1l0.2,2c0.2,2.3,0.9,4.5,2,6.4
		l0.2,0.3c0.7,1.4,0.3,3-0.9,3.8l0,0c-0.5,0.3-1,0.4-1.5,0.4h-5C-232.4,412.5-233.7,413.2-235.1,413.2z"/>
	<rect x="-237.8" y="408.3" class="st0" width="5.4" height="3"/>
</g>
</svg>
