<?xml version="1.0" encoding="utf-8"?>
<!-- Generator: Adobe Illustrator 24.3.0, SVG Export Plug-In . SVG Version: 6.00 Build 0)  -->
<!DOCTYPE svg PUBLIC "-//W3C//DTD SVG 1.1//EN" "http://www.w3.org/Graphics/SVG/1.1/DTD/svg11.dtd" [
	<!ENTITY ns_extend "http://ns.adobe.com/Extensibility/1.0/">
	<!ENTITY ns_ai "http://ns.adobe.com/AdobeIllustrator/10.0/">
	<!ENTITY ns_graphs "http://ns.adobe.com/Graphs/1.0/">
	<!ENTITY ns_vars "http://ns.adobe.com/Variables/1.0/">
	<!ENTITY ns_imrep "http://ns.adobe.com/ImageReplacement/1.0/">
	<!ENTITY ns_sfw "http://ns.adobe.com/SaveForWeb/1.0/">
	<!ENTITY ns_custom "http://ns.adobe.com/GenericCustomNamespace/1.0/">
	<!ENTITY ns_adobe_xpath "http://ns.adobe.com/XPath/1.0/">
]>
<svg version="1.1" id="Layer_1" xmlns:x="&ns_extend;" xmlns:i="&ns_ai;" xmlns:graph="&ns_graphs;"
	 xmlns="http://www.w3.org/2000/svg" xmlns:xlink="http://www.w3.org/1999/xlink" x="0px" y="0px" viewBox="0 0 23.9 22.6"
	 style="enable-background:new 0 0 23.9 22.6;" xml:space="preserve">
<style type="text/css">
	.st0{fill:#66913D;}
	.st1{fill:none;stroke:#66913D;stroke-width:3;stroke-linecap:round;stroke-linejoin:round;}
	.st2{fill:none;}
	.st3{fill:#FFFFFF;}
	.st4{fill:#2F2F2F;}
	.st5{fill:#707070;}
</style>
<metadata>
	<sfw  xmlns="&ns_sfw;">
		<slices></slices>
		<sliceSourceBounds  bottomLeftOrigin="true" height="455.9" width="404.2" x="0.6" y="-456.3"></sliceSourceBounds>
	</sfw>
</metadata>
<g>
	<path id="Icon_metro-organization_1_" class="st4" d="M18.1,8.9H5.8c-1.3,0-2.5,1.1-2.5,2.5v1.2c0,0.9,0.5,1.7,1.2,2.1v4h4.9v2.5
		h4.9v-2.5h4.9v-4c0.8-0.4,1.2-1.2,1.2-2.1v-1.2C20.5,10,19.4,8.9,18.1,8.9z M8.2,17.5H5.8v-4.9H4.6v-1.2c0-0.7,0.6-1.2,1.2-1.2h1.6
		C7.1,10.5,7,10.9,7,11.3v2.5c0,0.9,0.5,1.7,1.2,2.1V17.5z M15.6,13.8c0,0.7-0.5,1.2-1.2,1.2v-2.5h-1.2v7.4h-2.5v-7.4H9.5V15
		c-0.7,0-1.2-0.5-1.2-1.2v-2.5c0-0.7,0.5-1.2,1.2-1.2h4.9c0.7,0,1.2,0.6,1.2,1.2V13.8z M19.3,12.5h-1.2v4.9h-2.5v-1.6
		c0.8-0.4,1.2-1.2,1.2-2.1v-2.5c0-0.4-0.1-0.9-0.3-1.2h1.6c0.7,0,1.2,0.5,1.2,1.2V12.5z M19,5.2c-0.6-1.2-2.1-1.6-3.3-1
		c-0.1,0-0.1,0.1-0.2,0.1c-0.5-2-2.4-3.2-4.4-2.8C9.7,1.9,8.7,3,8.4,4.3C7.2,3.6,5.7,3.9,4.9,5C4.2,6.2,4.5,7.7,5.7,8.5
		C6.1,8.7,6.5,8.9,7,8.9c0.8,0,1.6-0.4,2.1-1.1c0-0.1,0.1-0.1,0.1-0.2c0.7,0.8,1.8,1.3,2.8,1.3c0.8,0,1.7-0.3,2.4-0.9
		c0.1-0.1,0.3-0.3,0.4-0.4c0.7,1.2,2.1,1.6,3.3,1C19.2,7.9,19.7,6.4,19,5.2z M7,7.6c-0.7,0-1.2-0.5-1.2-1.2c0-0.7,0.6-1.2,1.2-1.2
		c0.7,0,1.2,0.5,1.2,1.2C8.2,7.1,7.7,7.6,7,7.6z M11.9,7.6c-1.4,0-2.5-1.1-2.5-2.5c0-1.4,1.1-2.5,2.5-2.5c1.4,0,2.5,1.1,2.5,2.5
		C14.4,6.5,13.3,7.6,11.9,7.6z M16.9,7.6c-0.7,0-1.2-0.5-1.2-1.2c0-0.7,0.6-1.2,1.2-1.2s1.2,0.5,1.2,1.2C18.1,7.1,17.5,7.6,16.9,7.6
		z"/>
	<path class="st4" d="M15.6,11.3v2.5c0,0.7-0.5,1.2-1.2,1.2v-2.5h-1.2v7.4h-2.5v-7.4H9.5V15c-0.7,0-1.2-0.5-1.2-1.2v-2.5
		c0-0.7,0.5-1.2,1.2-1.2h4.9C15.1,10.1,15.6,10.6,15.6,11.3z"/>
	<path class="st4" d="M14.4,5.2c0,1.4-1.1,2.5-2.5,2.5c-1.4,0-2.5-1.1-2.5-2.5c0-1.4,1.1-2.5,2.5-2.5C13.3,2.7,14.4,3.8,14.4,5.2z"
		/>
</g>
</svg>
