<?xml version="1.0" encoding="utf-8"?>
<!-- Generator: Adobe Illustrator 24.3.0, SVG Export Plug-In . SVG Version: 6.00 Build 0)  -->
<!DOCTYPE svg PUBLIC "-//W3C//DTD SVG 1.1//EN" "http://www.w3.org/Graphics/SVG/1.1/DTD/svg11.dtd" [
	<!ENTITY ns_extend "http://ns.adobe.com/Extensibility/1.0/">
	<!ENTITY ns_ai "http://ns.adobe.com/AdobeIllustrator/10.0/">
	<!ENTITY ns_graphs "http://ns.adobe.com/Graphs/1.0/">
	<!ENTITY ns_vars "http://ns.adobe.com/Variables/1.0/">
	<!ENTITY ns_imrep "http://ns.adobe.com/ImageReplacement/1.0/">
	<!ENTITY ns_sfw "http://ns.adobe.com/SaveForWeb/1.0/">
	<!ENTITY ns_custom "http://ns.adobe.com/GenericCustomNamespace/1.0/">
	<!ENTITY ns_adobe_xpath "http://ns.adobe.com/XPath/1.0/">
]>
<svg version="1.1" id="Layer_1" xmlns:x="&ns_extend;" xmlns:i="&ns_ai;" xmlns:graph="&ns_graphs;"
	 xmlns="http://www.w3.org/2000/svg" xmlns:xlink="http://www.w3.org/1999/xlink" x="0px" y="0px" viewBox="0 0 65 65"
	 style="enable-background:new 0 0 65 65;" xml:space="preserve">
<style type="text/css">
	.st0{fill:#66913D;}
	.st1{fill:none;stroke:#66913D;stroke-width:3;stroke-linecap:round;stroke-linejoin:round;}
	.st2{fill:none;}
	.st3{fill:#FFFFFF;}
	.st4{fill:#2F2F2F;}
	.st5{fill:#707070;}
</style>
<metadata>
	<sfw  xmlns="&ns_sfw;">
		<slices></slices>
		<sliceSourceBounds  bottomLeftOrigin="true" height="455.9" width="404.2" x="0.6" y="-456.3"></sliceSourceBounds>
	</sfw>
</metadata>
<g id="Group_397_1_" transform="translate(-76.014 -65.725)">
	<path class="st0" d="M127.1,129.2H84.5c-1.5,0-2.7-1.2-2.7-2.7V73.5c0-1.5,1.2-2.7,2.7-2.7h28.9c0.8,0,1.5,0.7,1.5,1.5
		s-0.7,1.5-1.5,1.5H84.8v52.4h42.1V99.7c0-0.8,0.7-1.5,1.5-1.5c0.8,0,1.5,0.7,1.5,1.5v26.7C129.9,127.9,128.6,129.2,127.1,129.2z"/>
	<g id="Group_243_2_" transform="translate(88.104 67.435)">
		<g id="Group_242_2_">
			<path class="st0" d="M21,36.8c-1,0-1.9-0.5-2.4-1.4l-7.4-12c-0.6-1-0.5-2.3,0.2-3.2L26.4,1c0.5-0.6,1.1-1,1.9-1.1
				c0.8-0.1,1.5,0.1,2.1,0.6c0.3,0.2,0.5,0.5,0.7,0.8l16.2,26.4c0.8,1.3,0.4,3.1-0.9,3.9c-0.3,0.2-0.6,0.3-1,0.4l-23.9,4.8
				C21.3,36.7,21.1,36.8,21,36.8z M13.8,21.9L21,33.7L44.6,29l-16-26L13.8,21.9z M44.8,29.2L44.8,29.2L44.8,29.2z"/>
			<path class="st0" d="M10.5,40.1c-0.6,0-1.3-0.1-1.9-0.2c-2.1-0.5-3.9-1.8-5-3.6c-2.3-3.8-1.1-8.8,2.6-11.1l5.6-3.4
				c0.7-0.4,1.6-0.2,2.1,0.5l6.9,11.2c0.2,0.3,0.3,0.7,0.2,1.1c-0.1,0.4-0.3,0.7-0.7,0.9l-5.6,3.4C13.4,39.7,12,40.1,10.5,40.1z
				 M12.1,25l-4.3,2.7c-2.4,1.5-3.1,4.6-1.7,7c0.7,1.2,1.8,2,3.2,2.3c1.3,0.3,2.7,0.1,3.8-0.6l4.3-2.7L12.1,25z"/>
			<path class="st0" d="M22.6,50.2c-1.6,0-3.2-0.8-4.1-2.3l-5.9-9.5c-0.2-0.3-0.3-0.7-0.2-1.1c0.1-0.4,0.3-0.7,0.7-0.9l5.6-3.4
				c0.7-0.4,1.6-0.2,2.1,0.5l5.9,9.5c1.4,2.2,0.7,5.2-1.6,6.6c0,0-0.1,0-0.1,0.1C24.2,50,23.4,50.2,22.6,50.2z M16,38.1l5.1,8.2
				c0.5,0.8,1.6,1.1,2.5,0.6c0,0,0,0,0.1,0c0.8-0.5,1-1.6,0.5-2.4L19,36.2L16,38.1z"/>
			<path class="st0" d="M41.3,22.2c-0.1,0-0.2,0-0.3,0c-0.4-0.1-0.7-0.3-0.9-0.7l-6.9-11.2C32.9,10,32.9,9.6,33,9.2
				c0.1-0.4,0.3-0.7,0.7-0.9c1.6-1,3.4-1.3,5.2-0.8c1.8,0.4,3.3,1.5,4.3,3.1l1.3,2c1,1.6,1.3,3.4,0.8,5.2c-0.4,1.8-1.5,3.3-3.1,4.3
				C41.9,22.2,41.6,22.2,41.3,22.2z M36.7,10.3l5,8.1c0.3-0.4,0.5-0.9,0.6-1.4c0.2-1,0.1-2-0.5-2.9l-1.3-2.1
				c-0.5-0.9-1.4-1.5-2.4-1.7C37.6,10.2,37.1,10.2,36.7,10.3z"/>
			<path class="st0" d="M46.3,11.6c-0.5,0-1-0.3-1.3-0.7c-0.4-0.7-0.2-1.6,0.5-2.1l2.6-1.6c0.7-0.4,1.6-0.2,2.1,0.5
				c0.4,0.7,0.2,1.6-0.5,2.1l-2.6,1.6C46.8,11.5,46.6,11.6,46.3,11.6z"/>
			<path class="st0" d="M40.3,6.4c-0.1,0-0.2,0-0.3,0c-0.8-0.2-1.3-0.9-1.2-1.8l0.7-3.4c0.2-0.8,0.9-1.3,1.8-1.2
				c0.8,0.2,1.3,0.9,1.2,1.8l-0.7,3.4C41.6,5.9,41,6.4,40.3,6.4z"/>
			<path class="st0" d="M51.2,20c-0.1,0-0.2,0-0.3,0l-3.1-0.6c-0.8-0.2-1.3-0.9-1.2-1.8c0.2-0.8,0.9-1.3,1.8-1.2l3.1,0.6
				c0.8,0.2,1.3,0.9,1.2,1.8C52.5,19.5,51.9,20,51.2,20z"/>
		</g>
	</g>
</g>
</svg>
