<?xml version="1.0" encoding="utf-8"?>
<!-- Generator: Adobe Illustrator 24.3.0, SVG Export Plug-In . SVG Version: 6.00 Build 0)  -->
<!DOCTYPE svg PUBLIC "-//W3C//DTD SVG 1.1//EN" "http://www.w3.org/Graphics/SVG/1.1/DTD/svg11.dtd" [
	<!ENTITY ns_extend "http://ns.adobe.com/Extensibility/1.0/">
	<!ENTITY ns_ai "http://ns.adobe.com/AdobeIllustrator/10.0/">
	<!ENTITY ns_graphs "http://ns.adobe.com/Graphs/1.0/">
	<!ENTITY ns_vars "http://ns.adobe.com/Variables/1.0/">
	<!ENTITY ns_imrep "http://ns.adobe.com/ImageReplacement/1.0/">
	<!ENTITY ns_sfw "http://ns.adobe.com/SaveForWeb/1.0/">
	<!ENTITY ns_custom "http://ns.adobe.com/GenericCustomNamespace/1.0/">
	<!ENTITY ns_adobe_xpath "http://ns.adobe.com/XPath/1.0/">
]>
<svg version="1.1" id="Layer_1" xmlns:x="&ns_extend;" xmlns:i="&ns_ai;" xmlns:graph="&ns_graphs;"
	 xmlns="http://www.w3.org/2000/svg" xmlns:xlink="http://www.w3.org/1999/xlink" x="0px" y="0px" viewBox="0 0 65 65"
	 style="enable-background:new 0 0 65 65;" xml:space="preserve">
<style type="text/css">
	.st0{fill:#66913D;}
	.st1{fill:none;stroke:#66913D;stroke-width:3;stroke-linecap:round;stroke-linejoin:round;}
	.st2{fill:none;}
	.st3{fill:#FFFFFF;}
	.st4{fill:#2F2F2F;}
	.st5{fill:#707070;}
</style>
<metadata>
	<sfw  xmlns="&ns_sfw;">
		<slices></slices>
		<sliceSourceBounds  bottomLeftOrigin="true" height="455.9" width="404.2" x="0.6" y="-456.3"></sliceSourceBounds>
	</sfw>
</metadata>
<g id="Group_388" transform="translate(-1088 -558)">
	<g id="Rectangle_94" transform="translate(1088 558)">
		<path class="st2" d="M32.5,0.6L32.5,0.6c7.2,0,13,5.8,13,13v26c0,7.2-5.8,13-13,13l0,0c-7.2,0-13-5.8-13-13v-26
			C19.5,6.5,25.3,0.6,32.5,0.6z"/>
		<path class="st0" d="M32.5,52.8c-7.3,0-13.2-5.9-13.2-13.2v-26c0-7.3,5.9-13.2,13.2-13.2s13.2,5.9,13.2,13.2v26
			C45.7,46.9,39.8,52.8,32.5,52.8z M32.5,3.4c-5.7,0-10.3,4.6-10.3,10.3v26c0,5.7,4.6,10.3,10.3,10.3s10.3-4.6,10.3-10.3v-26
			C42.8,8,38.2,3.4,32.5,3.4z"/>
	</g>
	<path class="st0" d="M1123.9,579.8h-15.1c-0.8,0-1.5-0.7-1.5-1.5s0.7-1.5,1.5-1.5h15.1c0.8,0,1.5,0.7,1.5,1.5
		S1124.7,579.8,1123.9,579.8z"/>
	<path class="st0" d="M1123.9,586.5h-15.1c-0.8,0-1.5-0.7-1.5-1.5s0.7-1.5,1.5-1.5h15.1c0.8,0,1.5,0.7,1.5,1.5
		S1124.7,586.5,1123.9,586.5z"/>
	<path class="st0" d="M1123.9,593.2h-15.1c-0.8,0-1.5-0.7-1.5-1.5s0.7-1.5,1.5-1.5h15.1c0.8,0,1.5,0.7,1.5,1.5
		S1124.7,593.2,1123.9,593.2z"/>
	<path class="st0" d="M1120.5,622.6c-0.8,0-1.5-0.7-1.5-1.5v-11.7c0-0.8,0.7-1.5,1.5-1.5s1.5,0.7,1.5,1.5v11.7
		C1122,621.9,1121.3,622.6,1120.5,622.6z"/>
	<path class="st0" d="M1129.7,622.6h-17.6c-0.8,0-1.5-0.7-1.5-1.5s0.7-1.5,1.5-1.5h17.6c0.8,0,1.5,0.7,1.5,1.5
		S1130.5,622.6,1129.7,622.6z"/>
</g>
</svg>
