<?xml version="1.0" encoding="utf-8"?>
<!-- Generator: Adobe Illustrator 24.3.0, SVG Export Plug-In . SVG Version: 6.00 Build 0)  -->
<!DOCTYPE svg PUBLIC "-//W3C//DTD SVG 1.1//EN" "http://www.w3.org/Graphics/SVG/1.1/DTD/svg11.dtd" [
	<!ENTITY ns_extend "http://ns.adobe.com/Extensibility/1.0/">
	<!ENTITY ns_ai "http://ns.adobe.com/AdobeIllustrator/10.0/">
	<!ENTITY ns_graphs "http://ns.adobe.com/Graphs/1.0/">
	<!ENTITY ns_vars "http://ns.adobe.com/Variables/1.0/">
	<!ENTITY ns_imrep "http://ns.adobe.com/ImageReplacement/1.0/">
	<!ENTITY ns_sfw "http://ns.adobe.com/SaveForWeb/1.0/">
	<!ENTITY ns_custom "http://ns.adobe.com/GenericCustomNamespace/1.0/">
	<!ENTITY ns_adobe_xpath "http://ns.adobe.com/XPath/1.0/">
]>
<svg version="1.1" id="Layer_1" xmlns:x="&ns_extend;" xmlns:i="&ns_ai;" xmlns:graph="&ns_graphs;"
	 xmlns="http://www.w3.org/2000/svg" xmlns:xlink="http://www.w3.org/1999/xlink" x="0px" y="0px" viewBox="0 0 65 65"
	 style="enable-background:new 0 0 65 65;" xml:space="preserve">
<style type="text/css">
	.st0{fill:#66913D;}
	.st1{fill:none;stroke:#66913D;stroke-width:3;stroke-linecap:round;stroke-linejoin:round;}
	.st2{fill:none;}
	.st3{fill:#FFFFFF;}
	.st4{fill:#2F2F2F;}
	.st5{fill:#707070;}
</style>
<metadata>
	<sfw  xmlns="&ns_sfw;">
		<slices></slices>
		<sliceSourceBounds  bottomLeftOrigin="true" height="455.9" width="404.2" x="0.6" y="-456.3"></sliceSourceBounds>
	</sfw>
</metadata>
<g id="Group_400" transform="translate(-579 -558)">
	<g id="Group_399" transform="translate(-1061 2)">
		<g id="Ellipse_2694" transform="translate(1640 556)">
			<circle class="st2" cx="32.5" cy="32.5" r="31.4"/>
			<path class="st0" d="M32.5,64.3C15,64.3,0.7,50,0.7,32.5S15,0.7,32.5,0.7S64.3,15,64.3,32.5S50,64.3,32.5,64.3z M32.5,3.8
				C16.7,3.8,3.8,16.7,3.8,32.5s12.9,28.7,28.7,28.7s28.7-12.9,28.7-28.7S48.3,3.8,32.5,3.8z"/>
		</g>
	</g>
	<g id="Group_243" transform="matrix(0.914, -0.407, 0.407, 0.914, 410.419, 874.238)">
		<g id="Group_242" transform="translate(282.888 -183.135)">
			<path class="st0" d="M9,11.4C8.1,11,7.6,10.1,7.6,9.2l0-9.3c0-1,0.6-1.9,1.6-2.3l15.1-5.6c0.6-0.2,1.2-0.2,1.8,0.1
				c0.6,0.3,1,0.7,1.3,1.3c0.1,0.3,0.2,0.6,0.2,0.9l0,20.4c0,1.3-1.1,2.4-2.4,2.4c-0.3,0-0.6-0.1-0.8-0.2l-15-5.6
				C9.1,11.4,9.1,11.4,9,11.4z M10.2,8.6C10.2,8.6,10.2,8.6,10.2,8.6L10.2,8.6z M10.6,0.4l0,8.3l13.7,5.1l0-18.5L10.6,0.4z
				 M24.4,14.7C24.4,14.7,24.4,14.7,24.4,14.7L24.4,14.7z M25.3-5L25.3-5C25.3-5,25.3-5,25.3-5z M24.4-5.6
				C24.4-5.6,24.4-5.6,24.4-5.6L24.4-5.6z"/>
			<path class="st0" d="M2.4,9.8C1.8,9.5,1.2,9.1,0.6,8.6C-0.5,7.5-1.1,6-1.1,4.5c0-3.2,2.6-5.9,5.9-5.9l4.3,0
				c0.4,0,0.8,0.2,1.1,0.4c0.3,0.3,0.4,0.7,0.4,1.1l0,8.6c0,0.8-0.7,1.5-1.5,1.5l-4.3,0C3.9,10.3,3.1,10.2,2.4,9.8z M7.6,1.7l-2.8,0
				C4,1.7,3.3,2,2.8,2.5C2.3,3,2,3.7,2,4.5c0,0.7,0.3,1.4,0.8,2C3.3,7,4,7.3,4.8,7.3l2.8,0L7.6,1.7z"/>
			<path class="st0" d="M5.4,19.5c-0.4-0.2-0.8-0.4-1.1-0.8c-0.7-0.7-1.1-1.6-1.1-2.6l0-7.3c0-0.8,0.7-1.5,1.5-1.5l4.3,0
				c0.4,0,0.8,0.2,1.1,0.4c0.3,0.3,0.4,0.7,0.4,1.1l0,7.3c0,1-0.4,1.9-1.1,2.6c-0.7,0.7-1.6,1.1-2.6,1.1l0,0
				C6.4,19.8,5.9,19.7,5.4,19.5z M6.3,10.3l0,5.8c0,0.2,0.1,0.4,0.2,0.4c0.1,0.1,0.2,0.2,0.4,0.2l0,0c0.2,0,0.4-0.1,0.4-0.2
				c0.1-0.1,0.2-0.2,0.2-0.4l0-5.8L6.3,10.3z"/>
			<path class="st0" d="M25.3,10.2c-0.5-0.2-0.9-0.8-0.9-1.4l0-8.7c0-0.4,0.2-0.8,0.4-1.1c0.3-0.3,0.7-0.4,1.1-0.4
				c1.4,0,2.6,0.5,3.6,1.5c1,1,1.5,2.2,1.5,3.6l0,1.6c0,1.4-0.5,2.6-1.5,3.6c-1,1-2.2,1.5-3.6,1.5C25.7,10.3,25.5,10.3,25.3,10.2z
				 M27.5,2.4l0,4.2c0.3-0.4,0.5-0.8,0.5-1.3l0-1.6C27.9,3.2,27.8,2.8,27.5,2.4z"/>
			<path class="st0" d="M31.8,5.9c-0.5-0.2-0.9-0.8-0.9-1.4c0-0.8,0.7-1.5,1.5-1.5l2,0c0.9,0,1.5,0.7,1.5,1.5c0,0.8-0.7,1.5-1.5,1.5
				l-2,0C32.2,6.1,31.9,6,31.8,5.9z"/>
			<path class="st0" d="M30.2,0.9c-0.1-0.1-0.3-0.2-0.4-0.3c-0.6-0.6-0.7-1.5-0.1-2.2l1.6-1.7c0.6-0.6,1.5-0.7,2.2-0.1
				c0.6,0.6,0.7,1.5,0.1,2.2l-1.6,1.7C31.5,1.1,30.8,1.2,30.2,0.9z"/>
			<path class="st0" d="M31.6,12.3c-0.1-0.1-0.3-0.2-0.4-0.3l-1.5-1.4C29,10.1,29,9.1,29.5,8.5c0.6-0.6,1.5-0.7,2.2-0.1l1.5,1.4
				c0.6,0.6,0.7,1.5,0.1,2.2C32.9,12.5,32.2,12.6,31.6,12.3z"/>
		</g>
	</g>
</g>
</svg>
