<?xml version="1.0" encoding="utf-8"?>
<!-- Generator: Adobe Illustrator 24.3.0, SVG Export Plug-In . SVG Version: 6.00 Build 0)  -->
<!DOCTYPE svg PUBLIC "-//W3C//DTD SVG 1.1//EN" "http://www.w3.org/Graphics/SVG/1.1/DTD/svg11.dtd" [
	<!ENTITY ns_extend "http://ns.adobe.com/Extensibility/1.0/">
	<!ENTITY ns_ai "http://ns.adobe.com/AdobeIllustrator/10.0/">
	<!ENTITY ns_graphs "http://ns.adobe.com/Graphs/1.0/">
	<!ENTITY ns_vars "http://ns.adobe.com/Variables/1.0/">
	<!ENTITY ns_imrep "http://ns.adobe.com/ImageReplacement/1.0/">
	<!ENTITY ns_sfw "http://ns.adobe.com/SaveForWeb/1.0/">
	<!ENTITY ns_custom "http://ns.adobe.com/GenericCustomNamespace/1.0/">
	<!ENTITY ns_adobe_xpath "http://ns.adobe.com/XPath/1.0/">
]>
<svg version="1.1" id="Layer_1" xmlns:x="&ns_extend;" xmlns:i="&ns_ai;" xmlns:graph="&ns_graphs;"
	 xmlns="http://www.w3.org/2000/svg" xmlns:xlink="http://www.w3.org/1999/xlink" x="0px" y="0px" viewBox="0 0 65 65"
	 style="enable-background:new 0 0 65 65;" xml:space="preserve">
<style type="text/css">
	.st0{fill:#66913D;}
	.st1{fill:none;stroke:#66913D;stroke-width:3;stroke-linecap:round;stroke-linejoin:round;}
	.st2{fill:none;}
	.st3{fill:#FFFFFF;}
	.st4{fill:#2F2F2F;}
	.st5{fill:#707070;}
</style>
<metadata>
	<sfw  xmlns="&ns_sfw;">
		<slices></slices>
		<sliceSourceBounds  bottomLeftOrigin="true" height="455.9" width="404.2" x="0.6" y="-456.3"></sliceSourceBounds>
	</sfw>
</metadata>
<g id="Group_360" transform="translate(-152.344 -20.459)">
	<path class="st0" d="M177.3,57.9h-7.9c-0.7,0-1.3-0.5-1.5-1.2c-0.3-1.3-0.4-2.7-0.4-4.1c0-9.4,6.3-17.5,15.4-19.9
		c0.8-0.2,1.6,0.3,1.8,1.1l1.5,5.5c0,0.1,0.1,0.3,0.1,0.4v2c0,0.7-0.4,1.2-1.1,1.4c-4.2,1.2-7.1,5.1-7.1,9.5c0,1.1,0.2,2.2,0.6,3.3
		c0.2,0.5,0.1,1-0.2,1.4C178.3,57.6,177.8,57.9,177.3,57.9z M170.7,54.9h4.7c-0.1-0.8-0.2-1.5-0.2-2.3c0-5.3,3.3-10.1,8.2-12v-0.7
		l-1-3.8c-7,2.4-11.7,9-11.7,16.5C170.6,53.3,170.6,54.1,170.7,54.9z"/>
	<path class="st0" d="M186.7,48c-0.3,0-0.5-0.1-0.7-0.2c-0.3-0.2-0.6-0.5-0.7-0.9l-4.5-16.5c-0.3-1.2,0.4-2.5,1.6-2.8l5.2-1.4
		c1.1-0.3,2.4,0.3,2.8,1.5c0,0,0,0.1,0,0.1l4.5,16.5c0.2,0.8-0.3,1.6-1.1,1.8l-6.8,1.9C187,48,186.8,48,186.7,48z M183.8,30.3
		l3.9,14.4l3.9-1.1l-3.9-14.4L183.8,30.3z M183.2,30.4L183.2,30.4C183.2,30.4,183.2,30.4,183.2,30.4z M188.4,29L188.4,29
		C188.4,29,188.4,29,188.4,29z"/>
	<path class="st0" d="M183.4,30.3c-0.7,0-1.3-0.4-1.4-1.1l-1.5-5.6c-0.1-0.4-0.1-0.8,0.1-1.1s0.5-0.6,0.9-0.7l4-1.1
		c0.8-0.2,1.6,0.3,1.8,1l1.5,5.6c0.1,0.4,0.1,0.8-0.1,1.1s-0.5,0.6-0.9,0.7l-4,1.1C183.6,30.3,183.5,30.3,183.4,30.3z M183.7,24.3
		l0.7,2.7l1.1-0.3l-0.7-2.7L183.7,24.3z"/>
	<path class="st0" d="M202.3,70.3h-34.9c-0.8,0-1.5-0.7-1.5-1.5v-5.5c0-0.8,0.7-1.5,1.5-1.5h34.9c0.8,0,1.5,0.7,1.5,1.5v5.5
		C203.8,69.7,203.1,70.3,202.3,70.3z M168.9,67.3h31.9v-2.5h-31.9V67.3z"/>
	<path class="st0" d="M194.9,85.3h-27.5c-0.8,0-1.5-0.7-1.5-1.5v-5.5c0-0.8,0.7-1.5,1.5-1.5h25.4c2,0,3.6,1.6,3.6,3.6v3.4
		C196.4,84.6,195.7,85.3,194.9,85.3z M168.9,82.3h24.5v-1.9c0-0.3-0.3-0.6-0.6-0.6h-23.9V82.3z"/>
	<path class="st0" d="M185.7,53.3c-1,0-1.9-0.7-2.2-1.7c0,0,0,0,0,0v0l-0.9-3.1c-0.3-1.2,0.4-2.5,1.6-2.8l11.1-3
		c1.2-0.3,2.5,0.4,2.8,1.6l0.9,3.1c0.3,1.2-0.4,2.5-1.6,2.8c0,0,0,0,0,0l-7.1,1.9c-0.1,0-0.1,0-0.1,0l-3.7,1
		C186.1,53.3,185.9,53.3,185.7,53.3z M185.6,48.4l0.5,1.8l3-0.8c0,0,0.1,0,0.1,0l6.5-1.8l-0.5-1.8L185.6,48.4z M196.9,48.8
		L196.9,48.8L196.9,48.8z M195.1,45.1C195.1,45.1,195.1,45.1,195.1,45.1L195.1,45.1z"/>
	<path class="st0" d="M191.2,57.8c-0.7,0-1.3-0.4-1.4-1.1l-1.5-5.5c-0.1-0.4-0.1-0.8,0.1-1.1c0.2-0.3,0.5-0.6,0.9-0.7l3.7-1
		c0.8-0.2,1.6,0.3,1.8,1l1.5,5.5c0.1,0.4,0.1,0.8-0.1,1.1c-0.2,0.3-0.5,0.6-0.9,0.7l-3.7,1C191.4,57.7,191.3,57.8,191.2,57.8z
		 M191.5,51.8l0.7,2.6l0.8-0.2l-0.7-2.6L191.5,51.8z"/>
	<path class="st0" d="M196.2,55.4c-0.4,0-0.9-0.2-1.2-0.5l-2.5-3c-0.1-0.2-0.2-0.4-0.3-0.6l-0.3-1.1c-0.1-0.4-0.1-0.8,0.1-1.1
		c0.2-0.3,0.5-0.6,0.9-0.7l3.6-1c0.6-0.2,1.2,0,1.6,0.5l2.2,2.7c0.5,0.6,0.4,1.6-0.2,2.1l-2.9,2.4C196.9,55.3,196.5,55.4,196.2,55.4
		z M195.5,50.7l0.9,1.1l0.6-0.5l-0.6-0.8L195.5,50.7z"/>
	<path class="st0" d="M189.3,57.3c-0.1,0-0.2,0-0.2,0l-3.8-0.6c-0.4-0.1-0.7-0.3-1-0.6c-0.2-0.3-0.3-0.7-0.3-1.1l0.6-3.4
		c0.1-0.6,0.5-1.1,1.1-1.2l3.5-0.9c0.8-0.2,1.6,0.3,1.8,1l0.3,1.1c0.1,0.2,0.1,0.4,0,0.6l-0.6,3.9C190.7,56.8,190,57.3,189.3,57.3z
		 M187.3,53.9l0.8,0.1l0.2-1.4l-0.9,0.2L187.3,53.9z"/>
	<path class="st0" d="M181.8,64.8h-8.5c-0.5,0-1-0.3-1.3-0.8l-3.9-7c-0.4-0.7-0.1-1.6,0.6-2c0.7-0.4,1.6-0.1,2,0.6l3.4,6.2h4.9
		l-3-4.7c-0.4-0.7-0.2-1.6,0.5-2.1c0.7-0.4,1.6-0.2,2.1,0.4l4.5,7c0.3,0.5,0.3,1,0.1,1.5C182.9,64.5,182.4,64.8,181.8,64.8z"/>
	<path class="st0" d="M181.8,79.8h-12.4c-0.5,0-1-0.3-1.3-0.7c-0.3-0.4-0.3-1-0.1-1.4l4.2-9.5c0.2-0.5,0.8-0.9,1.4-0.9h8.1
		c0.8,0,1.5,0.7,1.5,1.5v9.5C183.3,79.1,182.7,79.8,181.8,79.8z M171.8,76.8h8.6v-6.5h-5.7L171.8,76.8z"/>
	<path class="st0" d="M192.9,75.1H184c-0.8,0-1.5-0.7-1.5-1.5v-4.7c0-0.8,0.7-1.5,1.5-1.5h8.9c0.8,0,1.5,0.7,1.5,1.5v4.7
		C194.4,74.4,193.8,75.1,192.9,75.1z M185.5,72.1h5.9v-1.7h-5.9V72.1z"/>
	<path class="st0" d="M178.4,45.2c-2.3,0-4.3-1.9-4.3-4.3s1.9-4.3,4.3-4.3s4.3,1.9,4.3,4.3S180.7,45.2,178.4,45.2z M178.4,39.7
		c-0.7,0-1.3,0.6-1.3,1.3s0.6,1.3,1.3,1.3s1.3-0.6,1.3-1.3S179.1,39.7,178.4,39.7z"/>
</g>
</svg>
