<?xml version="1.0" encoding="utf-8"?>
<!-- Generator: Adobe Illustrator 24.3.0, SVG Export Plug-In . SVG Version: 6.00 Build 0)  -->
<!DOCTYPE svg PUBLIC "-//W3C//DTD SVG 1.1//EN" "http://www.w3.org/Graphics/SVG/1.1/DTD/svg11.dtd" [
	<!ENTITY ns_extend "http://ns.adobe.com/Extensibility/1.0/">
	<!ENTITY ns_ai "http://ns.adobe.com/AdobeIllustrator/10.0/">
	<!ENTITY ns_graphs "http://ns.adobe.com/Graphs/1.0/">
	<!ENTITY ns_vars "http://ns.adobe.com/Variables/1.0/">
	<!ENTITY ns_imrep "http://ns.adobe.com/ImageReplacement/1.0/">
	<!ENTITY ns_sfw "http://ns.adobe.com/SaveForWeb/1.0/">
	<!ENTITY ns_custom "http://ns.adobe.com/GenericCustomNamespace/1.0/">
	<!ENTITY ns_adobe_xpath "http://ns.adobe.com/XPath/1.0/">
]>
<svg version="1.1" id="Layer_1" xmlns:x="&ns_extend;" xmlns:i="&ns_ai;" xmlns:graph="&ns_graphs;"
	 xmlns="http://www.w3.org/2000/svg" xmlns:xlink="http://www.w3.org/1999/xlink" x="0px" y="0px" viewBox="0 0 65 65"
	 style="enable-background:new 0 0 65 65;" xml:space="preserve">
<style type="text/css">
	.st0{fill:#66913D;}
	.st1{fill:none;stroke:#66913D;stroke-width:3;stroke-linecap:round;stroke-linejoin:round;}
	.st2{fill:none;}
	.st3{fill:#FFFFFF;}
	.st4{fill:#2F2F2F;}
	.st5{fill:#707070;}
</style>
<metadata>
	<sfw  xmlns="&ns_sfw;">
		<slices></slices>
		<sliceSourceBounds  bottomLeftOrigin="true" height="455.9" width="404.2" x="0.6" y="-456.3"></sliceSourceBounds>
	</sfw>
</metadata>
<g id="Group_13732_1_" transform="translate(-124.291 -1676.978)">
	<g id="Group_13_2_" transform="translate(163.092 1661.978) rotate(41)">
		<path class="st0" d="M40.8,70c0,0-0.1,0.1-0.1,0.1c-0.5,0.3-1.1,0.5-1.6,0.4l-15.8-2.4c-0.4-0.1-0.7-0.2-1-0.5
			c-0.5-0.4-0.7-0.9-0.8-1.5c-0.1-0.6,0.1-1.2,0.5-1.6l9.9-12.5c0.3-0.3,0.6-0.6,1-0.7c0.6-0.2,1.2-0.2,1.7,0.1
			c0.5,0.3,0.9,0.7,1.1,1.3l0.5,1.4c2.6-1.8,4.6-4.4,5.8-7.3c0.6-1.4,2.2-2.1,3.6-1.6l6.6,2.2c0,0,0.1,0,0.1,0
			c0.7,0.3,1.3,0.8,1.6,1.5c0.3,0.7,0.3,1.5,0.1,2.2c-2.5,6.4-7.1,11.7-13,15l0.6,1.2c0.2,0.4,0.2,0.8,0.2,1.2
			C41.5,69.2,41.2,69.7,40.8,70z M25.1,65.4L38,67.3l-0.5-1.2c-0.3-0.7,0-1.6,0.7-2c5.8-2.9,10.4-7.9,12.8-14l-6.4-2.2
			c-1.7,4-4.8,7.5-8.6,9.6c-0.4,0.2-0.9,0.3-1.3,0.1c-0.4-0.2-0.7-0.5-0.9-0.9l-0.6-1.8L25.1,65.4z M44.5,48.1
			C44.5,48.1,44.5,48.1,44.5,48.1L44.5,48.1z M32.8,53.8C32.8,53.8,32.8,53.8,32.8,53.8L32.8,53.8z"/>
		<path class="st0" d="M17.8,67.5c-0.2,0.2-0.5,0.3-0.7,0.5c-0.7,0.3-1.5,0.3-2.2,0.1C7.9,65.2,2.4,60-0.9,53.3L-3,53.8
			c-0.3,0.1-0.6,0.1-0.9,0c-0.6-0.1-1.1-0.5-1.4-1c-0.3-0.5-0.4-1.1-0.3-1.7l3.3-15.3c0.1-0.4,0.3-0.7,0.5-1
			c0.4-0.4,0.9-0.7,1.5-0.7c0.6,0,1.1,0.2,1.6,0.6l12.9,11.5c0.4,0.4,0.6,0.9,0.5,1.4c-0.1,0.5-0.5,0.9-1,1.1l-2.2,0.7
			c1.9,3,4.6,5.3,7.8,6.7c1.4,0.6,2.1,2.2,1.6,3.6l-2.3,6.6c0,0,0,0.1,0,0.1C18.4,66.8,18.1,67.2,17.8,67.5z M-2.4,50.6l2-0.4
			C0.4,50,1.1,50.4,1.3,51c2.8,6.4,8,11.5,14.5,14.1l2.2-6.4c-4.4-1.9-7.9-5.3-10.1-9.6c-0.2-0.4-0.2-0.8,0-1.2
			c0.2-0.4,0.5-0.7,0.9-0.8l1.5-0.5l-9.9-8.8L-2.4,50.6z M18.1,58.8L18.1,58.8L18.1,58.8z M18.1,58.7C18.1,58.7,18.1,58.7,18.1,58.7
			L18.1,58.7z"/>
		<path class="st0" d="M20.7,27.7c-0.2,0.2-0.5,0.3-0.8,0.4c-0.6,0.2-1.2,0.1-1.7-0.1c-0.5-0.3-0.9-0.7-1.1-1.3l-0.3-1
			c-2.9,1.8-5.2,4.4-6.6,7.5c-0.7,1.4-2.2,2-3.6,1.5l-6.5-2.4c0,0-0.1,0-0.1-0.1c-1.4-0.6-2.1-2.3-1.5-3.7c2.9-6.6,8-12,14.4-15.1
			l-0.6-1.9c-0.1-0.4-0.1-0.8-0.1-1.1c0.3-1.2,1.4-1.9,2.6-1.7L30.5,12c0.4,0.1,0.7,0.3,1,0.5c0.9,0.8,1,2.2,0.2,3.1L20.9,27.5
			C20.9,27.6,20.8,27.6,20.7,27.7z M20.1,25.8L20.1,25.8C20.1,25.8,20.1,25.8,20.1,25.8z M12.8,25c1.3-1.1,2.8-2.1,4.3-2.9
			c0.4-0.2,0.8-0.2,1.2,0c0.4,0.2,0.7,0.5,0.8,0.9l0.5,1.5l8.9-9.8l-12.9-2.8l0.6,1.8c0.2,0.7-0.1,1.5-0.8,1.8
			c-6.3,2.7-11.3,7.7-14,14l6.3,2.3C8.8,29.2,10.6,26.9,12.8,25z M29.9,14.9C29.9,14.9,29.9,14.9,29.9,14.9L29.9,14.9z M7.7,31.9
			L7.7,31.9C7.7,31.9,7.7,31.9,7.7,31.9z"/>
		<path class="st0" d="M53.7,44c-0.3,0.3-0.8,0.5-1.2,0.5c-0.6,0.1-1.2-0.1-1.6-0.5l-12.3-10c-0.4-0.3-0.6-0.7-0.7-1.2
			c-0.3-1.2,0.4-2.4,1.6-2.7l0.5-0.1c-1.9-2.6-4.5-4.7-7.5-5.9c-1.4-0.6-2.1-2.1-1.6-3.6l2.1-6.6c0.6-1.6,2.2-2.4,3.7-1.8
			c6.6,2.5,12.1,7.2,15.5,13.3l1.7-0.8c0.4-0.2,0.9-0.3,1.3-0.2c0.6,0.1,1.1,0.4,1.4,0.9c0.3,0.5,0.5,1.1,0.4,1.6l-2.5,15.7
			c-0.1,0.4-0.2,0.7-0.5,1C53.9,43.8,53.8,43.9,53.7,44z M51.5,42.2C51.5,42.2,51.5,42.2,51.5,42.2L51.5,42.2z M41.7,32.8l10,8.1
			l2-12.7l-1.6,0.8c-0.4,0.2-0.8,0.2-1.2,0.1c-0.4-0.1-0.7-0.4-0.9-0.8c-3-6.1-8.1-10.7-14.4-13.1l-2.1,6.4c4.2,1.7,7.7,4.9,10,8.8
			c0.2,0.4,0.3,0.9,0.1,1.3c-0.2,0.4-0.6,0.7-1,0.9L41.7,32.8z M33.6,21.6L33.6,21.6C33.6,21.6,33.6,21.6,33.6,21.6z"/>
	</g>
	<g>
		<g id="Ellipse_2673_1_" transform="translate(157 1709)">
			<circle class="st2" cx="-0.2" cy="0.5" r="9.9"/>
		</g>
		<g id="Ellipse_2674_1_" transform="translate(165 1717)">
			<circle class="st2" cx="-8.2" cy="-7.5" r="2"/>
		</g>
	</g>
</g>
</svg>
