<?xml version="1.0" encoding="utf-8"?>
<!-- Generator: Adobe Illustrator 24.3.0, SVG Export Plug-In . SVG Version: 6.00 Build 0)  -->
<!DOCTYPE svg PUBLIC "-//W3C//DTD SVG 1.1//EN" "http://www.w3.org/Graphics/SVG/1.1/DTD/svg11.dtd" [
	<!ENTITY ns_extend "http://ns.adobe.com/Extensibility/1.0/">
	<!ENTITY ns_ai "http://ns.adobe.com/AdobeIllustrator/10.0/">
	<!ENTITY ns_graphs "http://ns.adobe.com/Graphs/1.0/">
	<!ENTITY ns_vars "http://ns.adobe.com/Variables/1.0/">
	<!ENTITY ns_imrep "http://ns.adobe.com/ImageReplacement/1.0/">
	<!ENTITY ns_sfw "http://ns.adobe.com/SaveForWeb/1.0/">
	<!ENTITY ns_custom "http://ns.adobe.com/GenericCustomNamespace/1.0/">
	<!ENTITY ns_adobe_xpath "http://ns.adobe.com/XPath/1.0/">
]>
<svg version="1.1" id="Layer_1" xmlns:x="&ns_extend;" xmlns:i="&ns_ai;" xmlns:graph="&ns_graphs;"
	 xmlns="http://www.w3.org/2000/svg" xmlns:xlink="http://www.w3.org/1999/xlink" x="0px" y="0px" viewBox="0 0 23.9 22.6"
	 style="enable-background:new 0 0 23.9 22.6;" xml:space="preserve">
<style type="text/css">
	.st0{fill:#66913D;}
	.st1{fill:none;stroke:#66913D;stroke-width:3;stroke-linecap:round;stroke-linejoin:round;}
	.st2{fill:none;}
	.st3{fill:#FFFFFF;}
	.st4{fill:#2F2F2F;}
	.st5{fill:#707070;}
</style>
<metadata>
	<sfw  xmlns="&ns_sfw;">
		<slices></slices>
		<sliceSourceBounds  bottomLeftOrigin="true" height="455.9" width="404.2" x="0.6" y="-456.3"></sliceSourceBounds>
	</sfw>
</metadata>
<path class="st4" d="M18.1,15.7L16,13c-0.2-0.2-0.4-0.4-0.7-0.4c-0.3-0.1-0.7,0-0.9,0.2l-0.8,0.6l0,0l-0.5,0.4l0,0l0,0
	c0,0-0.5,0-2-1.9C9.6,10,9.7,9.5,9.7,9.5l0,0l0,0l1.2-1c0.3-0.2,0.4-0.5,0.3-0.9c0-0.3-0.2-0.5-0.3-0.7L8.8,4.2
	C8.7,4,8.5,3.9,8.3,3.9C8,3.9,7.8,4,7.7,4.2L6.8,4.9l0,0L6.3,5.3C5.4,6,4.1,9,8.5,14.3c3.8,4.7,6.6,4.6,7.8,4.2
	c0.3-0.1,0.5-0.2,0.6-0.3l0,0l1.2-1c0.2-0.2,0.3-0.4,0.3-0.6C18.5,16.4,18.4,16,18.1,15.7z"/>
</svg>
