<?xml version="1.0" encoding="utf-8"?>
<!-- Generator: Adobe Illustrator 24.3.0, SVG Export Plug-In . SVG Version: 6.00 Build 0)  -->
<!DOCTYPE svg PUBLIC "-//W3C//DTD SVG 1.1//EN" "http://www.w3.org/Graphics/SVG/1.1/DTD/svg11.dtd" [
	<!ENTITY ns_extend "http://ns.adobe.com/Extensibility/1.0/">
	<!ENTITY ns_ai "http://ns.adobe.com/AdobeIllustrator/10.0/">
	<!ENTITY ns_graphs "http://ns.adobe.com/Graphs/1.0/">
	<!ENTITY ns_vars "http://ns.adobe.com/Variables/1.0/">
	<!ENTITY ns_imrep "http://ns.adobe.com/ImageReplacement/1.0/">
	<!ENTITY ns_sfw "http://ns.adobe.com/SaveForWeb/1.0/">
	<!ENTITY ns_custom "http://ns.adobe.com/GenericCustomNamespace/1.0/">
	<!ENTITY ns_adobe_xpath "http://ns.adobe.com/XPath/1.0/">
]>
<svg version="1.1" id="Layer_1" xmlns:x="&ns_extend;" xmlns:i="&ns_ai;" xmlns:graph="&ns_graphs;"
	 xmlns="http://www.w3.org/2000/svg" xmlns:xlink="http://www.w3.org/1999/xlink" x="0px" y="0px" viewBox="0 0 65 65"
	 style="enable-background:new 0 0 65 65;" xml:space="preserve">
<style type="text/css">
	.st0{fill:#66913D;}
	.st1{fill:none;stroke:#66913D;stroke-width:3;stroke-linecap:round;stroke-linejoin:round;}
	.st2{fill:none;}
	.st3{fill:#FFFFFF;}
	.st4{fill:#2F2F2F;}
	.st5{fill:#707070;}
</style>
<metadata>
	<sfw  xmlns="&ns_sfw;">
		<slices></slices>
		<sliceSourceBounds  bottomLeftOrigin="true" height="455.9" width="404.2" x="0.6" y="-456.3"></sliceSourceBounds>
	</sfw>
</metadata>
<g id="Group_362" transform="translate(-24.645 -24.222)">
	<g id="Group_361" transform="translate(26.145 25.722)">
		<path class="st0" d="M56.5,27H20.8c-0.8,0-1.5-0.7-1.5-1.5S20,24,20.8,24h35.7c0.8,0,1.5,0.7,1.5,1.5S57.3,27,56.5,27z"/>
		<path class="st0" d="M13.1,27H5.5C4.7,27,4,26.3,4,25.5S4.7,24,5.5,24h7.6c0.8,0,1.5,0.7,1.5,1.5S13.9,27,13.1,27z"/>
		<path class="st0" d="M56.5,38.4h-8.2c-0.8,0-1.5-0.7-1.5-1.5s0.7-1.5,1.5-1.5h8.2c0.8,0,1.5,0.7,1.5,1.5S57.3,38.4,56.5,38.4z"/>
		<path class="st0" d="M56.5,15.9h-8.2c-0.8,0-1.5-0.7-1.5-1.5s0.7-1.5,1.5-1.5h8.2c0.8,0,1.5,0.7,1.5,1.5S57.3,15.9,56.5,15.9z"/>
		<path class="st0" d="M40.6,38.4H5.5c-0.8,0-1.5-0.7-1.5-1.5s0.7-1.5,1.5-1.5h35.1c0.8,0,1.5,0.7,1.5,1.5S41.4,38.4,40.6,38.4z"/>
		<path class="st0" d="M40.6,15.9H5.5c-0.8,0-1.5-0.7-1.5-1.5s0.7-1.5,1.5-1.5h35.1c0.8,0,1.5,0.7,1.5,1.5S41.4,15.9,40.6,15.9z"/>
		<path class="st0" d="M56.5,49.1H23.4c-0.8,0-1.5-0.7-1.5-1.5s0.7-1.5,1.5-1.5h33.1c0.8,0,1.5,0.7,1.5,1.5S57.3,49.1,56.5,49.1z"/>
		<path class="st0" d="M15.7,49.1H5.5c-0.8,0-1.5-0.7-1.5-1.5s0.7-1.5,1.5-1.5h10.2c0.8,0,1.5,0.7,1.5,1.5S16.6,49.1,15.7,49.1z"/>
		<path class="st0" d="M17,30.8c-0.3,0-0.7,0-1-0.1c-0.9-0.2-1.8-0.6-2.6-1.3c-0.3-0.3-0.6-0.6-0.8-0.9c-0.3-0.4-0.5-0.9-0.7-1.4
			c-0.1-0.4-0.2-0.9-0.3-1.4c0-0.1,0-0.2,0-0.4c0-0.3,0-0.6,0.1-1c0.2-0.9,0.6-1.8,1.3-2.6c0.3-0.3,0.6-0.6,0.9-0.8
			c0.4-0.3,0.9-0.5,1.4-0.7c0.4-0.2,0.9-0.3,1.5-0.3c0.4,0,0.8,0,1.3,0.1c0.9,0.2,1.8,0.6,2.5,1.3c0.3,0.3,0.6,0.6,0.9,1
			c0.3,0.4,0.5,0.8,0.6,1.3c0.2,0.4,0.3,0.9,0.3,1.5c0,0.1,0,0.2,0,0.3c0,0.3,0,0.7-0.1,1c-0.2,0.9-0.6,1.8-1.3,2.5
			c-0.3,0.3-0.6,0.6-1,0.9c-0.4,0.3-0.8,0.5-1.3,0.6c-0.4,0.1-0.9,0.2-1.4,0.3C17.2,30.8,17.1,30.8,17,30.8z M17,23.1
			c0,0-0.1,0-0.1,0c-0.3,0-0.5,0-0.7,0.1c-0.2,0.1-0.4,0.2-0.6,0.3c-0.1,0.1-0.3,0.2-0.4,0.4c-0.3,0.3-0.5,0.7-0.6,1.1
			c0,0.2,0,0.3-0.1,0.5c0,0,0,0.1,0,0.1c0,0.2,0.1,0.4,0.1,0.6c0.1,0.2,0.2,0.4,0.3,0.6c0.1,0.1,0.2,0.3,0.4,0.4
			c0.3,0.3,0.7,0.5,1.1,0.6c0.2,0,0.4,0.1,0.6,0c0.2,0,0.4-0.1,0.6-0.1c0.2-0.1,0.4-0.2,0.6-0.3c0.2-0.1,0.3-0.2,0.4-0.4
			c0.3-0.3,0.5-0.7,0.6-1.1c0-0.2,0.1-0.3,0.1-0.4c0,0,0-0.1,0-0.1c0-0.3-0.1-0.5-0.1-0.7c-0.1-0.2-0.2-0.4-0.3-0.6
			c-0.1-0.2-0.2-0.3-0.4-0.4c-0.3-0.3-0.7-0.5-1.1-0.6C17.2,23.2,17.1,23.1,17,23.1z"/>
		<path class="st0" d="M44.4,42.2c-0.3,0-0.6,0-1-0.1c-1-0.2-1.9-0.6-2.6-1.3c-0.3-0.3-0.6-0.6-0.8-0.9c-0.3-0.4-0.5-0.8-0.7-1.3
			c-0.2-0.4-0.2-0.9-0.3-1.4c0-0.1,0-0.2,0-0.4c0-0.3,0-0.7,0.1-1c0.2-0.9,0.6-1.8,1.3-2.6c0.2-0.3,0.6-0.6,0.9-0.8
			c0.4-0.3,0.9-0.5,1.3-0.7c0.5-0.2,1-0.3,1.5-0.3c0.4,0,0.8,0,1.2,0.1c1,0.2,1.9,0.6,2.6,1.3c0.3,0.3,0.6,0.6,0.9,1
			c0.3,0.4,0.5,0.8,0.6,1.3c0.2,0.5,0.3,1,0.3,1.5c0,0,0,0,0,0v0.2c0,0.3,0,0.7-0.1,1c-0.2,0.9-0.6,1.8-1.3,2.6
			c-0.3,0.3-0.6,0.6-1,0.9c-0.4,0.3-0.8,0.5-1.3,0.6c-0.4,0.1-0.9,0.2-1.4,0.3C44.7,42.2,44.6,42.2,44.4,42.2z M44.4,34.5
			C44.4,34.5,44.3,34.5,44.4,34.5c-0.3,0-0.5,0-0.7,0.1c-0.2,0.1-0.4,0.2-0.6,0.3c-0.2,0.1-0.3,0.2-0.4,0.4
			c-0.3,0.3-0.5,0.7-0.6,1.1c0,0.2-0.1,0.3-0.1,0.5c0,0,0,0.1,0,0.1c0,0.2,0.1,0.4,0.1,0.6c0.1,0.2,0.2,0.4,0.3,0.6
			c0.1,0.2,0.2,0.3,0.4,0.4c0.3,0.3,0.7,0.5,1.1,0.6c0.2,0,0.4,0,0.6,0c0.2,0,0.4-0.1,0.6-0.1c0.2-0.1,0.4-0.2,0.5-0.3
			c0.2-0.1,0.3-0.2,0.4-0.4c0.3-0.3,0.5-0.7,0.6-1.1c0-0.2,0-0.3,0-0.4l0-0.2c0-0.2,0-0.4-0.1-0.6c-0.1-0.2-0.2-0.4-0.3-0.6
			c-0.1-0.1-0.2-0.3-0.4-0.4c-0.3-0.3-0.7-0.5-1.1-0.6C44.7,34.5,44.6,34.5,44.4,34.5z"/>
		<path class="st0" d="M44.4,19.8c-0.3,0-0.6,0-1-0.1c-1-0.2-1.9-0.6-2.6-1.3c-0.3-0.3-0.6-0.6-0.8-0.9c-0.3-0.4-0.5-0.8-0.7-1.3
			c-0.2-0.4-0.2-0.9-0.3-1.4c0-0.1,0-0.2,0-0.4c0-0.3,0-0.6,0.1-1c0.2-0.9,0.6-1.8,1.3-2.6c0.2-0.3,0.6-0.6,0.9-0.8
			c0.4-0.3,0.8-0.5,1.3-0.7c0.5-0.2,1-0.3,1.5-0.3c0.4,0,0.8,0,1.2,0.1c1,0.2,1.9,0.6,2.6,1.3c0.3,0.3,0.6,0.6,0.9,1
			c0.3,0.4,0.5,0.8,0.6,1.3c0.2,0.5,0.3,1,0.3,1.5c0,0,0,0,0,0v0.2c0,0.3,0,0.7-0.1,1c-0.2,0.9-0.6,1.8-1.3,2.6
			c-0.3,0.3-0.6,0.6-1,0.9c-0.4,0.3-0.8,0.5-1.3,0.6c-0.4,0.1-0.9,0.2-1.4,0.3C44.7,19.8,44.6,19.8,44.4,19.8z M44.4,12.1
			C44.4,12.1,44.3,12.1,44.4,12.1c-0.3,0-0.5,0.1-0.7,0.1c-0.2,0.1-0.4,0.2-0.6,0.3c-0.2,0.1-0.3,0.2-0.4,0.4
			c-0.3,0.3-0.5,0.7-0.6,1.1c0,0.2-0.1,0.3-0.1,0.5c0,0,0,0.1,0,0.1c0,0.2,0.1,0.4,0.1,0.6c0.1,0.2,0.2,0.4,0.3,0.6
			c0.1,0.2,0.2,0.3,0.4,0.4c0.3,0.3,0.7,0.5,1.1,0.6c0.2,0,0.4,0,0.6,0c0.2,0,0.4-0.1,0.6-0.1c0.2-0.1,0.4-0.2,0.5-0.3
			c0.2-0.1,0.3-0.2,0.4-0.4c0.3-0.3,0.5-0.7,0.6-1.1c0-0.2,0-0.3,0-0.4l0-0.2c0-0.2,0-0.4-0.1-0.6c-0.1-0.2-0.2-0.4-0.3-0.6
			c-0.1-0.1-0.2-0.3-0.4-0.4c-0.3-0.3-0.7-0.5-1.2-0.6C44.7,12.1,44.6,12.1,44.4,12.1z"/>
		<path class="st0" d="M19.6,52.9c-0.3,0-0.7,0-1-0.1c-0.9-0.2-1.8-0.6-2.6-1.3c-0.3-0.3-0.6-0.6-0.8-0.9c-0.6-0.8-0.9-1.7-1-2.7
			c0-0.1,0-0.2,0-0.4c0-1.3,0.5-2.5,1.4-3.5c0.3-0.3,0.6-0.6,0.9-0.8c0.4-0.3,0.8-0.5,1.3-0.7c0.4-0.2,0.9-0.2,1.4-0.3
			c0.4,0,0.9,0,1.3,0.1c0.9,0.2,1.8,0.6,2.5,1.3c0.3,0.2,0.6,0.6,0.9,0.9c0.3,0.4,0.5,0.8,0.6,1.3c0.2,0.5,0.3,1,0.3,1.5
			c0,0.1,0,0.2,0,0.3c0,0.3,0,0.6-0.1,0.9c-0.2,1-0.6,1.9-1.3,2.6c-0.3,0.3-0.6,0.6-1,0.9c-0.4,0.3-0.8,0.5-1.3,0.6
			c-0.5,0.2-0.9,0.3-1.4,0.3C19.8,52.9,19.7,52.9,19.6,52.9z M19.6,45.2c0,0-0.1,0-0.1,0c-0.3,0-0.5,0.1-0.7,0.1
			c-0.2,0.1-0.4,0.2-0.6,0.3c-0.2,0.1-0.3,0.2-0.4,0.4c-0.4,0.4-0.6,1-0.6,1.6c0,0,0,0.1,0,0.2c0,0.4,0.2,0.8,0.4,1.2
			c0.1,0.1,0.2,0.3,0.4,0.4c0.3,0.3,0.7,0.5,1.1,0.6c0.2,0,0.4,0.1,0.6,0c0.2,0,0.4-0.1,0.6-0.1c0.2-0.1,0.4-0.2,0.6-0.3
			c0.1-0.1,0.3-0.2,0.4-0.4c0.3-0.3,0.5-0.7,0.6-1.1c0-0.1,0-0.3,0-0.4c0,0,0,0,0,0c0,0,0-0.1,0-0.1c0-0.2,0-0.4-0.1-0.6
			c-0.1-0.2-0.2-0.4-0.3-0.6c-0.1-0.1-0.2-0.3-0.3-0.4c-0.4-0.3-0.7-0.5-1.1-0.6C19.9,45.2,19.7,45.2,19.6,45.2z"/>
	</g>
</g>
</svg>
