<?xml version="1.0" encoding="utf-8"?>
<!-- Generator: Adobe Illustrator 24.3.0, SVG Export Plug-In . SVG Version: 6.00 Build 0)  -->
<!DOCTYPE svg PUBLIC "-//W3C//DTD SVG 1.1//EN" "http://www.w3.org/Graphics/SVG/1.1/DTD/svg11.dtd" [
	<!ENTITY ns_extend "http://ns.adobe.com/Extensibility/1.0/">
	<!ENTITY ns_ai "http://ns.adobe.com/AdobeIllustrator/10.0/">
	<!ENTITY ns_graphs "http://ns.adobe.com/Graphs/1.0/">
	<!ENTITY ns_vars "http://ns.adobe.com/Variables/1.0/">
	<!ENTITY ns_imrep "http://ns.adobe.com/ImageReplacement/1.0/">
	<!ENTITY ns_sfw "http://ns.adobe.com/SaveForWeb/1.0/">
	<!ENTITY ns_custom "http://ns.adobe.com/GenericCustomNamespace/1.0/">
	<!ENTITY ns_adobe_xpath "http://ns.adobe.com/XPath/1.0/">
]>
<svg version="1.1" id="Layer_1" xmlns:x="&ns_extend;" xmlns:i="&ns_ai;" xmlns:graph="&ns_graphs;"
	 xmlns="http://www.w3.org/2000/svg" xmlns:xlink="http://www.w3.org/1999/xlink" x="0px" y="0px" viewBox="0 0 65 65"
	 style="enable-background:new 0 0 65 65;" xml:space="preserve">
<style type="text/css">
	.st0{fill:#66913D;}
	.st1{fill:none;stroke:#66913D;stroke-width:3;stroke-linecap:round;stroke-linejoin:round;}
	.st2{fill:none;}
	.st3{fill:#FFFFFF;}
	.st4{fill:#2F2F2F;}
	.st5{fill:#707070;}
</style>
<metadata>
	<sfw  xmlns="&ns_sfw;">
		<slices></slices>
		<sliceSourceBounds  bottomLeftOrigin="true" height="455.9" width="404.2" x="0.6" y="-456.3"></sliceSourceBounds>
	</sfw>
</metadata>
<g id="Group_398" transform="translate(-1640 -556)">
	<g id="Ellipse_2694_1_" transform="translate(1640 556)">
		<circle class="st2" cx="32.5" cy="32.5" r="31.6"/>
		<path class="st0" d="M32.5,64.4c-17.6,0-31.9-14.3-31.9-31.9S14.9,0.6,32.5,0.6s31.9,14.3,31.9,31.9S50.1,64.4,32.5,64.4z
			 M32.5,3.6c-16,0-28.9,13-28.9,28.9s13,28.9,28.9,28.9c16,0,28.9-13,28.9-28.9S48.5,3.6,32.5,3.6z"/>
	</g>
	<g id="Polygon_2" transform="translate(1699 578) rotate(90)">
		<path class="st2" d="M8.5,14.9c0.7-1.1,2.1-1.5,3.3-0.8c0.3,0.2,0.6,0.5,0.8,0.8l10,16.7c0.7,1.1,0.3,2.6-0.8,3.3
			c-0.4,0.2-0.8,0.3-1.2,0.3H0.5c-1.3,0-2.4-1.1-2.4-2.4c0-0.4,0.1-0.9,0.3-1.2L8.5,14.9z"/>
		<path class="st0" d="M10.5,16.1C10.5,16.1,10.5,16.1,10.5,16.1l-10,16.7h20.1L10.5,16.1C10.5,16.1,10.5,16.1,10.5,16.1 M10.5,13.7
			c0.8,0,1.6,0.4,2,1.2l10,16.7c0.9,1.6-0.2,3.6-2,3.6H0.5c-1.8,0-3-2-2-3.6l10-16.7C8.9,14.1,9.7,13.7,10.5,13.7z"/>
	</g>
</g>
</svg>
