<?xml version="1.0" encoding="utf-8"?>
<!-- Generator: Adobe Illustrator 24.3.0, SVG Export Plug-In . SVG Version: 6.00 Build 0)  -->
<!DOCTYPE svg PUBLIC "-//W3C//DTD SVG 1.1//EN" "http://www.w3.org/Graphics/SVG/1.1/DTD/svg11.dtd" [
	<!ENTITY ns_extend "http://ns.adobe.com/Extensibility/1.0/">
	<!ENTITY ns_ai "http://ns.adobe.com/AdobeIllustrator/10.0/">
	<!ENTITY ns_graphs "http://ns.adobe.com/Graphs/1.0/">
	<!ENTITY ns_vars "http://ns.adobe.com/Variables/1.0/">
	<!ENTITY ns_imrep "http://ns.adobe.com/ImageReplacement/1.0/">
	<!ENTITY ns_sfw "http://ns.adobe.com/SaveForWeb/1.0/">
	<!ENTITY ns_custom "http://ns.adobe.com/GenericCustomNamespace/1.0/">
	<!ENTITY ns_adobe_xpath "http://ns.adobe.com/XPath/1.0/">
]>
<svg version="1.1" id="Layer_1" xmlns:x="&ns_extend;" xmlns:i="&ns_ai;" xmlns:graph="&ns_graphs;"
	 xmlns="http://www.w3.org/2000/svg" xmlns:xlink="http://www.w3.org/1999/xlink" x="0px" y="0px" viewBox="0 0 65 65"
	 style="enable-background:new 0 0 65 65;" xml:space="preserve">
<style type="text/css">
	.st0{fill:#66913D;}
	.st1{fill:none;stroke:#66913D;stroke-width:3;stroke-linecap:round;stroke-linejoin:round;}
	.st2{fill:none;}
	.st3{fill:#FFFFFF;}
	.st4{fill:#2F2F2F;}
	.st5{fill:#707070;}
</style>
<metadata>
	<sfw  xmlns="&ns_sfw;">
		<slices></slices>
		<sliceSourceBounds  bottomLeftOrigin="true" height="455.9" width="404.2" x="0.6" y="-456.3"></sliceSourceBounds>
	</sfw>
</metadata>
<g id="Group_13715" transform="translate(-16.715 -13.421)">
	<path class="st3" d="M75.2,61.7H23.2c-1.7,0-3.2-0.6-4.4-1.8S17,57.1,17,55.4V23.9c0-3.4,2.8-6.2,6.2-6.2c0,0,0,0,0,0h51.9
		c3.4,0,6.2,2.8,6.2,6.2v31.6C81.4,58.9,78.6,61.7,75.2,61.7z M23.2,20.7c-1.8,0-3.2,1.5-3.2,3.2v31.6c0,0.9,0.3,1.7,0.9,2.3
		c0.6,0.6,1.4,0.9,2.3,0.9h51.9c1.8,0,3.2-1.4,3.2-3.2V23.9c0-1.8-1.4-3.2-3.2-3.2H23.2z"/>
	<path class="st3" d="M49.2,70c-0.8,0-1.5-0.7-1.5-1.5v-8.2c0-0.8,0.7-1.5,1.5-1.5s1.5,0.7,1.5,1.5v8.2C50.7,69.3,50,70,49.2,70z"/>
	<path class="st3" d="M32,74.2c-0.5,0-1-0.3-1.3-0.7c-0.4-0.7-0.2-1.6,0.5-2.1l6.9-4.2c0.2-0.1,0.5-0.2,0.8-0.2h21.9
		c0.3,0,0.6,0.1,0.9,0.3l5.5,4.2c0.7,0.5,0.8,1.4,0.3,2.1s-1.4,0.8-2.1,0.3L60.4,70h-21l-6.5,4C32.6,74.1,32.3,74.2,32,74.2z"/>
	<g id="Group_13714" transform="translate(40.096 23.582)">
		<path class="st3" d="M8.8,30.2c-1.3,0-2.5-0.2-3.7-0.5c-0.1,0-0.2,0-0.3-0.1C-1.3,28-5.8,22.3-5.8,15.6c0-8.1,6.6-14.7,14.7-14.7
			l0,0c8.1,0,14.7,6.6,14.7,14.7c0,3.6-1.3,7-3.6,9.6c0,0.1-0.1,0.1-0.1,0.2C17.1,28.3,13.2,30.2,8.8,30.2
			C8.8,30.2,8.8,30.2,8.8,30.2z M8.3,27.2c0.2,0,0.3,0,0.5,0c0,0,0,0,0,0c3.4,0,6.4-1.4,8.5-3.7c0.6-2.9,1.1-6.6,0.7-8.9
			c-1.4-0.2-2.6-0.8-3.6-1.8c-2.1-2.1-2.5-5.4-0.9-7.9c-1.4-0.6-3-1-4.7-1C7.9,3.9,7,4,6.2,4.2v1.2C6.2,6,5.9,6.6,5.5,7l-3.3,3.3
			c-0.4,0.4-1,0.7-1.6,0.7h-2.5c-0.6,1.4-0.9,3-0.9,4.6c0,3.1,1.2,6,3.4,8.3c0.4,0.4,0.8,0.7,1.2,1V23L-0.3,22
			c-0.8-0.4-1.3-1.2-1.3-2.1v-5.1c0-1.3,1.1-2.4,2.4-2.4h3.4c0,0,0,0,0,0c0.6,0,1.2,0.3,1.7,0.7c0.8,0.8,3.2,2.7,5.2,2.7
			c1.3,0,2.4,1.1,2.4,2.4v2.6c0,0.6-0.2,1.1-0.6,1.6L8.3,27.2z M4.8,26.5c0,0,0.1,0,0.1,0l5.4-6.1v-1.7c-3-0.3-5.7-2.7-6.5-3.4H1.4
			v4.1l2.6,1.3c0.5,0.3,0.8,0.8,0.8,1.3V26.5z M4.1,15.4C4.1,15.4,4.1,15.4,4.1,15.4L4.1,15.4z M19.2,11.7c0.2,0,0.5,0.1,0.7,0.2
			c-0.7-2.1-2.1-4-3.8-5.4c-0.8,1.3-0.7,3.1,0.5,4.2c0.6,0.6,1.5,1,2.4,1l0.1,0C19.1,11.7,19.2,11.7,19.2,11.7z M0,8h0.3l2.2-2.2
			C1.6,6.4,0.7,7.1,0,8z M3.2,5.4C3.2,5.4,3.2,5.4,3.2,5.4L3.2,5.4z"/>
	</g>
</g>
</svg>
