<?xml version="1.0" encoding="utf-8"?>
<!-- Generator: Adobe Illustrator 24.3.0, SVG Export Plug-In . SVG Version: 6.00 Build 0)  -->
<!DOCTYPE svg PUBLIC "-//W3C//DTD SVG 1.1//EN" "http://www.w3.org/Graphics/SVG/1.1/DTD/svg11.dtd" [
	<!ENTITY ns_extend "http://ns.adobe.com/Extensibility/1.0/">
	<!ENTITY ns_ai "http://ns.adobe.com/AdobeIllustrator/10.0/">
	<!ENTITY ns_graphs "http://ns.adobe.com/Graphs/1.0/">
	<!ENTITY ns_vars "http://ns.adobe.com/Variables/1.0/">
	<!ENTITY ns_imrep "http://ns.adobe.com/ImageReplacement/1.0/">
	<!ENTITY ns_sfw "http://ns.adobe.com/SaveForWeb/1.0/">
	<!ENTITY ns_custom "http://ns.adobe.com/GenericCustomNamespace/1.0/">
	<!ENTITY ns_adobe_xpath "http://ns.adobe.com/XPath/1.0/">
]>
<svg version="1.1" id="Layer_1" xmlns:x="&ns_extend;" xmlns:i="&ns_ai;" xmlns:graph="&ns_graphs;"
	 xmlns="http://www.w3.org/2000/svg" xmlns:xlink="http://www.w3.org/1999/xlink" x="0px" y="0px" viewBox="0 0 65 65"
	 style="enable-background:new 0 0 65 65;" xml:space="preserve">
<style type="text/css">
	.st0{fill:#66913D;}
	.st1{fill:none;stroke:#66913D;stroke-width:3;stroke-linecap:round;stroke-linejoin:round;}
	.st2{fill:none;}
	.st3{fill:#FFFFFF;}
	.st4{fill:#2F2F2F;}
	.st5{fill:#707070;}
</style>
<metadata>
	<sfw  xmlns="&ns_sfw;">
		<slices></slices>
		<sliceSourceBounds  bottomLeftOrigin="true" height="455.9" width="404.2" x="0.6" y="-456.3"></sliceSourceBounds>
	</sfw>
</metadata>
<g id="Group_330" transform="translate(76.859 74.356) rotate(180)">
	<path class="st0" d="M25.8,11.3c4.7,0,12.7,1,12.7,5v19c0,0.8-0.7,1.5-1.5,1.5H14.6c-0.8,0-1.5-0.7-1.5-1.5v-19
		C13.1,12.4,21.1,11.3,25.8,11.3z M35.5,16.4c-0.5-0.6-3.7-2.1-9.7-2.1c-6,0-9.3,1.4-9.7,2.1v17.4h19.4V16.4z"/>
	<path class="st0" d="M18.9,38h14.6c0.8,0,1.5,0.7,1.5,1.5v2.3c0,0.7-0.5,1.3-1.2,1.5c-1.1,0.3-2.1,0.8-2.9,1.6
		c-2.4,2.4-2.4,6.2,0,8.6c0.8,0.8,1.8,1.3,2.9,1.6c0.7,0.2,1.1,0.8,1.1,1.5V59c0,0.2,0,0.3-0.1,0.5c-0.3,1.4-1.9,2.3-4.8,2.8
		c-1.3,0.2-2.6,0.3-3.9,0.3c-1.3,0-2.6-0.1-3.9-0.3c-2.9-0.5-4.5-1.4-4.8-2.8c0-0.2-0.1-0.3-0.1-0.5V39.5C17.4,38.7,18.1,38,18.9,38
		z M31.3,41H20.4v17.6c0.3,0.2,1,0.5,2.4,0.7c1.1,0.2,2.3,0.3,3.4,0.3c1.2,0,2.3-0.1,3.4-0.3c1.3-0.2,2.1-0.5,2.4-0.7l0-1
		c-1.2-0.5-2.2-1.1-3.1-2c-1.7-1.7-2.7-4-2.7-6.4s0.9-4.7,2.7-6.4C29.6,42,30.4,41.4,31.3,41z M20.4,58.9
		C20.4,58.9,20.4,58.9,20.4,58.9L20.4,58.9z M32,59L32,59C32,59,32,59,32,59z"/>
	<path class="st0" d="M18.9,57.5C18.9,57.5,18.9,57.5,18.9,57.5c0.8,0,1.4,0.6,1.5,1.4c0.1,0.4,0,0.8-0.3,1.2
		c-0.3,0.4-0.7,0.6-1.2,0.6c-0.8,0-1.5-0.7-1.5-1.5V59c0,0,0,0,0,0C17.4,58.1,18.1,57.5,18.9,57.5z"/>
	<path class="st0" d="M22.5,59.3c0.1,0,0.2,0,0.2,0c1.1,0.2,2.3,0.3,3.4,0.3c1.2,0,2.3-0.1,3.4-0.3c0.4-0.1,0.9,0.1,1.2,0.3
		c0.3,0.3,0.5,0.7,0.5,1.1v10.1c0,0.8-0.7,1.5-1.5,1.5h-7.4c-0.8,0-1.5-0.7-1.5-1.5V60.8c0-0.4,0.2-0.9,0.5-1.1
		C21.8,59.4,22.2,59.3,22.5,59.3z M28.4,69.4v-6.9c-0.7,0.1-1.5,0.1-2.2,0.1c-0.7,0-1.4,0-2.2-0.1v6.9H28.4z"/>
	<path class="st0" d="M62.9,11.3c4.7,0,12.7,1,12.7,5v19c0,0.8-0.7,1.5-1.5,1.5H51.7c-0.8,0-1.5-0.7-1.5-1.5v-19
		C50.2,12.4,58.2,11.3,62.9,11.3z M72.6,16.4c-0.5-0.6-3.7-2.1-9.7-2.1c-6,0-9.3,1.4-9.7,2.1v17.4h19.4V16.4z"/>
	<path class="st0" d="M55.2,38h14.6c0.8,0,1.5,0.7,1.5,1.5v19.5c0,0.2,0,0.3-0.1,0.5c-0.3,1.4-1.9,2.3-4.8,2.8
		c-1.3,0.2-2.6,0.3-3.9,0.3c-1.3,0-2.6-0.1-3.9-0.3c-2.9-0.5-4.5-1.4-4.8-2.8c0-0.2-0.1-0.3-0.1-0.5v-2.4c0-0.7,0.5-1.3,1.1-1.5
		c1.1-0.3,2.1-0.8,2.9-1.6c2.4-2.4,2.4-6.2,0-8.6c-0.8-0.8-1.8-1.3-2.9-1.6c-0.7-0.2-1.2-0.8-1.2-1.5v-2.3
		C53.7,38.7,54.4,38,55.2,38z M68.3,41H57.4c0.9,0.4,1.7,1,2.5,1.7c3.5,3.5,3.5,9.3,0,12.8c-0.9,0.9-2,1.6-3.1,2v1
		c0.3,0.2,1,0.5,2.4,0.7c1.1,0.2,2.3,0.3,3.4,0.3c1.1,0,2.3-0.1,3.4-0.3c1.3-0.2,2.1-0.5,2.4-0.7V41z M56.7,59
		C56.7,58.9,56.7,58.9,56.7,59L56.7,59z M68.3,59L68.3,59C68.3,59,68.3,59,68.3,59z"/>
	<path class="st0" d="M69.8,57.5c0.8,0,1.5,0.7,1.5,1.5c0,0,0,0,0,0v0.1c0,0.8-0.7,1.5-1.5,1.5c-0.5,0-0.9-0.2-1.2-0.6
		c-0.3-0.3-0.4-0.8-0.3-1.2C68.4,58.1,69,57.5,69.8,57.5C69.8,57.5,69.8,57.5,69.8,57.5z M68.3,58.7C68.3,58.7,68.3,58.7,68.3,58.7
		C68.3,58.7,68.3,58.7,68.3,58.7z"/>
	<path class="st0" d="M66.2,59.3c0.4,0,0.7,0.1,1,0.4c0.3,0.3,0.5,0.7,0.5,1.1v10.1c0,0.8-0.7,1.5-1.5,1.5h-7.4
		c-0.8,0-1.5-0.7-1.5-1.5V60.8c0-0.4,0.2-0.9,0.5-1.1c0.3-0.3,0.8-0.4,1.2-0.3c1.1,0.2,2.3,0.3,3.4,0.3c1.2,0,2.3-0.1,3.4-0.3
		C66,59.3,66.1,59.3,66.2,59.3z M62.4,62.6c-0.7,0-1.4,0-2.1-0.1v6.9h4.4v-6.9C64,62.5,63.2,62.6,62.4,62.6
		C62.5,62.6,62.5,62.6,62.4,62.6z"/>
	<path class="st0" d="M36.9,42.9h14.9c3.3,0,6.1,2.7,6.1,6.1s-2.7,6.1-6.1,6.1H36.9c-3.3,0-6.1-2.7-6.1-6.1S33.5,42.9,36.9,42.9z
		 M51.8,52.1c1.7,0,3.1-1.4,3.1-3.1s-1.4-3.1-3.1-3.1H36.9c-1.7,0-3.1,1.4-3.1,3.1s1.4,3.1,3.1,3.1H51.8z"/>
</g>
</svg>
