<?xml version="1.0" encoding="utf-8"?>
<!-- Generator: Adobe Illustrator 24.3.0, SVG Export Plug-In . SVG Version: 6.00 Build 0)  -->
<!DOCTYPE svg PUBLIC "-//W3C//DTD SVG 1.1//EN" "http://www.w3.org/Graphics/SVG/1.1/DTD/svg11.dtd" [
	<!ENTITY ns_extend "http://ns.adobe.com/Extensibility/1.0/">
	<!ENTITY ns_ai "http://ns.adobe.com/AdobeIllustrator/10.0/">
	<!ENTITY ns_graphs "http://ns.adobe.com/Graphs/1.0/">
	<!ENTITY ns_vars "http://ns.adobe.com/Variables/1.0/">
	<!ENTITY ns_imrep "http://ns.adobe.com/ImageReplacement/1.0/">
	<!ENTITY ns_sfw "http://ns.adobe.com/SaveForWeb/1.0/">
	<!ENTITY ns_custom "http://ns.adobe.com/GenericCustomNamespace/1.0/">
	<!ENTITY ns_adobe_xpath "http://ns.adobe.com/XPath/1.0/">
]>
<svg version="1.1" id="Layer_1" xmlns:x="&ns_extend;" xmlns:i="&ns_ai;" xmlns:graph="&ns_graphs;"
	 xmlns="http://www.w3.org/2000/svg" xmlns:xlink="http://www.w3.org/1999/xlink" x="0px" y="0px" viewBox="0 0 68.9 54.3"
	 style="enable-background:new 0 0 68.9 54.3;" xml:space="preserve">
<style type="text/css">
	.st0{fill:#FFFFFF;}
	.st1{fill:#E4E5E0;}
	.st2{fill:#6D6250;}
	.st3{fill:#6D444E;}
	.st4{opacity:0.62;fill:#D3CDC5;enable-background:new    ;}
	.st5{fill:#494339;}
	.st6{fill:#262115;}
	.st7{fill:#F9F5EF;}
	.st8{fill:#B8833D;}
	.st9{fill:#191413;}
	.st10{fill:#FCDD47;}
</style>
<metadata>
	<sfw  xmlns="&ns_sfw;">
		<slices></slices>
		<sliceSourceBounds  bottomLeftOrigin="true" height="133.7" width="249.7" x="-58.5" y="-16.6"></sliceSourceBounds>
	</sfw>
</metadata>
<g id="Group_704" transform="translate(-1208.953 -839.474)">
	<path id="Path_1828" class="st9" d="M1241.3,853.8c1.2-0.2,2.5,0.3,3.3,1.2c0.2,0.3,0.4,0.5,0.6,0.7c0.5,0.3,1.2,0.2,1.6,0.7
		c0.4,0.4,0.2,1.1,0.6,1.6c0.4,0.6,1.4,0.6,1.8,1.2c0.1,0.2,0.2,0.4,0.2,0.7l0.7,4.5c0.1,0.4,0.1,0.7,0.1,1.1
		c-0.2,1.5-1.9,2.3-3.4,2.6c-2.6,0.7-5.3,1-8,1c-4.8,0.1-6.7-3.7-6.3-8.3C1232.8,856.9,1237.9,854.5,1241.3,853.8z"/>
	<path id="Path_1829" class="st10" d="M1231.3,873.8c-0.1,0.3-0.3,0.6-0.7,0.6c-0.2,0-0.4-0.1-0.5-0.3c-2.2-2.1-2.5-4.9-3.2-7.7
		c-0.6-2.4-1.3-5.3,0.5-7.4c2.1-2.4,8.5-1,9,2.3c0,1,0,2.1-0.1,3.1C1236.4,868.4,1232.9,870.4,1231.3,873.8z"/>
	<path id="Path_1830" class="st9" d="M1232,862.7c-0.4-0.1-0.9,0.2-1.1,0.5c-0.2,0.4-0.3,0.8-0.3,1.2l-0.2,1.8c-0.1,0.3-0.1,0.7,0,1
		c0.1,0.3,0.4,0.6,0.7,0.6c0.3,0,0.6-0.2,0.8-0.5l1.9-1.9c0.4-0.3,0.7-0.7,0.9-1.2c0.2-0.5,0.2-1-0.1-1.5c-0.3-0.4-1-0.6-1.1-1.2"/>
	<path id="Path_1831" class="st10" d="M1262.2,878.9c1.9-0.5,3.7-1.3,5.4-2.3c0.7-0.4,1.8-1,1.9-1.9c0.1-0.9-0.6-1.9-1-2.6
		c-0.1-0.2-0.2-0.4-0.4-0.6c-0.5-0.4-1.2-0.4-1.8-0.1c-1.5,0.6-2.8,1.9-4.3,2.6c-1.7,0.8-3.6,1-5.1,2.2c-0.2,0.1-0.3,0.3-0.3,0.5
		c0,0.1,0.1,0.2,0.1,0.3c0.5,0.7,1.1,2,1.9,2.3C1259.8,879.7,1261.2,879.1,1262.2,878.9z"/>
	<path id="Path_1832" class="st9" d="M1255.5,874.7c0.2,0.8,0.6,1.6,1.1,2.3c0.1,0.2,0.3,0.3,0.6,0.4c0.2,0,0.4-0.1,0.6-0.2
		c1.1-0.4,2.3,0.2,3.4,0.5c0.3,0.1,0.5,0.1,0.8,0c0.3-0.1,0.5-0.3,0.5-0.5c0-0.8-1.2-1.1-1.3-2c-0.1-0.2,0-0.5,0.2-0.6
		c0.3-0.3,0.8,0.1,1.2,0.2c0.6,0.1,1.1,0,1.6-0.4c1.3-0.8,2.6-1.8,3.6-2.9c0.3-0.2,0.5-0.6,0.4-0.9c0-0.2-0.1-0.3-0.2-0.4
		c-0.5-0.6-1.1-1.2-1.6-1.8c-0.2-0.3-0.6-0.4-0.9-0.4c-0.4,0-0.8,0.5-1.2,0.4"/>
	<path id="Path_1833" class="st10" d="M1262.6,864c0.9,0.2,1.8,0.7,2.3,1.5c0.5,0.8,0.8,1.7,0.9,2.7c0,0.2,0,0.3,0,0.5
		c-0.1,0.2-0.3,0.4-0.5,0.5c-0.9,0.8-1.8,1.6-2.6,2.5c-1.8,1.8-4.3,2.9-6.9,3c-0.2,0-0.4,0-0.5-0.1c-0.2-0.2-0.4-0.4-0.4-0.7
		c-0.2-1-0.3-2-0.4-3.1"/>
	<path id="Path_1834" class="st9" d="M1253.1,869c-0.5,0.8-0.4,1.8,0.3,2.3c0.7,0.5,1.6,0.8,2.4,0.9l1.8,0.3c0.2,0.1,0.4,0,0.5,0
		c0.1-0.1,0.2-0.2,0.2-0.3c0.2-0.8-0.1-1.6-0.8-2c-0.3-0.2-0.8-0.4-0.9-0.8c0-0.3,0.2-0.6,0.6-0.7c0.3-0.1,0.7-0.1,1-0.1
		c0.7-0.1,1.3-0.4,1.8-0.8c0.7-0.4,1.4-1,2-1.6c0.6-0.7,0.8-1.5,0.7-2.4l-1.8-1.1c-0.2-0.1-0.5-0.3-0.7-0.3c-0.4,0-0.8,0.1-1.1,0.3
		c-1.8,1-3.6,2.1-5.3,3.4"/>
	<g id="Group_702" transform="translate(1208.953 859.633)">
		<path id="Path_1835" class="st9" d="M17.6,2.7c-0.6-0.3-1.2-0.5-1.9-0.4c-0.6,0.2-1.1,1-0.7,1.5c1,0,1.9-0.2,2.7-0.8"/>
		<path id="Path_1836" class="st9" d="M1.9,6C1.5,6.2,1.2,6.6,1.1,7c2.6-0.1,5-1.2,7.3-2.3c0.4-0.2,0.8-0.4,1.3-0.5
			c1.2-0.3,2.4-0.5,3.6-0.6c0.7-0.1,2-0.8,2.7-0.7c-2.4-0.3-4.8-0.3-7.2,0.2C6.4,3.6,4,4.6,1.9,6z"/>
	</g>
	<g id="Group_703" transform="translate(1216.86 860.11)">
		<path id="Path_1837" class="st9" d="M15.6,2.4c-0.6-0.2-1.3-0.1-1.9,0.2c-0.6,0.3-0.7,1.3-0.2,1.6c0.9-0.3,1.8-0.8,2.3-1.6"/>
		<path id="Path_1838" class="st9" d="M1.6,10.3c-0.3,0.3-0.5,0.8-0.4,1.2c2.4-0.9,4.3-2.7,6.3-4.4c0.3-0.3,0.7-0.6,1.1-0.9
			c1-0.7,2.1-1.2,3.2-1.7c0.7-0.3,1.7-1.4,2.4-1.5c-2.4,0.4-4.6,1.2-6.7,2.4C5.1,6.6,3.2,8.3,1.6,10.3z"/>
	</g>
	<path id="Path_1839" class="st10" d="M1261.1,863c-0.5,0.3-0.9,0.6-1.2,1c-1,1.3-2.1,2.6-3.4,3.7c-1.3,1.1-3.1,1.5-4.7,0.8
		c0.5-1.5,1.2-2.9,2-4.2c0.7-1.2,1.3-2.5,2.1-3.7c0.7-1,1.6-1.1,2.7-0.6c0.7,0.3,1.2,0.7,1.7,1.2
		C1260.5,861.4,1261.4,862.9,1261.1,863z"/>
	<path id="Path_1840" class="st9" d="M1247.2,868.1c0.2,1.5,0.2,2.9,2,2.6c1.4-0.3,2.7-1,3.7-2.1c2-1.8,3.5-4.1,4.4-6.6
		c0.2-0.6,0.6-1.3,0-1.7c-0.9-0.5-2.7-0.3-3.7-0.3c-1.2-0.2-2.3,0.5-2.8,1.6c-1,1.4-1.8,3-2.4,4.6c0-0.1,0-0.2,0.1-0.3"/>
	<path id="Path_1841" class="st9" d="M1263.6,866.5l0,0.4c-0.1,0.3,0,0.6,0.1,0.8c0.1,0.3,0.4,0.4,0.7,0.3c0,0,0,0,0,0
		c0.1-0.1,0.2-0.3,0.2-0.5c0-0.3,0-0.7-0.2-1c-0.2-0.3-0.5-0.5-0.8-0.5"/>
	<path id="Path_1842" class="st10" d="M1260.8,882c0.3,0.5,0.8,1,1.3,1c0.2,0,0.4,0,0.6-0.1l4.9-1.5c1.1-0.3,2.3-0.8,2.6-1.9
		c0.1-0.6,0.1-1.2,0.1-1.8c0.1-0.5,0-1,0-1.5c-0.1-0.5-0.6-0.9-1.1-0.8c-0.2,0.1-0.4,0.2-0.6,0.4c-2,1.9-4.7,2.8-7.4,3.5
		c-0.3,0.1-0.6,0.2-0.8,0.3c-0.3,0.2-0.4,0.5-0.4,0.8c0.1,0.3,0.3,0.4,0.6,0.4c0,0,0.1,0,0.1,0"/>
	<path id="Path_1843" class="st9" d="M1267.8,873.5c-0.1,0.2-0.1,0.4-0.1,0.7c0.1,0.2,0.4,0.3,0.5,0.2c0-0.1,0.1-0.1,0.1-0.2
		c0.1-0.2,0.1-0.5,0.1-0.7c-0.1-0.2-0.3-0.4-0.6-0.3c0,0,0,0,0,0"/>
	<path id="Path_1844" class="st9" d="M1261,882.2c-0.2-0.3-0.5-0.7-0.3-1c0.2-0.5,1-0.4,1.4-0.2c0.4,0.3,1,0.4,1.5,0.3
		c0.5-0.1,0.9-0.6,0.7-1.1c-0.1-0.2-0.3-0.3-0.3-0.6c0-0.2,0.2-0.4,0.4-0.5c1.8-0.9,3.5-2.1,5-3.3c0.1-0.1,0.2-0.2,0.3-0.4
		c0.1-0.3-0.3-0.5-0.5-0.5c-0.3,0-0.6,0.2-0.8,0.4c-2,1.4-4.3,2.5-6.7,3.1c-0.8,0.2-2.5,0.1-2.6,1.2
		C1259.2,880.6,1260.3,881.8,1261,882.2z"/>
	<path id="Path_1845" class="st10" d="M1266.8,887.5c0.1,0.6,0.3,1.1,0.5,1.7c2.2-1.7,3.1-4.6,3.2-7.4c0-0.3,0-0.6-0.1-0.8
		c-0.1-0.3-0.4-0.4-0.7-0.4c-0.2,0.1-0.3,0.2-0.5,0.3c-1.1,1-2.6,0.8-3.8,1.6c-0.4,0.3-0.7,0.6-1.1,0.9c-0.4,0.3-1,0.4-1.5,0.6
		c-0.1,0-0.2,0.1-0.3,0.2c-0.1,0.2,0,0.4,0.2,0.5C1263.9,885.4,1266.2,886.1,1266.8,887.5z"/>
	<path id="Path_1846" class="st9" d="M1269.3,878.1c0,0.4-0.3,0.8,0,1.1c0.1,0.1,0.3,0.1,0.5,0c0.1-0.1,0.2-0.3,0.2-0.5
		c0-0.5-0.2-0.9-0.6-1.1"/>
	<path id="Path_1847" class="st9" d="M1265.2,885.1c0.3,0,0.6-0.1,0.9-0.3c0.3-0.2,0.3-0.6,0.2-0.8c-0.1-0.2-0.3-0.3-0.5-0.4
		c-0.2-0.1-0.4-0.3-0.3-0.5c0-0.1,0.1-0.2,0.2-0.3c1.3-1,3.4-0.8,4.6-2c0.2-0.2,0.4-0.6,0.2-0.9c-0.2-0.2-0.4-0.2-0.6-0.1
		c-0.2,0.1-0.4,0.2-0.5,0.4c-1.6,1.4-3.7,1.7-5.6,2.3c-0.9,0.3-1.9,0.6-1,1.6C1263.3,884.8,1264.3,885.1,1265.2,885.1z"/>
	<path id="Path_1848" class="st9" d="M1269.3,883.2c-0.2,0.3-0.3,0.7-0.4,1.1c0,0.1,0,0.1,0,0.2c0.1,0.1,0.2,0.1,0.3,0
		c0.4-0.2,0.6-0.5,0.7-0.9c0.1-0.3,0-0.8-0.4-0.8"/>
	<path id="Path_1849" class="st9" d="M1238.9,870.9c-0.1,0.9-0.3,1.7-0.5,2.6c-0.1,0.3-0.2,0.5-0.4,0.7c-0.2,0.1-0.4,0.2-0.6,0.3
		c-1.4,0.5-2.7,1.3-3.8,2.5c-0.2,0.2-0.3,0.4-0.3,0.6c1,0,2-0.3,2.8-0.9c0.9-0.5,1.7-1.1,2.5-1.7c0.2-0.1,0.4-0.3,0.6-0.6
		c0.4-0.6,0-1.5,0.2-2.2c0.1-0.4,0.3-0.7,0.5-1c0.2-0.3,0.2-0.7,0.1-1.1c-0.1-0.2-0.3-0.4-0.5-0.5l-0.8-0.6"/>
	<path id="Path_1850" class="st9" d="M1243.6,872.6c0,0.1,0,0.2,0,0.2c0,0,0.1,0.1,0.1,0.1c0.5,0.3,1.2,0.2,1.6-0.2
		c0.4-0.4,0.7-0.9,0.9-1.5c0.4-1.1,0.7-2.3,0.8-3.5c0.1-0.5-0.1-1-0.4-1.3C1244.6,865.3,1243.8,871.8,1243.6,872.6z"/>
	<path id="Path_1851" class="st9" d="M1247.9,876.4c0,0.1,0,0.2,0,0.2c0,0,0.1,0.1,0.1,0.1c0.6,0.2,1.2,0,1.6-0.4
		c0.4-0.5,0.6-1,0.7-1.6c0.3-1.2,0.4-2.4,0.3-3.6c0-0.5-0.2-1-0.6-1.2C1248,869,1248,875.6,1247.9,876.4z"/>
	<path id="Path_1852" class="st10" d="M1240.9,877.6c0.7-0.2,1.2,0.2,1.7-0.2c0.4-0.3,0.5-1,0.6-1.5c0.4-1.2,0.9-2.3,1.6-3.4
		c-0.8,1.1-1.7,2.2-2.4,3.3C1241.9,876.2,1241.5,877.4,1240.9,877.6z"/>
	<path id="Path_1853" class="st10" d="M1248.6,882.7c0.4-0.3,0.8-0.3,0.9-0.8c0-0.6-0.1-1.2-0.2-1.7c0-0.4,0.2-3.2-0.2-3.4
		c-0.2-0.1-0.3-0.2-0.4-0.4c0.1,1.2,0.1,2.5,0.1,3.7C1248.7,880.7,1249.1,882.2,1248.6,882.7z"/>
	<path id="Path_1854" class="st10" d="M1241.7,877.4c-0.4,0.5-0.7,1-1,1.5l1.2,0.7c-0.1-0.4-0.1-0.9,0-1.3c0.1-0.4,0.3-0.8,0.4-1.2
		c-0.2-0.1-0.4,0-0.5,0.2"/>
	<path id="Path_1855" class="st10" d="M1241,879.1c-0.4,0.5-0.7,1-1,1.5l1.2,0.7c-0.1-0.4-0.1-0.9,0-1.3c0.1-0.4,0.3-0.8,0.4-1.2
		c-0.2-0.1-0.4,0-0.5,0.2"/>
	<path id="Path_1856" class="st10" d="M1240.2,881c-0.4,0.5-0.7,1-1,1.5l1.2,0.7c-0.1-0.4-0.1-0.9,0-1.3c0.1-0.4,0.3-0.8,0.4-1.2
		c-0.2-0.1-0.4,0-0.5,0.2"/>
	<path id="Path_1857" class="st10" d="M1248.9,882.8c-0.4,0.5-0.7,1-1,1.5l1.2,0.7c-0.1-0.4-0.1-0.9,0-1.3c0.1-0.4,0.3-0.8,0.4-1.2
		c-0.2-0.1-0.4,0-0.5,0.2"/>
	<path id="Path_1858" class="st10" d="M1248.2,884.5c-0.4,0.5-0.7,1-1,1.5l1.2,0.7c-0.1-0.4-0.1-0.9,0-1.3c0.1-0.4,0.3-0.8,0.4-1.2
		c-0.2-0.1-0.4,0-0.5,0.2"/>
	<path id="Path_1859" class="st10" d="M1247.4,886.4c-0.4,0.5-0.7,1-1,1.5l1.2,0.7c-0.1-0.4-0.1-0.9,0-1.3c0.1-0.4,0.3-0.8,0.4-1.2
		c-0.2-0.1-0.4,0-0.5,0.2"/>
	<path id="Path_1860" class="st10" d="M1253.7,885.5c0.6-0.4,1.1-0.2,1.3-1.1c0-1-0.1-2-0.2-2.9c0-0.7,0.4-5.3-0.1-5.7
		c-0.3-0.2-0.4-0.4-0.5-0.7c0.1,2.1,0,4.1,0,6.1C1253.9,882.3,1254.3,884.8,1253.7,885.5z"/>
	<path id="Path_1861" class="st10" d="M1253.7,885.6c-0.3,0.5-0.6,1.1-0.8,1.6l1.3,0.5c-0.2-0.4-0.2-0.9-0.1-1.3
		c0.1-0.4,0.2-0.9,0.2-1.3c-0.2,0-0.4,0.1-0.5,0.3"/>
	<path id="Path_1862" class="st10" d="M1253.3,887.4c-0.3,0.5-0.6,1.1-0.8,1.6l1.3,0.5c-0.2-0.4-0.2-0.9-0.1-1.3
		c0.1-0.4,0.2-0.9,0.2-1.3c-0.2,0-0.4,0.1-0.5,0.3"/>
	<path id="Path_1863" class="st10" d="M1252.8,889.4c-0.3,0.5-0.6,1.1-0.8,1.6l1.3,0.5c-0.2-0.4-0.2-0.9-0.1-1.3
		c0.1-0.4,0.2-0.9,0.2-1.3c-0.2,0-0.4,0.1-0.5,0.3"/>
	<path id="Path_1864" class="st9" d="M1253.3,875.4c0.1,0.1,0.2,0.2,0.4,0.3l0.8,0.6c0.1,0.1,0.4,0.2,0.5,0c0-0.1,0-0.1,0-0.2
		c0-0.6,0.2-4.8-0.5-4.8C1253.5,871.6,1252.9,874.8,1253.3,875.4z"/>
	<path id="Path_1865" class="st9" d="M1227.5,861.3c0.5,0.5,1.2,0.7,1.9,0.7c0.3,0,0.6-0.1,0.9-0.2c0.4-0.2,0.8-0.5,1.2-0.9
		c0.8-0.5,1.7-0.9,2.6-1c0.4-0.1,0.8-0.3,0.7-0.6c0-0.1-0.1-0.2-0.2-0.3c-1.3-1.2-3.7-1.1-5.4-0.9
		C1227.7,858.3,1226,859.8,1227.5,861.3z"/>
	<path id="Path_1866" class="st4" d="M1257.9,847c5.5-3.2,11.8-5.4,18.1-5.3c0.1,0,0.3,0,0.4,0.1c0.2,0.1,0.2,0.4,0.2,0.6
		c0.2,3.5-2.5,6.7-5.7,8.3s-6.8,1.9-10.3,2.5c-5.9,1.1-11.4,3.2-17.1,4.9c2.1-2.2,4.4-4.2,6.9-6
		C1252.8,850.3,1255.3,848.6,1257.9,847z"/>
	<path id="Path_1867" class="st4" d="M1257.8,854.9c5.1-0.8,10.4-0.6,15.5,0.6c0.1,0,0.2,0.1,0.3,0.1c0.1,0.1,0.1,0.2,0.1,0.4
		c-0.3,2.1-3,3.4-5.8,3.6c-2.9,0.1-5.8-0.1-8.7-0.6c-4.9-0.6-9.7-0.4-14.6-0.6c2.1-0.9,4.2-1.6,6.4-2.1
		C1253.3,855.7,1255.6,855.3,1257.8,854.9z"/>
</g>
</svg>
