<?xml version="1.0" encoding="utf-8"?>
<!-- Generator: Adobe Illustrator 24.3.0, SVG Export Plug-In . SVG Version: 6.00 Build 0)  -->
<!DOCTYPE svg PUBLIC "-//W3C//DTD SVG 1.1//EN" "http://www.w3.org/Graphics/SVG/1.1/DTD/svg11.dtd" [
	<!ENTITY ns_extend "http://ns.adobe.com/Extensibility/1.0/">
	<!ENTITY ns_ai "http://ns.adobe.com/AdobeIllustrator/10.0/">
	<!ENTITY ns_graphs "http://ns.adobe.com/Graphs/1.0/">
	<!ENTITY ns_vars "http://ns.adobe.com/Variables/1.0/">
	<!ENTITY ns_imrep "http://ns.adobe.com/ImageReplacement/1.0/">
	<!ENTITY ns_sfw "http://ns.adobe.com/SaveForWeb/1.0/">
	<!ENTITY ns_custom "http://ns.adobe.com/GenericCustomNamespace/1.0/">
	<!ENTITY ns_adobe_xpath "http://ns.adobe.com/XPath/1.0/">
]>
<svg version="1.1" id="Layer_1" xmlns:x="&ns_extend;" xmlns:i="&ns_ai;" xmlns:graph="&ns_graphs;"
	 xmlns="http://www.w3.org/2000/svg" xmlns:xlink="http://www.w3.org/1999/xlink" x="0px" y="0px" viewBox="0 0 23.9 22.6"
	 style="enable-background:new 0 0 23.9 22.6;" xml:space="preserve">
<style type="text/css">
	.st0{fill:#66913D;}
	.st1{fill:none;stroke:#66913D;stroke-width:3;stroke-linecap:round;stroke-linejoin:round;}
	.st2{fill:none;}
	.st3{fill:#FFFFFF;}
	.st4{fill:#2F2F2F;}
	.st5{fill:#707070;}
</style>
<metadata>
	<sfw  xmlns="&ns_sfw;">
		<slices></slices>
		<sliceSourceBounds  bottomLeftOrigin="true" height="455.9" width="404.2" x="0.6" y="-456.3"></sliceSourceBounds>
	</sfw>
</metadata>
<g id="Group_13727_1_" transform="translate(11.591 71.067) rotate(45)">
	<g id="Polygon_5_1_" transform="translate(0 0)">
		<path class="st4" d="M-37.4-40.1h-9.2l4.6-9.6L-37.4-40.1z"/>
		<path class="st4" d="M-42-51.9c0.4,0,0.7,0.2,0.9,0.6l5.4,11.3c0.3,0.7-0.2,1.4-0.9,1.4h-10.7c-0.7,0-1.2-0.8-0.9-1.4l5.4-11.3
			C-42.7-51.7-42.4-51.9-42-51.9z"/>
	</g>
	<path class="st4" d="M-41.3-33.4c-0.2,0.2-0.4,0.3-0.7,0.3c-0.6,0-1-0.4-1-1v-4.7c0-0.6,0.4-1,1-1c0.6,0,1,0.4,1,1v4.7
		C-41-33.8-41.1-33.5-41.3-33.4z"/>
</g>
</svg>
