<?xml version="1.0" encoding="utf-8"?>
<!-- Generator: Adobe Illustrator 24.3.0, SVG Export Plug-In . SVG Version: 6.00 Build 0)  -->
<!DOCTYPE svg PUBLIC "-//W3C//DTD SVG 1.1//EN" "http://www.w3.org/Graphics/SVG/1.1/DTD/svg11.dtd" [
	<!ENTITY ns_extend "http://ns.adobe.com/Extensibility/1.0/">
	<!ENTITY ns_ai "http://ns.adobe.com/AdobeIllustrator/10.0/">
	<!ENTITY ns_graphs "http://ns.adobe.com/Graphs/1.0/">
	<!ENTITY ns_vars "http://ns.adobe.com/Variables/1.0/">
	<!ENTITY ns_imrep "http://ns.adobe.com/ImageReplacement/1.0/">
	<!ENTITY ns_sfw "http://ns.adobe.com/SaveForWeb/1.0/">
	<!ENTITY ns_custom "http://ns.adobe.com/GenericCustomNamespace/1.0/">
	<!ENTITY ns_adobe_xpath "http://ns.adobe.com/XPath/1.0/">
]>
<svg version="1.1" id="Layer_1" xmlns:x="&ns_extend;" xmlns:i="&ns_ai;" xmlns:graph="&ns_graphs;"
	 xmlns="http://www.w3.org/2000/svg" xmlns:xlink="http://www.w3.org/1999/xlink" x="0px" y="0px" viewBox="0 0 73.3 73.3"
	 style="enable-background:new 0 0 73.3 73.3;" xml:space="preserve">
<style type="text/css">
	.st0{fill:#FFFFFF;}
	.st1{fill:#E4E5E0;}
	.st2{fill:#6D6250;}
	.st3{fill:#6D444E;}
	.st4{opacity:0.62;fill:#D3CDC5;enable-background:new    ;}
	.st5{fill:#494339;}
	.st6{fill:#262115;}
	.st7{fill:#F9F5EF;}
	.st8{fill:#B8833D;}
</style>
<metadata>
	<sfw  xmlns="&ns_sfw;">
		<slices></slices>
		<sliceSourceBounds  bottomLeftOrigin="true" height="130.3" width="164.8" x="-58.5" y="-16.6"></sliceSourceBounds>
	</sfw>
</metadata>
<g id="Group_701" transform="translate(-1513.187 -646.681)">
	<path id="Path_1813" class="st4" d="M1553.6,673.1c-4.7-6.1-9.8-11.9-15.3-17.3c-3.2-3.1-7.2-6.4-11.7-6c-4.6,7.5-2.9,18,4,24.2
		C1537.7,680.3,1567.5,691.2,1553.6,673.1z"/>
	<g id="Group_698" transform="translate(1515.305 677.075)">
		<path id="Path_1814" class="st5" d="M31.1,27.7l-4.2,1.2l-5.9,3.4l-6.7,1.5l-4.6,2.4L9,34.1H6l-1.4,0.4L3,27l2.7-7.5l4.7-6.4
			l5.8-5.3l8.2-3.7L33.2,3l8.1,3.8l8.3,1.7l0,1.5l0,1.1l-3.7,7.1l-5.8,5.6L31.1,27.7z"/>
	</g>
	<g id="Group_699" transform="translate(1545.619 672.51)">
		<path id="Path_1815" class="st6" d="M7.5,6.8l8-3.8l8.9,1.1l3.9,7.1l1,3.7L28,17.8l-2.5,5.9l-4.7,4l-7-1.7l-6.1-4.3L3,15.9
			L7.5,6.8z"/>
	</g>
	<g id="Group_700" transform="translate(1559.023 675.084)">
		<path id="Path_1816" class="st6" d="M6.2,3.7L14.7,3l7.3,4.1l1.8,7.3l-0.5,2L20.4,18l-8.9-0.6L3,14.6"/>
	</g>
	<path id="Path_1817" d="M1575.1,675.3c0.8-1.6,1.4-3.2,1.8-4.9c-1.3,1.1-2.3,2.6-2.9,4.2c-0.5,1.3-1.1,3.6-0.1,4.6
		C1574.5,678.2,1574.6,676.6,1575.1,675.3z"/>
	<path id="Path_1818" d="M1583.5,672.3c-1-0.2-2,0.1-2.7,0.7c-0.7,0.7-1.3,1.4-1.8,2.3c-1.2,1.6-2.1,3.3-2.6,5.2
		C1579,678.3,1581.2,674.9,1583.5,672.3z"/>
	<path id="Path_1819" d="M1572.3,682.2c3.1,0.7,5.5,3.2,6.1,6.4c0.1,0.2,0,0.4-0.1,0.6c-0.1,0.2-0.3,0.2-0.5,0.3
		c-1.4,0.2-2.9,0.2-4.3,0c-1.4-0.1-2.7-0.7-3.7-1.7c-1.1-1.4-0.9-3.4,0.5-4.5c0.4-0.3,0.9-0.6,1.5-0.7"/>
	<path id="Path_1820" class="st7" d="M1573.6,684.6c0.3,0.6,0.4,1.3,0.2,2c-0.7,0.2-1.5-0.1-1.8-0.8c-0.2-0.6,0.1-1.3,0.7-1.5
		c0.1,0,0.2-0.1,0.3-0.1"/>
	<path id="Path_1821" d="M1561.2,697.4c-3,1-5.1,3.9-6.1,7s-1.2,6.3-2,9.4c-0.3,1.4-1.1,3-2.5,3.2c-1.9,0.3-3.1-2.1-3.3-4
		c-0.4-3.4-0.2-6.8,0.8-10c1.2-4.1,4.7-8.5,8.9-7.7"/>
	<path id="Path_1822" d="M1566.2,698.1l0.9,13.4c-3.4,0.5-6.6-2.6-7.1-5.9s0.9-6.8,2.8-9.6"/>
	<path id="Path_1823" d="M1568.8,695.9c4.9-0.2,9.5,2.3,12,6.5c-1.9,1.2-4.4,0.4-6.4-0.6s-4.2-2.2-6.3-1.7c-0.1-1.2,0-2.4,0.3-3.5"
		/>
	<path id="Path_1824" class="st4" d="M1551,674.7c-6.3-5.8-13-11.1-20.1-16c-4.1-2.8-9-5.5-13.7-4c-3,10,0.9,20.8,9.7,26.5
		C1535.9,686.9,1569.8,692,1551,674.7z"/>
	<path id="Path_1825" class="st8" d="M1547.2,705.7c0.2-5.6,4.3-12.6,11.1-10.8c0.9,0.2,1.5,1,1.6,1.9c-0.1,0.5-0.3,1-0.6,1.4
		c-2,2.9-4.2,5.8-6.4,8.6c-0.3,0.4-1.3,0.7-1.2,0.1c0,0.7-0.5,1.3-1.2,1.3c-0.7,0-1.3-0.5-1.3-1.2c0-0.2,0-0.4,0.1-0.6l-1.3,0.7
		c-0.2-0.8-0.1-1.6,0.1-2.4C1548.1,705.1,1547.7,705.5,1547.2,705.7z"/>
	<path id="Path_1826" class="st8" d="M1562.8,695.5c-2,2.8-2.8,6.2-2.5,9.6c0.5-0.9,0.8-2,0.7-3.1c-0.2,1.5,0.2,3,0.9,4.4l1.6-2.8
		l1,1.7l0.8-5.3c0.3-2.3,0.5-5-1.3-6.5"/>
	<path id="Path_1827" class="st8" d="M1560.1,682.9c1,0.1,2-0.9,1.6-1.8l0.3,4.7c1.4-1.1,2.5-2.6,3.2-4.3l0.2,2.7
		c0,0.3,0.1,0.8,0.4,0.9c0.3,0.1,0.6-0.2,0.8-0.4c0.9-1.1,1.6-2.3,2.1-3.6c-0.2,0.3,0.2,0.6,0.5,0.5c0.3-0.1,0.5-0.4,0.6-0.7
		c0.5-0.7,0.7-1.6,0.4-2.5c-0.3-0.6-0.9-0.9-1.5-1.1c-1.4-0.4-3-0.4-4.4,0.2c-0.1-0.8-1.2-0.9-2-0.8l-3,0.3
		C1555.4,677.3,1557.3,682.6,1560.1,682.9z"/>
</g>
</svg>
